<?xml version="1.0" encoding="UTF-8"?>
<!-- Generated by jsxcad -->
<!DOCTYPE svg PUBLIC "-//W3C//DTD SVG 1.1 Tiny//EN" "http://www.w3.org/Graphics/SVG/1.1/DTD/svg11-tiny.dtd">
<svg viewBox="-250 -250 500 500" width="500" height="500" xmlns="http://www.w3.org/2000/svg"><path d="M1.2549945323445617,-19.029645240842363L-9.322440544504339,-7.807095219146331L3.7183290218674148,-14.144614992690066z" style="fill:rgb(162,50,222)"/><path d="M-11.845197352333505,-12.661022906803826L-20.963133642660214,-0.15188953806549435L-9.322440544504339,-7.807095219146331zM-23.543923739391104,-4.978239035462334L-21.37538247175827,0.11921625696464293L-20.963133642660214,-0.15188953806549435z" style="fill:rgb(183,62,221)"/><path d="M-9.322440544504339,-7.807095219146331L1.2549945323445617,-19.029645240842363L-11.845197352333505,-12.661022906803826z" style="fill:rgb(162,50,222)"/><path d="M14.91901751568809,-23.60397698619721L3.7183290218674148,-14.144614992690066L17.32515667357029,-18.686139929892427z" style="fill:rgb(139,40,220)"/><path d="M-20.963133642660214,-0.15188953806549435L-11.845197352333505,-12.661022906803826L-23.543923739391104,-4.978239035462334z" style="fill:rgb(183,62,221)"/><path d="M3.7183290218674148,-14.144614992690066L14.91901751568809,-23.60397698619721L1.2549945323445617,-19.029645240842363z" style="fill:rgb(139,40,220)"/><path d="M-21.37538247175827,0.11921625696464293L-23.543923739391104,-4.978239035462334L-23.958232764368187,-4.70615428141106z" style="fill:rgb(183,62,221)"/><path d="M-21.37538247175827,0.11921625696464293L-34.31751931718055,4.265744254377422L-31.677581614414454,9.06666211152503zM-34.31751931718055,4.265744254377422L-21.37538247175827,0.11921625696464293L-23.958232764368187,-4.70615428141106zM-31.677581614414454,9.06666211152503L-34.68512140264776,4.584116340277525L-32.0431552548878,9.384161506574427z" style="fill:rgb(203,77,216)"/><path d="M28.704843205670425,-26.221863464603736L17.32515667357029,-18.686139929892427L31.05751505148022,-21.270508325353774zM17.32515667357029,-18.686139929892427L28.704843205670425,-26.221863464603736L14.91901751568809,-23.60397698619721z" style="fill:rgb(115,34,214)"/><path d="M-34.68512140264776,4.584116340277525L-31.677581614414454,9.06666211152503L-34.31751931718055,4.265744254377422z" style="fill:rgb(203,77,216)"/><path d="M29.16149887951399,-26.240509169780555L31.05751505148022,-21.270508325353774L31.51254654396324,-21.288031859264233zM31.05751505148022,-21.270508325353774L29.16149887951399,-26.240509169780555L28.704843205670425,-26.221863464603736z" style="fill:rgb(92,32,204)"/><path d="M-43.65754725214982,14.91859572515162L-32.0431552548878,9.384161506574427L-34.68512140264776,4.584116340277525zM-32.0431552548878,9.384161506574427L-43.65754725214982,14.91859572515162L-40.959192426095406,19.697109237156116z" style="fill:rgb(220,94,208)"/><path d="M31.51254654396324,-21.288031859264233L42.15762206214687,-26.77116537167615L29.16149887951399,-26.240509169780555z" style="fill:rgb(92,32,204)"/><path d="M-40.959192426095406,19.697109237156116L-43.89112590759368,15.293291647405784L-41.191022323505386,20.07123170059164z" style="fill:rgb(233,112,197)"/><path d="M42.15762206214687,-26.77116537167615L31.51254654396324,-21.288031859264233L44.46202396213414,-21.78673876125261z" style="fill:rgb(92,32,204)"/><path d="M-43.89112590759368,15.293291647405784L-40.959192426095406,19.697109237156116L-43.65754725214982,14.91859572515162zM-50.54567276079793,25.968226514470466L-41.191022323505386,20.07123170059164L-43.89112590759368,15.293291647405784zM-41.191022323505386,20.07123170059164L-50.54567276079793,25.968226514470466L-47.7955243445183,30.729469256936166z" style="fill:rgb(233,112,197)"/><path d="M44.46202396213414,-21.78673876125261L54.816798728219545,-25.195107970986427L42.15762206214687,-26.77116537167615zM54.816798728219545,-25.195107970986427L44.46202396213414,-21.78673876125261L57.07958982190897,-20.17934674219186z" style="fill:rgb(71,33,192)"/><path d="M-55.06796964427284,37.36943233540567L-47.7955243445183,30.729469256936166L-50.54567276079793,25.968226514470466zM-47.7955243445183,30.729469256936166L-55.06796964427284,37.36943233540567L-52.27257941735183,42.11806085584567z" style="fill:rgb(242,130,183)"/><path d="M68.45473303651046,-16.454694417103415L54.816798728219545,-25.195107970986427L57.07958982190897,-20.17934674219186zM54.816798728219545,-25.195107970986427L68.45473303651046,-16.454694417103415L66.22543016226444,-21.498663562803223z" style="fill:rgb(51,38,177)"/><path d="M-57.00327301838281,48.72926552111307L-52.27257941735183,42.11806085584567L-55.06796964427284,37.36943233540567zM-52.27257941735183,42.11806085584567L-57.00327301838281,48.72926552111307L-54.171185255762055,53.47028646779744z" style="fill:rgb(246,149,167)"/><path d="M78.14790693510109,-10.687835541822219L66.22543016226444,-21.498663562803223L68.45473303651046,-16.454694417103415z" style="fill:rgb(34,46,160)"/><path d="M-28.40004134493508,23.05968397848613L-22.700602414805182,77.95445510910015L-21.421739575668532,14.910378728723328zM-21.421739575668532,14.910378728723328L-13.952905998767443,81.74984297419043L-13.031270018781386,7.580762690401064zM-33.70650016469371,31.757496062496053L-29.721333638965145,72.56975462919178L-28.40004134493508,23.05968397848613z" style="fill:rgb(83,212,212)"/><path d="M-30.16525733651654,-76.63803598171219L-6.049861754982226,-3.556912205689697L4.2964362280651285,-8.583293434754816z" style="fill:rgb(162,50,222)"/><path d="M-13.031270018781386,7.580762690401064L-3.8031806394289283,83.7626913113231L-3.5244165938861896,1.3117222037592002z" style="fill:rgb(83,212,212)"/><path d="M-41.17126976518426,-71.26509819053899L-15.604625167215994,2.735040800772479L-6.049861754982226,-3.556912205689697z" style="fill:rgb(183,62,221)"/><path d="M-37.125941209701224,40.70687665483025L-34.777505585100805,65.8474808436333L-33.70650016469371,31.757496062496053z" style="fill:rgb(83,212,212)"/><path d="M-18.7440163566127,-80.59917828467121L4.2964362280651285,-8.583293434754816L15.086609720049443,-12.173792570935971z" style="fill:rgb(139,40,220)"/><path d="M-3.5244165938861896,1.3117222037592002L7.346181491294608,83.8734097981443L6.774393790272851,-3.689837635553926z" style="fill:rgb(83,212,212)"/><path d="M66.22543016226444,-21.498663562803223L78.14790693510109,-10.687835541822219L75.94256300118175,-15.755463201574644z" style="fill:rgb(34,46,160)"/><path d="M-37.72219948315281,58.081419521588145L-37.125941209701224,40.70687665483025L-38.497029530697844,49.59108085223881z" style="fill:rgb(83,212,212)"/><path d="M-15.604625167215994,2.735040800772479L-60.49277537415935,-57.040803862992206L-24.04200415801718,10.085038694798614z" style="fill:rgb(203,77,216)"/><path d="M-57.00327301838281,48.72926552111307L-53.3464697498447,64.37208674679675L-54.171185255762055,53.47028646779744z" style="fill:rgb(246,167,149)"/><path d="M6.774393790272851,-3.689837635553926L19.032100428246057,82.0478038192378L17.518869516336295,-7.254333391674068z" style="fill:rgb(83,212,212)"/><path d="M-7.288471808079644,-83.00707524491654L15.086609720049443,-12.173792570935971L25.957718724962966,-14.198710011250665z" style="fill:rgb(115,34,214)"/><path d="M17.518869516336295,-7.254333391674068L30.75384337358864,78.34369806899457L28.34738742568028,-9.252902352803492z" style="fill:rgb(83,212,212)"/><path d="M-24.04200415801718,10.085038694798614L-68.14484159985078,-48.653592407659374L-31.064729425720877,18.251669578344124z" style="fill:rgb(220,94,208)"/><path d="M85.75134027778357,-3.0289381772478934L75.94256300118175,-15.755463201574644L78.14790693510109,-10.687835541822219z" style="fill:rgb(21,57,142)"/><path d="M-37.125941209701224,40.70687665483025L-37.72219948315281,58.081419521588145L-34.777505585100805,65.8474808436333z" style="fill:rgb(83,212,212)"/><path d="M-53.3464697498447,64.37208674679675L-57.00327301838281,48.72926552111307L-56.20477492948708,59.633349841770645z" style="fill:rgb(246,167,149)"/><path d="M3.812661635567285,-83.76297978064335L25.957718724962966,-14.198710011250665L36.5383712509439,-14.572668286254135z" style="fill:rgb(92,32,204)"/><path d="M28.34738742568028,-9.252902352803492L42.00067318585268,72.91111053048651L38.88982760934905,-9.601102215467368zM-33.70650016469371,31.757496062496053L-34.777505585100805,65.8474808436333L-29.721333638965145,72.56975462919178zM38.88982760934905,-9.601102215467368L42.00067318585268,72.91111053048651L48.77528583957342,-8.262956582977791z" style="fill:rgb(83,212,212)"/><path d="M-31.064729425720877,18.251669578344124L-74.0691692352674,-39.77618211495066L-36.41160260985275,26.963313807850426z" style="fill:rgb(233,112,197)"/><path d="M75.94256300118175,-15.755463201574644L85.75134027778357,-3.0289381772478934L83.55906041426849,-8.11431965484726z" style="fill:rgb(21,57,142)"/><path d="M-56.20477492948708,59.633349841770645L-49.742846319165686,74.3994493285859L-53.3464697498447,64.37208674679675z" style="fill:rgb(242,183,130)"/><path d="M14.170562416863332,-82.81519890003356L36.5383712509439,-14.572668286254135L46.45643381068787,-13.258681016194387z" style="fill:rgb(71,33,192)"/><path d="M48.77528583957342,-8.262956582977791L61.15406204097815,57.87375806860607L57.641209740698216,-5.255182577377355zM-28.40004134493508,23.05968397848613L-29.721333638965145,72.56975462919178L-22.700602414805182,77.95445510910015z" style="fill:rgb(83,212,212)"/><path d="M90.90828198801177,6.292016323777656L83.55906041426849,-8.11431965484726L85.75134027778357,-3.0289381772478934z" style="fill:rgb(12,71,124)"/><path d="M57.641209740698216,-5.255182577377355L68.24904835357113,48.93641746720571L65.1443313711307,-0.6511812189101103z" style="fill:rgb(83,212,212)"/><path d="M55.3481781372852,-10.272413576926834L14.170562416863332,-82.81519890003356L46.45643381068787,-13.258681016194387z" style="fill:rgb(51,38,177)"/><path d="M-36.41160260985275,26.963313807850426L-78.02715735540336,-30.710193224055864L-39.86590270969196,35.92266427297509z" style="fill:rgb(242,130,183)"/><path d="M-21.421739575668532,14.910378728723328L-22.700602414805182,77.95445510910015L-13.952905998767443,81.74984297419043z" style="fill:rgb(83,212,212)"/><path d="M-49.742846319165686,74.3994493285859L-56.20477492948708,59.633349841770645L-52.61514091578046,69.65739217533967z" style="fill:rgb(242,183,130)"/><path d="M-6.049861754982226,-3.556912205689697L-30.16525733651654,-76.63803598171219L-41.17126976518426,-71.26509819053899z" style="fill:rgb(162,50,222)"/><path d="M-15.604625167215994,2.735040800772479L-41.17126976518426,-71.26509819053899L-51.39562029165079,-64.66072163267835z" style="fill:rgb(183,62,221)"/><path d="M4.2964362280651285,-8.583293434754816L-18.7440163566127,-80.59917828467121L-30.16525733651654,-76.63803598171219z" style="fill:rgb(139,40,220)"/><path d="M65.1443313711307,-0.6511812189101103L73.28942957841502,39.56461975626607L70.9735360610025,5.415863606744356z" style="fill:rgb(83,212,212)"/><path d="M-60.49277537415935,-57.040803862992206L-15.604625167215994,2.735040800772479L-51.39562029165079,-64.66072163267835z" style="fill:rgb(203,77,216)"/><path d="M-13.031270018781386,7.580762690401064L-13.952905998767443,81.74984297419043L-3.8031806394289283,83.7626913113231z" style="fill:rgb(83,212,212)"/><path d="M83.55906041426849,-8.11431965484726L90.90828198801177,6.292016323777656L88.7170098493038,1.1959698924837583z" style="fill:rgb(12,71,124)"/><path d="M15.086609720049443,-12.173792570935971L-7.288471808079644,-83.00707524491654L-18.7440163566127,-80.59917828467121z" style="fill:rgb(115,34,214)"/><path d="M70.9735360610025,5.415863606744356L76.10093493270531,30.15775838508146L74.86444148495285,12.751614194088745z" style="fill:rgb(83,212,212)"/><path d="M62.86924280327866,-5.686223630967482L23.40557982477153,-80.16386687644533L55.3481781372852,-10.272413576926834z" style="fill:rgb(34,46,160)"/><path d="M-68.14484159985078,-48.653592407659374L-24.04200415801718,10.085038694798614L-60.49277537415935,-57.040803862992206z" style="fill:rgb(220,94,208)"/><path d="M-39.86590270969196,35.92266427297509L-79.8343086320094,-21.77596310932091L-41.26478745726546,44.81266963627676z" style="fill:rgb(246,149,167)"/><path d="M-3.5244165938861896,1.3117222037592002L-3.8031806394289283,83.7626913113231L7.346181491294608,83.8734097981443z" style="fill:rgb(83,212,212)"/><path d="M25.957718724962966,-14.198710011250665L3.812661635567285,-83.76297978064335L-7.288471808079644,-83.00707524491654z" style="fill:rgb(92,32,204)"/><path d="M6.774393790272851,-3.689837635553926L7.346181491294608,83.8734097981443L19.032100428246057,82.0478038192378zM74.86444148495285,12.751614194088745L76.10093493270531,30.15775838508146L76.61499505021416,21.10191458932817z" style="fill:rgb(83,212,212)"/><path d="M-74.0691692352674,-39.77618211495066L-31.064729425720877,18.251669578344124L-68.14484159985078,-48.653592407659374z" style="fill:rgb(233,112,197)"/><path d="M-79.8343086320094,-21.77596310932091L-40.509275940131545,53.3043926911893L-41.26478745726546,44.81266963627676z" style="fill:rgb(246,167,149)"/><path d="M17.518869516336295,-7.254333391674068L19.032100428246057,82.0478038192378L30.75384337358864,78.34369806899457zM70.9735360610025,5.415863606744356L73.28942957841502,39.56461975626607L76.10093493270531,30.15775838508146z" style="fill:rgb(83,212,212)"/><path d="M36.5383712509439,-14.572668286254135L14.170562416863332,-82.81519890003356L3.812661635567285,-83.76297978064335z" style="fill:rgb(71,33,192)"/><path d="M28.34738742568028,-9.252902352803492L30.75384337358864,78.34369806899457L42.00067318585268,72.91111053048651zM65.1443313711307,-0.6511812189101103L68.24904835357113,48.93641746720571L73.28942957841502,39.56461975626607z" style="fill:rgb(83,212,212)"/><path d="M68.70754761954731,0.36766579447630665L31.158566777998193,-75.8657063369542L62.86924280327866,-5.686223630967482z" style="fill:rgb(21,57,142)"/><path d="M57.641209740698216,-5.255182577377355L61.15406204097815,57.87375806860607L68.24904835357113,48.93641746720571zM48.77528583957342,-8.262956582977791L52.2815759339864,65.98540058045009L61.15406204097815,57.87375806860607zM48.77528583957342,-8.262956582977791L42.00067318585268,72.91111053048651L52.2815759339864,65.98540058045009z" style="fill:rgb(83,212,212)"/><path d="M-78.02715735540336,-30.710193224055864L-36.41160260985275,26.963313807850426L-74.0691692352674,-39.77618211495066z" style="fill:rgb(242,130,183)"/><path d="M-161.93216133665166,-42.755020071580645L-165.6194639611258,71.27386149256174L-145.2296040497419,-65.67554734886073zM-145.2296040497419,-65.67554734886073L-147.4928424611103,87.76393210281982L-124.65759166803971,-87.01249692166876z" style="fill:rgb(83,212,212)"/><path d="M-79.37126901155379,-13.3047256018599L-37.574229529557066,61.06723908266718L-40.509275940131545,53.3043926911893z" style="fill:rgb(242,183,130)"/><path d="M173.76821011995517,-33.09955397113081L182.9018878262629,-5.203111426865911L175.55824722887317,-27.78987912131461z" style="fill:rgb(246,167,149)"/><path d="M-174.08996934646913,-18.846616741953582L-177.19777358550832,51.362183941780565L-161.93216133665166,-42.755020071580645zM-124.65759166803971,-87.01249692166876L-123.14285859412347,99.82227578489129L-100.90105763982562,-106.25169272301139z" style="fill:rgb(83,212,212)"/><path d="M14.170562416863332,-82.81519890003356L55.3481781372852,-10.272413576926834L23.40557982477153,-80.16386687644533z" style="fill:rgb(51,38,177)"/><path d="M72.59794095303101,7.695727540627631L37.104455206341314,-70.03807819349657L68.70754761954731,0.36766579447630665z" style="fill:rgb(12,71,124)"/><path d="M-79.8343086320094,-21.77596310932091L-39.86590270969196,35.92266427297509L-78.02715735540336,-30.710193224055864z" style="fill:rgb(246,149,167)"/><path d="M-100.90105763982562,-106.25169272301139L-93.30649115851064,106.55359211196024L-74.64810770008206,-122.94461425683807zM-182.2485386044763,29.061147803968044L-174.08996934646913,-18.846616741953582L-181.05651763936552,5.357829512038702z" style="fill:rgb(83,212,212)"/><path d="M23.40557982477153,-80.16386687644533L62.86924280327866,-5.686223630967482L31.158566777998193,-75.8657063369542z" style="fill:rgb(34,46,160)"/><path d="M182.9018878262629,-5.203111426865911L173.76821011995517,-33.09955397113081L181.10621017271575,-10.525431869450177z" style="fill:rgb(246,167,149)"/><path d="M-74.64810770008206,-122.94461425683807L-59.16208200854529,107.28689308290544L-46.592966152646994,-136.69400312815281z" style="fill:rgb(83,212,212)"/><path d="M-40.509275940131545,53.3043926911893L-79.8343086320094,-21.77596310932091L-79.37126901155379,-13.3047256018599z" style="fill:rgb(246,167,149)"/><path d="M-98.36221441606185,156.3168395230255L-119.62528770573691,134.87342550773437L-116.33577454637744,139.42208043255275z" style="fill:rgb(34,46,160)"/><path d="M-46.592966152646994,-136.69400312815281L-22.301183333885408,101.6841264306834L-17.445446721456573,-147.14301975986308z" style="fill:rgb(83,212,212)"/><path d="M31.158566777998193,-75.8657063369542L68.70754761954731,0.36766579447630665L37.104455206341314,-70.03807819349657z" style="fill:rgb(21,57,142)"/><path d="M-174.08996934646913,-18.846616741953582L-182.2485386044763,29.061147803968044L-177.19777358550832,51.362183941780565z" style="fill:rgb(83,212,212)"/><path d="M-37.574229529557066,61.06723908266718L-79.37126901155379,-13.3047256018599L-76.5950868937428,-5.628321159569288z" style="fill:rgb(242,183,130)"/><path d="M-17.445446721456573,-147.14301975986308L15.368780408634272,89.82404225079961L12.055773696199715,-153.96981551681526z" style="fill:rgb(83,212,212)"/><path d="M-119.62528770573691,134.87342550773437L-98.36221441606185,156.3168395230255L-101.6361165877584,151.74870028261165z" style="fill:rgb(34,46,160)"/><path d="M182.02636139116385,14.805399740347134L182.9018878262629,-5.203111426865911L181.10621017271575,-10.525431869450177z" style="fill:rgb(246,149,167)"/><path d="M148.76840104878843,-107.25489061117828L181.10621017271575,-10.525431869450177L173.76821011995517,-33.09955397113081z" style="fill:rgb(246,167,149)"/><path d="M37.104455206341314,-70.03807819349657L72.59794095303101,7.695727540627631L40.96784206552236,-62.86155802398355z" style="fill:rgb(12,71,124)"/><path d="M182.9018878262629,-5.203111426865911L182.02636139116385,14.805399740347134L183.85829647884353,20.118223395907176z" style="fill:rgb(246,149,167)"/><path d="M12.055773696199715,-153.96981551681526L51.786343236851444,72.23726394809866L41.128830844610754,-156.88846512615135zM-161.93216133665166,-42.755020071580645L-177.19777358550832,51.362183941780565L-165.6194639611258,71.27386149256174z" style="fill:rgb(83,212,212)"/><path d="M-74.7371371306312,168.97312647981428L-101.6361165877584,151.74870028261165L-98.36221441606185,156.3168395230255z" style="fill:rgb(51,38,177)"/><path d="M41.128830844610754,-156.88846512615135L84.93802623358631,49.87719671228615L68.93633554084722,-155.6579167194691z" style="fill:rgb(83,212,212)"/><path d="M183.85829647884353,20.118223395907176L181.77586673279905,15.940159383817063L183.61069332898006,21.251729417386805zM181.77586673279905,15.940159383817063L183.85829647884353,20.118223395907176L182.02636139116385,14.805399740347134z" style="fill:rgb(242,130,183)"/><path d="M-101.6361165877584,151.74870028261165L-165.6194639611258,71.27386149256174L-119.62528770573691,134.87342550773437z" style="fill:rgb(34,46,160)"/><path d="M-145.2296040497419,-65.67554734886073L-165.6194639611258,71.27386149256174L-147.4928424611103,87.76393210281982zM68.93633554084722,-155.6579167194691L113.06176968675021,24.02734897852596L94.57870337434369,-150.0998393163401z" style="fill:rgb(83,212,212)"/><path d="M-101.6361165877584,151.74870028261165L-74.7371371306312,168.97312647981428L-77.95768758249703,164.3723495166822z" style="fill:rgb(51,38,177)"/><path d="M176.04083375356183,41.92070911066951L183.61069332898006,21.251729417386805L181.77586673279905,15.940159383817063zM183.61069332898006,21.251729417386805L176.04083375356183,41.92070911066951L177.9424825292822,47.20079287174449z" style="fill:rgb(242,130,183)"/><path d="M94.57870337434369,-150.0998393163401L134.81035877214893,-3.8367618969306085L117.09749102041489,-140.12600927683516z" style="fill:rgb(83,212,212)"/><path d="M181.10621017271575,-10.525431869450177L148.76840104878843,-107.25489061117828L155.9830249452849,-84.98954378468537z" style="fill:rgb(246,167,149)"/><path d="M181.10621017271575,-10.525431869450177L156.35120180748717,-59.655481231333155L182.02636139116385,14.805399740347134z" style="fill:rgb(246,149,167)"/><path d="M-124.65759166803971,-87.01249692166876L-147.4928424611103,87.76393210281982L-123.14285859412347,99.82227578489129z" style="fill:rgb(83,212,212)"/><path d="M177.9424825292822,47.20079287174449L175.4937172507461,43.08312507196167L177.39967778296506,48.36100601409788z" style="fill:rgb(233,112,197)"/><path d="M-74.7371371306312,168.97312647981428L-49.34397142431895,171.86417274474758L-77.95768758249703,164.3723495166822z" style="fill:rgb(71,33,192)"/><path d="M175.4937172507461,43.08312507196167L177.9424825292822,47.20079287174449L176.04083375356183,41.92070911066951z" style="fill:rgb(233,112,197)"/><path d="M117.09749102041489,-140.12600927683516L149.34524947931703,-32.20171835978249L135.49402651846427,-125.77487442084693z" style="fill:rgb(83,212,212)"/><path d="M-49.34397142431895,171.86417274474758L-74.7371371306312,168.97312647981428L-46.21527346927776,176.51215778169959z" style="fill:rgb(71,33,192)"/><path d="M-77.95768758249703,164.3723495166822L-147.4928424611103,87.76393210281982L-101.6361165877584,151.74870028261165z" style="fill:rgb(51,38,177)"/><path d="M163.57064596197435,68.41551972058399L177.39967778296506,48.36100601409788L175.4937172507461,43.08312507196167zM177.39967778296506,48.36100601409788L163.57064596197435,68.41551972058399L165.571640011792,73.64311068507872z" style="fill:rgb(233,112,197)"/><path d="M-100.90105763982562,-106.25169272301139L-123.14285859412347,99.82227578489129L-93.30649115851064,106.55359211196024z" style="fill:rgb(83,212,212)"/><path d="M-165.6194639611258,71.27386149256174L-101.6361165877584,151.74870028261165L-147.4928424611103,87.76393210281982z" style="fill:rgb(34,46,160)"/><path d="M156.35120180748717,-59.655481231333155L181.10621017271575,-10.525431869450177L155.9830249452849,-84.98954378468537z" style="fill:rgb(246,149,167)"/><path d="M165.571640011792,73.64311068507872L163.00464398966324,69.61805641605567L165.01020017153127,74.84315150592467z" style="fill:rgb(233,112,197)"/><path d="M-46.21527346927776,176.51215778169959L-16.941554710553817,173.55561441585482L-49.34397142431895,171.86417274474758z" style="fill:rgb(92,32,204)"/><path d="M163.00464398966324,69.61805641605567L165.571640011792,73.64311068507872L163.57064596197435,68.41551972058399z" style="fill:rgb(233,112,197)"/><path d="M135.49402651846427,-125.77487442084693L149.34524947931703,-32.20171835978249L148.76840104878843,-107.25489061117828z" style="fill:rgb(83,212,212)"/><path d="M182.02636139116385,14.805399740347134L149.34524947931703,-32.20171835978249L176.04083375356183,41.92070911066951z" style="fill:rgb(242,130,183)"/><path d="M-16.941554710553817,173.55561441585482L-46.21527346927776,176.51215778169959L-13.940567015583273,178.26592050797765z" style="fill:rgb(92,32,204)"/><path d="M143.20009004621355,96.5245256372827L165.01020017153127,74.84315150592467L163.00464398966324,69.61805641605567z" style="fill:rgb(220,94,208)"/><path d="M-74.64810770008206,-122.94461425683807L-93.30649115851064,106.55359211196024L-59.16208200854529,107.28689308290544z" style="fill:rgb(83,212,212)"/><path d="M165.01020017153127,74.84315150592467L143.20009004621355,96.5245256372827L145.34150432906392,101.67565976316705z" style="fill:rgb(220,94,208)"/><path d="M148.76840104878843,-107.25489061117828L156.35120180748717,-59.655481231333155L155.9830249452849,-84.98954378468537z" style="fill:rgb(83,212,212)"/><path d="M-13.940567015583273,178.26592050797765L17.744347657374064,169.09029629320793L-16.941554710553817,173.55561441585482z" style="fill:rgb(115,34,214)"/><path d="M-93.30649115851064,106.55359211196024L-77.95768758249703,164.3723495166822L-49.34397142431895,171.86417274474758z" style="fill:rgb(71,33,192)"/><path d="M17.744347657374064,169.09029629320793L-13.940567015583273,178.26592050797765L20.58815430270327,173.87710257892178z" style="fill:rgb(115,34,214)"/><path d="M-46.592966152646994,-136.69400312815281L-59.16208200854529,107.28689308290544L-22.301183333885408,101.6841264306834z" style="fill:rgb(83,212,212)"/><path d="M117.38223903212493,121.19658562288666L145.34150432906392,101.67565976316705L143.20009004621355,96.5245256372827z" style="fill:rgb(203,77,216)"/><path d="M-147.4928424611103,87.76393210281982L-77.95768758249703,164.3723495166822L-123.14285859412347,99.82227578489129z" style="fill:rgb(51,38,177)"/><path d="M149.34524947931703,-32.20171835978249L182.02636139116385,14.805399740347134L156.35120180748717,-59.655481231333155z" style="fill:rgb(242,130,183)"/><path d="M145.34150432906392,101.67565976316705L117.38223903212493,121.19658562288666L119.68571291372471,126.26012194972314z" style="fill:rgb(203,77,216)"/><path d="M176.04083375356183,41.92070911066951L134.81035877214893,-3.8367618969306085L163.00464398966324,69.61805641605567z" style="fill:rgb(233,112,197)"/><path d="M20.58815430270327,173.87710257892178L52.94317037934283,158.50223699067547L17.744347657374064,169.09029629320793zM52.94317037934283,158.50223699067547L20.58815430270327,173.87710257892178L55.61012737956483,163.37688319928006z" style="fill:rgb(139,40,220)"/><path d="M117.38223903212493,121.19658562288666L89.24822958684527,147.21948663741986L119.68571291372471,126.26012194972314z" style="fill:rgb(183,62,221)"/><path d="M117.09749102041489,-140.12600927683516L134.81035877214893,-3.8367618969306085L149.34524947931703,-32.20171835978249zM-17.445446721456573,-147.14301975986308L-22.301183333885408,101.6841264306834L15.368780408634272,89.82404225079961zM148.76840104878843,-107.25489061117828L149.34524947931703,-32.20171835978249L156.35120180748717,-59.655481231333155z" style="fill:rgb(83,212,212)"/><path d="M86.76566070429301,142.2504730645967L55.61012737956483,163.37688319928006L89.24822958684527,147.21948663741986z" style="fill:rgb(162,50,222)"/><path d="M89.24822958684527,147.21948663741986L117.38223903212493,121.19658562288666L86.76566070429301,142.2504730645967z" style="fill:rgb(183,62,221)"/><path d="M55.61012737956483,163.37688319928006L86.76566070429301,142.2504730645967L52.94317037934283,158.50223699067547z" style="fill:rgb(162,50,222)"/><path d="M94.57870337434369,-150.0998393163401L113.06176968675021,24.02734897852596L134.81035877214893,-3.8367618969306085zM12.055773696199715,-153.96981551681526L15.368780408634272,89.82404225079961L51.786343236851444,72.23726394809866zM68.93633554084722,-155.6579167194691L84.93802623358631,49.87719671228615L113.06176968675021,24.02734897852596z" style="fill:rgb(83,212,212)"/><path d="M-59.16208200854529,107.28689308290544L-49.34397142431895,171.86417274474758L-16.941554710553817,173.55561441585482z" style="fill:rgb(92,32,204)"/><path d="M41.128830844610754,-156.88846512615135L51.786343236851444,72.23726394809866L84.93802623358631,49.87719671228615z" style="fill:rgb(83,212,212)"/><path d="M-77.95768758249703,164.3723495166822L-93.30649115851064,106.55359211196024L-123.14285859412347,99.82227578489129z" style="fill:rgb(71,33,192)"/><path d="M163.00464398966324,69.61805641605567L113.06176968675021,24.02734897852596L143.20009004621355,96.5245256372827z" style="fill:rgb(220,94,208)"/><path d="M134.81035877214893,-3.8367618969306085L176.04083375356183,41.92070911066951L149.34524947931703,-32.20171835978249z" style="fill:rgb(233,112,197)"/><path d="M-22.301183333885408,101.6841264306834L-16.941554710553817,173.55561441585482L17.744347657374064,169.09029629320793z" style="fill:rgb(115,34,214)"/><path d="M143.20009004621355,96.5245256372827L84.93802623358631,49.87719671228615L117.38223903212493,121.19658562288666z" style="fill:rgb(203,77,216)"/><path d="M-49.34397142431895,171.86417274474758L-59.16208200854529,107.28689308290544L-93.30649115851064,106.55359211196024z" style="fill:rgb(92,32,204)"/><path d="M84.93802623358631,49.87719671228615L86.76566070429301,142.2504730645967L117.38223903212493,121.19658562288666z" style="fill:rgb(183,62,221)"/><path d="M15.368780408634272,89.82404225079961L17.744347657374064,169.09029629320793L52.94317037934283,158.50223699067547z" style="fill:rgb(139,40,220)"/><path d="M51.786343236851444,72.23726394809866L52.94317037934283,158.50223699067547L86.76566070429301,142.2504730645967z" style="fill:rgb(162,50,222)"/><path d="M113.06176968675021,24.02734897852596L163.00464398966324,69.61805641605567L134.81035877214893,-3.8367618969306085z" style="fill:rgb(220,94,208)"/><path d="M-16.941554710553817,173.55561441585482L-22.301183333885408,101.6841264306834L-59.16208200854529,107.28689308290544z" style="fill:rgb(115,34,214)"/><path d="M84.93802623358631,49.87719671228615L143.20009004621355,96.5245256372827L113.06176968675021,24.02734897852596z" style="fill:rgb(203,77,216)"/><path d="M17.744347657374064,169.09029629320793L15.368780408634272,89.82404225079961L-22.301183333885408,101.6841264306834z" style="fill:rgb(139,40,220)"/><path d="M86.76566070429301,142.2504730645967L84.93802623358631,49.87719671228615L51.786343236851444,72.23726394809866z" style="fill:rgb(183,62,221)"/><path d="M52.94317037934283,158.50223699067547L51.786343236851444,72.23726394809866L15.368780408634272,89.82404225079961z" style="fill:rgb(162,50,222)"/></svg>
