<?xml version="1.0" encoding="UTF-8"?>
<!-- Generated by jsxcad -->
<!DOCTYPE svg PUBLIC "-//W3C//DTD SVG 1.1 Tiny//EN" "http://www.w3.org/Graphics/SVG/1.1/DTD/svg11-tiny.dtd">
<svg viewBox="-250 -250 500 500" width="500" height="500" xmlns="http://www.w3.org/2000/svg"><path d="M-23.156609644372466,-58.14300847047904L-34.11486670072314,-46.79927430774341L-20.710416069575487,-53.33263874977968zM-13.155060604651277,-63.01946775967386L-20.710416069575487,-53.33263874977968L-10.751949445696459,-58.18642350252915z" style="fill:rgb(162,50,222)"/><path d="M-36.61901214604553,-51.579142078014435L-46.55570380684101,-38.71315574968621L-34.11486670072314,-46.79927430774341z" style="fill:rgb(183,62,221)"/><path d="M-11.751788695339032,-63.70366203915867L-10.751949445696459,-58.18642350252915L-9.354723489461955,-58.86743622954731zM-34.11486670072314,-46.79927430774341L-23.156609644372466,-58.14300847047904L-36.61901214604553,-51.579142078014435zM-20.710416069575487,-53.33263874977968L-13.155060604651277,-63.01946775967386L-23.156609644372466,-58.14300847047904zM-10.751949445696459,-58.18642350252915L-11.751788695339032,-63.70366203915867L-13.155060604651277,-63.01946775967386z" style="fill:rgb(162,50,222)"/><path d="M-49.11891688275455,-43.46572099570492L-57.12134376475149,-31.845852649300724L-46.55570380684101,-38.71315574968621zM-46.55570380684101,-38.71315574968621L-36.61901214604553,-51.579142078014435L-49.11891688275455,-43.46572099570492z" style="fill:rgb(183,62,221)"/><path d="M-9.354723489461955,-58.86743622954731L14.200390412262456,-72.61606634728307L-11.751788695339032,-63.70366203915867zM14.200390412262456,-72.61606634728307L-9.354723489461955,-58.86743622954731L16.49429769815297,-67.71863194234629z" style="fill:rgb(139,40,220)"/><path d="M-57.12134376475149,-31.845852649300724L-49.11891688275455,-43.46572099570492L-59.73486980551993,-36.57513419596288z" style="fill:rgb(183,62,221)"/><path d="M-80.45447285946776,-19.071883832230416L-57.12134376475149,-31.845852649300724L-59.73486980551993,-36.57513419596288zM-57.12134376475149,-31.845852649300724L-80.45447285946776,-19.071883832230416L-77.73114718854428,-14.386851288592705z" style="fill:rgb(203,77,216)"/><path d="M16.49429769815297,-67.71863194234629L40.541943764096445,-78.02848583225892L14.200390412262456,-72.61606634728307zM40.541943764096445,-78.02848583225892L16.49429769815297,-67.71863194234629L42.738162365339726,-73.06636489460959z" style="fill:rgb(115,34,214)"/><path d="M-98.15015564197161,0.49546306033700016L-77.73114718854428,-14.386851288592705L-80.45447285946776,-19.071883832230416zM-77.73114718854428,-14.386851288592705L-98.15015564197161,0.49546306033700016L-95.31891438672471,5.142891066273898z" style="fill:rgb(220,94,208)"/><path d="M42.738162365339726,-73.06636489460959L66.53968453366527,-79.70073124474455L40.541943764096445,-78.02848583225892zM66.53968453366527,-79.70073124474455L42.738162365339726,-73.06636489460959L68.64532748373738,-74.67233079653522z" style="fill:rgb(92,32,204)"/><path d="M-112.21284988927583,21.626642231113767L-95.31891438672471,5.142891066273898L-98.15015564197161,0.49546306033700016zM-95.31891438672471,5.142891066273898L-112.21284988927583,21.626642231113767L-109.27844426275091,26.243273351620985z" style="fill:rgb(233,112,197)"/><path d="M68.64532748373738,-74.67233079653522L91.41638044306103,-77.44980170090166L66.53968453366527,-79.70073124474455zM91.41638044306103,-77.44980170090166L68.64532748373738,-74.67233079653522L93.44047168460801,-72.35596385964536z" style="fill:rgb(71,33,192)"/><path d="M-122.06155900707385,43.74514621844653L-109.27844426275091,26.243273351620985L-112.21284988927583,21.626642231113767zM-109.27844426275091,26.243273351620985L-122.06155900707385,43.74514621844653L-119.03226733764116,48.33792696611748z" style="fill:rgb(242,130,183)"/><path d="M116.30328642444752,-66.01122409491698L91.41638044306103,-77.44980170090166L93.44047168460801,-72.35596385964536zM91.41638044306103,-77.44980170090166L116.30328642444752,-66.01122409491698L114.34939806976496,-71.16667988464033z" style="fill:rgb(51,38,177)"/><path d="M-127.16315687762153,66.18889016884737L-119.03226733764116,48.33792696611748L-122.06155900707385,43.74514621844653z" style="fill:rgb(246,149,167)"/><path d="M-21.19481833078507,-2.244570055936481L15.086609720049443,-12.173792570935971L-14.462524443458275,-6.6697946464017zM-31.162499110821095,6.404792521440408L-12.912975784272687,-2.856752790006489L-25.201762593236264,1.2324192297556846zM15.086609720049443,-12.173792570935971L-21.19481833078507,-2.244570055936481L-25.201762593236264,1.2324192297556846z" style="fill:rgb(83,212,212)"/><path d="M4.2964362280651285,-8.583293434754816L-3.5244165938861896,1.3117222037592002L6.774393790272851,-3.689837635553926z" style="fill:rgb(162,50,222)"/><path d="M-6.049861754982226,-3.556912205689697L-13.031270018781386,7.580762690401064L-3.5244165938861896,1.3117222037592002z" style="fill:rgb(183,62,221)"/><path d="M-119.03226733764116,48.33792696611748L-127.16315687762153,66.18889016884737L-124.0514650224878,70.76500884180959z" style="fill:rgb(246,149,167)"/><path d="M136.37606186325067,-55.630540302683144L114.34939806976496,-71.16667988464033L116.30328642444752,-66.01122409491698z" style="fill:rgb(34,46,160)"/><path d="M15.086609720049443,-12.173792570935971L6.774393790272851,-3.689837635553926L17.518869516336295,-7.254333391674068z" style="fill:rgb(139,40,220)"/><path d="M-3.5244165938861896,1.3117222037592002L4.2964362280651285,-8.583293434754816L-6.049861754982226,-3.556912205689697z" style="fill:rgb(162,50,222)"/><path d="M-9.928526005605507,-9.650051225986061L43.53887606084404,-17.47348044032006L2.2609320450651142,-15.574580176935257zM43.53887606084404,-17.47348044032006L-9.928526005605507,-9.650051225986061L-14.462524443458275,-6.6697946464017zM-39.48634798912114,16.022631961560904L-12.912975784272687,-2.856752790006489L-31.162499110821095,6.404792521440408z" style="fill:rgb(83,212,212)"/><path d="M-13.031270018781386,7.580762690401064L-6.049861754982226,-3.556912205689697L-15.604625167215994,2.735040800772479z" style="fill:rgb(183,62,221)"/><path d="M6.774393790272851,-3.689837635553926L15.086609720049443,-12.173792570935971L4.2964362280651285,-8.583293434754816z" style="fill:rgb(139,40,220)"/><path d="M4.2964362280651285,-8.583293434754816L-6.881710458062484,-4.8636945587499L-11.322060738985417,-0.9956016508142157zM2.2609320450651142,-15.574580176935257L43.53887606084404,-17.47348044032006L14.97446636243768,-19.822236332828236zM-6.881710458062484,-4.8636945587499L-12.912975784272687,-2.856752790006489L-24.04200415801718,10.085038694798614z" style="fill:rgb(83,212,212)"/><path d="M-13.031270018781386,7.580762690401064L-24.04200415801718,10.085038694798614L-21.421739575668532,14.910378728723328z" style="fill:rgb(203,77,216)"/><path d="M-6.049861754982226,-3.556912205689697L-11.322060738985417,-0.9956016508142157L-15.604625167215994,2.735040800772479z" style="fill:rgb(83,212,212)"/><path d="M-24.04200415801718,10.085038694798614L-13.031270018781386,7.580762690401064L-15.604625167215994,2.735040800772479z" style="fill:rgb(203,77,216)"/><path d="M25.957718724962966,-14.198710011250665L17.518869516336295,-7.254333391674068L28.34738742568028,-9.252902352803492z" style="fill:rgb(115,34,214)"/><path d="M14.97446636243768,-19.822236332828236L43.53887606084404,-17.47348044032006L27.79538275565747,-22.241486154722477z" style="fill:rgb(83,212,212)"/><path d="M17.518869516336295,-7.254333391674068L25.957718724962966,-14.198710011250665L15.086609720049443,-12.173792570935971z" style="fill:rgb(115,34,214)"/><path d="M-21.421739575668532,14.910378728723328L-31.064729425720877,18.251669578344124L-28.40004134493508,23.05968397848613z" style="fill:rgb(220,94,208)"/><path d="M27.79538275565747,-22.241486154722477L43.53887606084404,-17.47348044032006L35.24310584475699,-22.532071481071373z" style="fill:rgb(83,212,212)"/><path d="M-31.064729425720877,18.251669578344124L-21.421739575668532,14.910378728723328L-24.04200415801718,10.085038694798614z" style="fill:rgb(220,94,208)"/><path d="M-39.48634798912114,16.022631961560904L-42.44997782103056,31.491417533374776L-12.912975784272687,-2.856752790006489z" style="fill:rgb(83,212,212)"/><path d="M28.34738742568028,-9.252902352803492L36.5383712509439,-14.572668286254135L25.957718724962966,-14.198710011250665zM36.5383712509439,-14.572668286254135L28.34738742568028,-9.252902352803492L38.88982760934905,-9.601102215467368z" style="fill:rgb(92,32,204)"/><path d="M114.34939806976496,-71.16667988464033L136.37606186325067,-55.630540302683144L134.4782015575927,-60.840361627915215z" style="fill:rgb(34,46,160)"/><path d="M36.5383712509439,-14.572668286254135L31.52862985886025,-15.236380245292882L25.957718724962966,-14.198710011250665zM-42.44997782103056,31.491417533374776L-39.48634798912114,16.022631961560904L-43.281760642783986,22.142394099579104z" style="fill:rgb(83,212,212)"/><path d="M-36.41160260985275,26.963313807850426L-28.40004134493508,23.05968397848613L-31.064729425720877,18.251669578344124zM-28.40004134493508,23.05968397848613L-36.41160260985275,26.963313807850426L-33.70650016469371,31.757496062496053z" style="fill:rgb(233,112,197)"/><path d="M38.88982760934905,-9.601102215467368L46.45643381068787,-13.258681016194387L36.5383712509439,-14.572668286254135z" style="fill:rgb(71,33,192)"/><path d="M-127.16315687762153,66.18889016884737L-123.88721435932985,92.77331080604364L-124.0514650224878,70.76500884180959z" style="fill:rgb(246,167,149)"/><path d="M46.45643381068787,-13.258681016194387L37.34300470497633,-16.31940126100482L31.52862985886025,-15.236380245292882zM-31.064729425720877,18.251669578344124L-34.668623826221385,22.44258818315401L-36.41160260985275,26.963313807850426z" style="fill:rgb(83,212,212)"/><path d="M46.45643381068787,-13.258681016194387L38.88982760934905,-9.601102215467368L48.77528583957342,-8.262956582977791z" style="fill:rgb(71,33,192)"/><path d="M55.3481781372852,-10.272413576926834L43.53887606084404,-17.47348044032006L37.34300470497633,-16.31940126100482z" style="fill:rgb(83,212,212)"/><path d="M-39.86590270969196,35.92266427297509L-33.70650016469371,31.757496062496053L-36.41160260985275,26.963313807850426zM-33.70650016469371,31.757496062496053L-39.86590270969196,35.92266427297509L-37.125941209701224,40.70687665483025z" style="fill:rgb(242,130,183)"/><path d="M57.641209740698216,-5.255182577377355L46.45643381068787,-13.258681016194387L48.77528583957342,-8.262956582977791z" style="fill:rgb(51,38,177)"/><path d="M-34.668623826221385,22.44258818315401L-42.44997782103056,31.491417533374776L-41.64515086586714,40.5374627914676z" style="fill:rgb(83,212,212)"/><path d="M152.78375952667508,-41.33472899798844L134.4782015575927,-60.840361627915215L136.37606186325067,-55.630540302683144z" style="fill:rgb(21,57,142)"/><path d="M-123.88721435932985,92.77331080604364L-127.16315687762153,66.18889016884737L-127.06402651905185,88.20620485662343z" style="fill:rgb(246,167,149)"/><path d="M46.45643381068787,-13.258681016194387L57.641209740698216,-5.255182577377355L55.3481781372852,-10.272413576926834z" style="fill:rgb(51,38,177)"/><path d="M84.2111754328477,7.327643836096163L40.295689649520206,-22.729206054981447L35.24310584475699,-22.532071481071373zM-28.40004134493508,23.05968397848613L-22.700602414805182,77.95445510910015L-21.421739575668532,14.910378728723328zM-21.421739575668532,14.910378728723328L-13.952905998767443,81.74984297419043L-13.031270018781386,7.580762690401064zM-33.70650016469371,31.757496062496053L-29.721333638965145,72.56975462919178L-28.40004134493508,23.05968397848613z" style="fill:rgb(83,212,212)"/><path d="M-30.16525733651654,-76.63803598171219L-6.049861754982226,-3.556912205689697L4.2964362280651285,-8.583293434754816z" style="fill:rgb(162,50,222)"/><path d="M-13.031270018781386,7.580762690401064L-3.8031806394289283,83.7626913113231L-3.5244165938861896,1.3117222037592002z" style="fill:rgb(83,212,212)"/><path d="M-41.17126976518426,-71.26509819053899L-15.604625167215994,2.735040800772479L-6.049861754982226,-3.556912205689697z" style="fill:rgb(183,62,221)"/><path d="M-41.26478745726546,44.81266963627676L-37.125941209701224,40.70687665483025L-39.86590270969196,35.92266427297509z" style="fill:rgb(246,149,167)"/><path d="M-37.125941209701224,40.70687665483025L-34.777505585100805,65.8474808436333L-33.70650016469371,31.757496062496053z" style="fill:rgb(83,212,212)"/><path d="M-18.7440163566127,-80.59917828467121L4.2964362280651285,-8.583293434754816L15.086609720049443,-12.173792570935971z" style="fill:rgb(139,40,220)"/><path d="M-37.125941209701224,40.70687665483025L-41.26478745726546,44.81266963627676L-38.497029530697844,49.59108085223881z" style="fill:rgb(246,149,167)"/><path d="M65.1443313711307,-0.6511812189101103L55.3481781372852,-10.272413576926834L57.641209740698216,-5.255182577377355z" style="fill:rgb(34,46,160)"/><path d="M-3.5244165938861896,1.3117222037592002L7.346181491294608,83.8734097981443L6.774393790272851,-3.689837635553926zM40.295689649520206,-22.729206054981447L84.2111754328477,7.327643836096163L52.0435259568413,-21.23559875356569zM-45.859133799480524,26.298175478619697L-41.68335615397075,74.84153668115555L-43.281760642783986,22.142394099579104zM-37.72219948315281,58.081419521588145L-37.125941209701224,40.70687665483025L-38.497029530697844,49.59108085223881zM-50.02104821642811,36.88912090915227L-47.5988841541286,66.79251655001237L-45.859133799480524,26.298175478619697z" style="fill:rgb(83,212,212)"/><path d="M-15.604625167215994,2.735040800772479L-60.49277537415935,-57.040803862992206L-24.04200415801718,10.085038694798614z" style="fill:rgb(203,77,216)"/><path d="M-39.86590270969196,35.92266427297509L-41.64515086586714,40.5374627914676L-41.26478745726546,44.81266963627676zM6.774393790272851,-3.689837635553926L19.032100428246057,82.0478038192378L17.518869516336295,-7.254333391674068z" style="fill:rgb(83,212,212)"/><path d="M-7.288471808079644,-83.00707524491654L15.086609720049443,-12.173792570935971L25.957718724962966,-14.198710011250665z" style="fill:rgb(115,34,214)"/><path d="M-50.97862916654094,57.52599025613404L-50.02104821642811,36.88912090915227L-51.7708711857553,47.427156945750454z" style="fill:rgb(83,212,212)"/><path d="M134.4782015575927,-60.840361627915215L152.78375952667508,-41.33472899798844L150.92441576997845,-46.58797168407739z" style="fill:rgb(21,57,142)"/><path d="M55.3481781372852,-10.272413576926834L65.1443313711307,-0.6511812189101103L62.86924280327866,-5.686223630967482z" style="fill:rgb(34,46,160)"/><path d="M17.518869516336295,-7.254333391674068L30.75384337358864,78.34369806899457L28.34738742568028,-9.252902352803492z" style="fill:rgb(83,212,212)"/><path d="M-41.26478745726546,44.81266963627676L-37.72219948315281,58.081419521588145L-38.497029530697844,49.59108085223881z" style="fill:rgb(246,167,149)"/><path d="M-24.04200415801718,10.085038694798614L-68.14484159985078,-48.653592407659374L-31.064729425720877,18.251669578344124z" style="fill:rgb(220,94,208)"/><path d="M52.0435259568413,-21.23559875356569L84.2111754328477,7.327643836096163L62.61254276975822,-17.769857815477433z" style="fill:rgb(83,212,212)"/><path d="M-127.06402651905185,88.20620485662343L-120.84620570907573,103.89996349768654L-123.88721435932985,92.77331080604364z" style="fill:rgb(242,183,130)"/><path d="M-37.125941209701224,40.70687665483025L-37.72219948315281,58.081419521588145L-34.777505585100805,65.8474808436333z" style="fill:rgb(83,212,212)"/><path d="M3.812661635567285,-83.76297978064335L25.957718724962966,-14.198710011250665L36.5383712509439,-14.572668286254135z" style="fill:rgb(92,32,204)"/><path d="M28.34738742568028,-9.252902352803492L42.00067318585268,72.91111053048651L38.88982760934905,-9.601102215467368z" style="fill:rgb(83,212,212)"/><path d="M70.9735360610025,5.415863606744356L62.86924280327866,-5.686223630967482L65.1443313711307,-0.6511812189101103z" style="fill:rgb(21,57,142)"/><path d="M-37.72219948315281,58.081419521588145L-41.26478745726546,44.81266963627676L-40.509275940131545,53.3043926911893z" style="fill:rgb(246,167,149)"/><path d="M-50.02104821642811,36.88912090915227L-50.97862916654094,57.52599025613404L-47.5988841541286,66.79251655001237zM-33.70650016469371,31.757496062496053L-34.777505585100805,65.8474808436333L-29.721333638965145,72.56975462919178zM38.88982760934905,-9.601102215467368L42.00067318585268,72.91111053048651L48.77528583957342,-8.262956582977791z" style="fill:rgb(83,212,212)"/><path d="M-31.064729425720877,18.251669578344124L-74.0691692352674,-39.77618211495066L-36.41160260985275,26.963313807850426z" style="fill:rgb(233,112,197)"/><path d="M-120.84620570907573,103.89996349768654L-127.06402651905185,88.20620485662343L-124.04607278285904,99.33262684341824z" style="fill:rgb(242,183,130)"/><path d="M62.61254276975822,-17.769857815477433L84.2111754328477,7.327643836096163L71.59388561615353,-12.406057677029985z" style="fill:rgb(83,212,212)"/><path d="M62.86924280327866,-5.686223630967482L70.9735360610025,5.415863606744356L68.70754761954731,0.36766579447630665z" style="fill:rgb(21,57,142)"/><path d="M68.70754761954731,0.36766579447630665L66.74985226029243,-3.3199080006808224L62.86924280327866,-5.686223630967482z" style="fill:rgb(83,212,212)"/><path d="M14.170562416863332,-82.81519890003356L36.5383712509439,-14.572668286254135L46.45643381068787,-13.258681016194387z" style="fill:rgb(71,33,192)"/><path d="M-40.509275940131545,53.3043926911893L-34.777505585100805,65.8474808436333L-37.72219948315281,58.081419521588145z" style="fill:rgb(242,183,130)"/><path d="M48.77528583957342,-8.262956582977791L61.15406204097815,57.87375806860607L57.641209740698216,-5.255182577377355zM-28.40004134493508,23.05968397848613L-29.721333638965145,72.56975462919178L-22.700602414805182,77.95445510910015zM-45.859133799480524,26.298175478619697L-47.5988841541286,66.79251655001237L-41.68335615397075,74.84153668115555z" style="fill:rgb(83,212,212)"/><path d="M-124.04607278285904,99.33262684341824L-118.54136962705114,112.33305042798108L-120.84620570907573,103.89996349768654z" style="fill:rgb(242,183,130)"/><path d="M74.86444148495285,12.751614194088745L68.70754761954731,0.36766579447630665L70.9735360610025,5.415863606744356zM164.67023132941773,-23.406131662263206L150.92441576997845,-46.58797168407739L152.78375952667508,-41.33472899798844z" style="fill:rgb(12,71,124)"/><path d="M57.641209740698216,-5.255182577377355L68.24904835357113,48.93641746720571L65.1443313711307,-0.6511812189101103z" style="fill:rgb(83,212,212)"/><path d="M55.3481781372852,-10.272413576926834L14.170562416863332,-82.81519890003356L46.45643381068787,-13.258681016194387z" style="fill:rgb(51,38,177)"/><path d="M-36.41160260985275,26.963313807850426L-78.02715735540336,-30.710193224055864L-39.86590270969196,35.92266427297509z" style="fill:rgb(242,130,183)"/><path d="M-21.421739575668532,14.910378728723328L-22.700602414805182,77.95445510910015L-13.952905998767443,81.74984297419043zM71.59388561615353,-12.406057677029985L84.2111754328477,7.327643836096163L78.61112566971273,-5.288458625624159z" style="fill:rgb(83,212,212)"/><path d="M-34.777505585100805,65.8474808436333L-40.509275940131545,53.3043926911893L-37.574229529557066,61.06723908266718z" style="fill:rgb(242,183,130)"/><path d="M-43.281760642783986,22.142394099579104L-41.68335615397075,74.84153668115555L-38.36250886853531,77.43351498016357z" style="fill:rgb(83,212,212)"/><path d="M-6.049861754982226,-3.556912205689697L-30.16525733651654,-76.63803598171219L-41.17126976518426,-71.26509819053899z" style="fill:rgb(162,50,222)"/><path d="M-15.604625167215994,2.735040800772479L-41.17126976518426,-71.26509819053899L-51.39562029165079,-64.66072163267835z" style="fill:rgb(183,62,221)"/><path d="M4.2964362280651285,-8.583293434754816L-18.7440163566127,-80.59917828467121L-30.16525733651654,-76.63803598171219z" style="fill:rgb(139,40,220)"/><path d="M65.1443313711307,-0.6511812189101103L73.28942957841502,39.56461975626607L70.9735360610025,5.415863606744356z" style="fill:rgb(83,212,212)"/><path d="M-118.54136962705114,112.33305042798108L-124.04607278285904,99.33262684341824L-121.75846800895559,107.76638538230331z" style="fill:rgb(242,183,130)"/><path d="M68.70754761954731,0.36766579447630665L74.86444148495285,12.751614194088745L72.59794095303101,7.695727540627631z" style="fill:rgb(12,71,124)"/><path d="M75.17766861684667,1.8191996258136192L66.74985226029243,-3.3199080006808224L74.60729877435156,11.480628485775695z" style="fill:rgb(83,212,212)"/><path d="M-60.49277537415935,-57.040803862992206L-15.604625167215994,2.735040800772479L-51.39562029165079,-64.66072163267835z" style="fill:rgb(203,77,216)"/><path d="M-13.031270018781386,7.580762690401064L-13.952905998767443,81.74984297419043L-3.8031806394289283,83.7626913113231z" style="fill:rgb(83,212,212)"/><path d="M15.086609720049443,-12.173792570935971L-7.288471808079644,-83.00707524491654L-18.7440163566127,-80.59917828467121z" style="fill:rgb(115,34,214)"/><path d="M-121.75846800895559,107.76638538230331L-118.21481646887658,113.5278796568451L-118.54136962705114,112.33305042798108z" style="fill:rgb(242,183,130)"/><path d="M-38.83641858100732,79.60511967778206L-47.5988841541286,66.79251655001237L-44.75180573108675,71.54731592050555z" style="fill:rgb(21,57,142)"/><path d="M70.9735360610025,5.415863606744356L76.10093493270531,30.15775838508146L74.86444148495285,12.751614194088745zM-34.467608322045564,69.28387699195243L-40.509275940131545,53.3043926911893L-39.27171008238121,67.21433115556557zM78.61112566971273,-5.288458625624159L84.2111754328477,7.327643836096163L83.33806841510221,3.3649433135408127z" style="fill:rgb(83,212,212)"/><path d="M83.33806841510221,3.3649433135408127L86.43223734607366,12.411320077001866L85.5544731597828,8.447577396627405z" style="fill:rgb(246,167,149)"/><path d="M-118.21481646887658,113.5278796568451L-121.75846800895559,107.76638538230331L-121.43434127789789,108.96136880862086z" style="fill:rgb(242,183,130)"/><path d="M62.86924280327866,-5.686223630967482L23.40557982477153,-80.16386687644533L55.3481781372852,-10.272413576926834z" style="fill:rgb(34,46,160)"/><path d="M-68.14484159985078,-48.653592407659374L-24.04200415801718,10.085038694798614L-60.49277537415935,-57.040803862992206z" style="fill:rgb(220,94,208)"/><path d="M-39.86590270969196,35.92266427297509L-79.8343086320094,-21.77596310932091L-41.26478745726546,44.81266963627676z" style="fill:rgb(246,149,167)"/><path d="M-3.5244165938861896,1.3117222037592002L-3.8031806394289283,83.7626913113231L7.346181491294608,83.8734097981443z" style="fill:rgb(83,212,212)"/><path d="M150.92441576997845,-46.58797168407739L164.67023132941773,-23.406131662263206L162.82817897003437,-28.68816640628226z" style="fill:rgb(12,71,124)"/><path d="M25.957718724962966,-14.198710011250665L3.812661635567285,-83.76297978064335L-7.288471808079644,-83.00707524491654z" style="fill:rgb(92,32,204)"/><path d="M-32.517136299886545,67.78160041338373L-37.574229529557066,61.06723908266718L-36.05835411781888,65.07654345134286z" style="fill:rgb(83,212,212)"/><path d="M86.43223734607366,12.411320077001866L83.33806841510221,3.3649433135408127L84.2111754328477,7.327643836096163z" style="fill:rgb(246,167,149)"/><path d="M-47.5988841541286,66.79251655001237L-38.83641858100732,79.60511967778206L-41.68335615397075,74.84153668115555z" style="fill:rgb(21,57,142)"/><path d="M6.774393790272851,-3.689837635553926L7.346181491294608,83.8734097981443L19.032100428246057,82.0478038192378zM74.86444148495285,12.751614194088745L76.10093493270531,30.15775838508146L76.61499505021416,21.10191458932817z" style="fill:rgb(83,212,212)"/><path d="M84.2111754328477,7.327643836096163L87.74666786555832,18.34692818276215L86.43223734607366,12.411320077001866z" style="fill:rgb(246,167,149)"/><path d="M74.60729877435156,11.480628485775695L72.59794095303101,7.695727540627631L74.33788113601265,16.044384462731543zM79.95183309741775,4.730387019584747L75.17766861684667,1.8191996258136192L73.80299038388326,25.10491022968228z" style="fill:rgb(83,212,212)"/><path d="M-74.0691692352674,-39.77618211495066L-31.064729425720877,18.251669578344124L-68.14484159985078,-48.653592407659374z" style="fill:rgb(233,112,197)"/><path d="M-79.8343086320094,-21.77596310932091L-40.509275940131545,53.3043926911893L-41.26478745726546,44.81266963627676z" style="fill:rgb(246,167,149)"/><path d="M17.518869516336295,-7.254333391674068L19.032100428246057,82.0478038192378L30.75384337358864,78.34369806899457z" style="fill:rgb(83,212,212)"/><path d="M-121.43434127789789,108.96136880862086L-106.88799919698394,132.12992193502063L-118.21481646887658,113.5278796568451z" style="fill:rgb(233,197,112)"/><path d="M70.9735360610025,5.415863606744356L73.28942957841502,39.56461975626607L76.10093493270531,30.15775838508146z" style="fill:rgb(83,212,212)"/><path d="M-35.52086704425645,82.2029027546877L-41.68335615397075,74.84153668115555L-38.83641858100732,79.60511967778206z" style="fill:rgb(34,46,160)"/><path d="M36.5383712509439,-14.572668286254135L14.170562416863332,-82.81519890003356L3.812661635567285,-83.76297978064335z" style="fill:rgb(71,33,192)"/><path d="M-25.484445846655962,73.15370795919489L-36.05835411781888,65.07654345134286L-34.467608322045564,69.28387699195243zM28.34738742568028,-9.252902352803492L30.75384337358864,78.34369806899457L42.00067318585268,72.91111053048651zM65.1443313711307,-0.6511812189101103L68.24904835357113,48.93641746720571L73.28942957841502,39.56461975626607z" style="fill:rgb(83,212,212)"/><path d="M87.74666786555832,18.34692818276215L84.2111754328477,7.327643836096163L85.51868939743468,13.261984252760366z" style="fill:rgb(246,167,149)"/><path d="M79.95183309741775,4.730387019584747L85.2028381906891,19.674024259832326L84.2111754328477,7.327643836096163z" style="fill:rgb(83,212,212)"/><path d="M68.70754761954731,0.36766579447630665L31.158566777998193,-75.8657063369542L62.86924280327866,-5.686223630967482z" style="fill:rgb(21,57,142)"/><path d="M57.641209740698216,-5.255182577377355L61.15406204097815,57.87375806860607L68.24904835357113,48.93641746720571z" style="fill:rgb(83,212,212)"/><path d="M-41.68335615397075,74.84153668115555L-35.52086704425645,82.2029027546877L-38.36250886853531,77.43351498016357z" style="fill:rgb(34,46,160)"/><path d="M48.77528583957342,-8.262956582977791L52.2815759339864,65.98540058045009L61.15406204097815,57.87375806860607z" style="fill:rgb(83,212,212)"/><path d="M-30.557480841904216,86.09179015633056L-38.36250886853531,77.43351498016357L-35.52086704425645,82.2029027546877z" style="fill:rgb(34,46,160)"/><path d="M48.77528583957342,-8.262956582977791L42.00067318585268,72.91111053048651L52.2815759339864,65.98540058045009z" style="fill:rgb(83,212,212)"/><path d="M-78.02715735540336,-30.710193224055864L-36.41160260985275,26.963313807850426L-74.0691692352674,-39.77618211495066z" style="fill:rgb(242,130,183)"/><path d="M84.2111754328477,7.327643836096163L85.2028381906891,19.674024259832326L85.51868939743468,13.261984252760366z" style="fill:rgb(83,212,212)"/><path d="M85.2028381906891,19.674024259832326L87.74666786555832,18.34692818276215L85.51868939743468,13.261984252760366zM87.74666786555832,18.34692818276215L85.2028381906891,19.674024259832326L87.44499341079474,24.75586793073826z" style="fill:rgb(246,149,167)"/><path d="M-161.93216133665166,-42.755020071580645L-165.6194639611258,71.27386149256174L-145.2296040497419,-65.67554734886073zM-145.2296040497419,-65.67554734886073L-147.4928424611103,87.76393210281982L-124.65759166803971,-87.01249692166876z" style="fill:rgb(83,212,212)"/><path d="M-79.37126901155379,-13.3047256018599L-37.574229529557066,61.06723908266718L-40.509275940131545,53.3043926911893z" style="fill:rgb(242,183,130)"/><path d="M-38.36250886853531,77.43351498016357L-30.557480841904216,86.09179015633056L-33.39095459196973,81.31390041009048z" style="fill:rgb(34,46,160)"/><path d="M-38.36250886853531,77.43351498016357L-7.451410226032928,80.92211398711612L-39.27171008238121,67.21433115556557z" style="fill:rgb(83,212,212)"/><path d="M-106.88799919698394,132.12992193502063L-121.43434127789789,108.96136880862086L-110.12281078814291,127.55448933653413z" style="fill:rgb(233,197,112)"/><path d="M173.76821011995517,-33.09955397113081L182.9018878262629,-5.203111426865911L175.55824722887317,-27.78987912131461z" style="fill:rgb(246,167,149)"/><path d="M-174.08996934646913,-18.846616741953582L-177.19777358550832,51.362183941780565L-161.93216133665166,-42.755020071580645zM85.2028381906891,19.674024259832326L79.95183309741775,4.730387019584747L69.49601961523851,39.3762713951177zM-124.65759166803971,-87.01249692166876L-123.14285859412347,99.82227578489129L-100.90105763982562,-106.25169272301139z" style="fill:rgb(83,212,212)"/><path d="M14.170562416863332,-82.81519890003356L55.3481781372852,-10.272413576926834L23.40557982477153,-80.16386687644533zM-24.38629441555053,88.83074639376036L-33.39095459196973,81.31390041009048L-30.557480841904216,86.09179015633056z" style="fill:rgb(51,38,177)"/><path d="M87.44499341079474,24.75586793073826L84.9877463264267,24.04046802654299L87.23957025957553,29.119994066389875z" style="fill:rgb(246,149,167)"/><path d="M72.59794095303101,7.695727540627631L37.104455206341314,-70.03807819349657L68.70754761954731,0.36766579447630665z" style="fill:rgb(12,71,124)"/><path d="M84.9877463264267,24.04046802654299L87.44499341079474,24.75586793073826L85.2028381906891,19.674024259832326zM-79.8343086320094,-21.77596310932091L-39.86590270969196,35.92266427297509L-78.02715735540336,-30.710193224055864z" style="fill:rgb(246,149,167)"/><path d="M-33.39095459196973,81.31390041009048L-24.38629441555053,88.83074639376036L-27.203897926557065,84.04107161105215z" style="fill:rgb(51,38,177)"/><path d="M-7.451410226032928,80.92211398711612L-38.36250886853531,77.43351498016357L-33.39095459196973,81.31390041009048zM-100.90105763982562,-106.25169272301139L-93.30649115851064,106.55359211196024L-74.64810770008206,-122.94461425683807zM-182.2485386044763,29.061147803968044L-174.08996934646913,-18.846616741953582L-181.05651763936552,5.357829512038702z" style="fill:rgb(83,212,212)"/><path d="M-20.18644795859134,90.69476145501962L-27.203897926557065,84.04107161105215L-24.38629441555053,88.83074639376036z" style="fill:rgb(51,38,177)"/><path d="M81.68980230179206,35.27806639670022L87.23957025957553,29.119994066389875L84.9877463264267,24.04046802654299z" style="fill:rgb(242,130,183)"/><path d="M85.2028381906891,19.674024259832326L81.68980230179206,35.27806639670022L84.9877463264267,24.04046802654299zM-7.451410226032928,80.92211398711612L-33.39095459196973,81.31390041009048L-27.203897926557065,84.04107161105215z" style="fill:rgb(83,212,212)"/><path d="M87.23957025957553,29.119994066389875L81.68980230179206,35.27806639670022L83.97750682158437,40.34449267752677z" style="fill:rgb(242,130,183)"/><path d="M-27.203897926557065,84.04107161105215L-20.18644795859134,90.69476145501962L-22.993064406845214,85.89714925924855z" style="fill:rgb(51,38,177)"/><path d="M23.40557982477153,-80.16386687644533L62.86924280327866,-5.686223630967482L31.158566777998193,-75.8657063369542z" style="fill:rgb(34,46,160)"/><path d="M182.9018878262629,-5.203111426865911L173.76821011995517,-33.09955397113081L181.10621017271575,-10.525431869450177z" style="fill:rgb(246,167,149)"/><path d="M-6.530793778840712,78.92360520741462L-16.713801515926917,76.93199511587827L-12.191534380897528,78.8801293519442zM-74.64810770008206,-122.94461425683807L-59.16208200854529,107.28689308290544L-46.592966152646994,-136.69400312815281zM70.96078258799882,34.5227050836002L65.88070040639268,43.91123987549001L69.49601961523851,39.3762713951177z" style="fill:rgb(83,212,212)"/><path d="M-20.18644795859134,90.69476145501962L-10.871812777971089,88.34725913278247L-22.993064406845214,85.89714925924855z" style="fill:rgb(71,33,192)"/><path d="M85.2028381906891,19.674024259832326L75.69409924081302,46.50865757349613L81.68980230179206,35.27806639670022z" style="fill:rgb(83,212,212)"/><path d="M-10.871812777971089,88.34725913278247L-20.18644795859134,90.69476145501962L-8.104765215017007,93.16966605133696z" style="fill:rgb(71,33,192)"/><path d="M4.660915549752103,79.00955213977507L-12.191534380897528,78.8801293519442L-7.451410226032928,80.92211398711612z" style="fill:rgb(83,212,212)"/><path d="M-40.509275940131545,53.3043926911893L-79.8343086320094,-21.77596310932091L-79.37126901155379,-13.3047256018599z" style="fill:rgb(246,167,149)"/><path d="M75.69409924081302,46.50865757349613L83.97750682158437,40.34449267752677L81.68980230179206,35.27806639670022z" style="fill:rgb(233,112,197)"/><path d="M-98.36221441606185,156.3168395230255L-119.62528770573691,134.87342550773437L-116.33577454637744,139.42208043255275z" style="fill:rgb(34,46,160)"/><path d="M83.97750682158437,40.34449267752677L75.69409924081302,46.50865757349613L78.02878554159301,51.554836656652384z" style="fill:rgb(233,112,197)"/><path d="M85.2028381906891,19.674024259832326L70.63441441341396,52.90558903335103L75.69409924081302,46.50865757349613zM-46.592966152646994,-136.69400312815281L-22.301183333885408,101.6841264306834L-17.445446721456573,-147.14301975986308zM-22.993064406845214,85.89714925924855L49.16432764862165,71.98238114624631L-27.203897926557065,84.04107161105215zM70.63441441341396,52.90558903335103L85.2028381906891,19.674024259832326L51.23884880398418,62.27762413387549z" style="fill:rgb(83,212,212)"/><path d="M31.158566777998193,-75.8657063369542L68.70754761954731,0.36766579447630665L37.104455206341314,-70.03807819349657z" style="fill:rgb(21,57,142)"/><path d="M-8.104765215017007,93.16966605133696L2.490397177012568,88.5091130856786L-10.871812777971089,88.34725913278247zM2.490397177012568,88.5091130856786L-8.104765215017007,93.16966605133696L5.206663072847691,93.36074642829556z" style="fill:rgb(92,32,204)"/><path d="M181.4644023116675,-0.6647152374001192L182.9018878262629,-5.203111426865911L181.10621017271575,-10.525431869450177z" style="fill:rgb(246,149,167)"/><path d="M78.02878554159301,51.554836656652384L70.63441441341396,52.90558903335103L73.00267398674646,57.93611637776465z" style="fill:rgb(220,94,208)"/><path d="M49.16432764862165,71.98238114624631L-22.993064406845214,85.89714925924855L-10.871812777971089,88.34725913278247z" style="fill:rgb(83,212,212)"/><path d="M70.63441441341396,52.90558903335103L78.02878554159301,51.554836656652384L75.69409924081302,46.50865757349613z" style="fill:rgb(220,94,208)"/><path d="M-174.08996934646913,-18.846616741953582L-182.2485386044763,29.061147803968044L-177.19777358550832,51.362183941780565z" style="fill:rgb(83,212,212)"/><path d="M182.9018878262629,-5.203111426865911L181.4644023116675,-0.6647152374001192L183.2742202816509,4.654606889040545z" style="fill:rgb(246,149,167)"/><path d="M58.73844279730094,52.870314265092475L45.241265907637484,65.17568463300385L51.23884880398418,62.27762413387549zM28.17256858063779,73.42336426962555L16.396392037737527,77.15649759492642L22.412840990316322,76.20649625813155z" style="fill:rgb(83,212,212)"/><path d="M73.00267398674646,57.93611637776465L67.20224958992956,57.244855941040946L69.5933757368432,62.26464854611456z" style="fill:rgb(220,94,208)"/><path d="M-37.574229529557066,61.06723908266718L-79.37126901155379,-13.3047256018599L-76.5950868937428,-5.628321159569288z" style="fill:rgb(242,183,130)"/><path d="M49.81306987130482,61.00757240017746L39.47605608639792,67.96146574390507L45.241265907637484,65.17568463300385zM-17.445446721456573,-147.14301975986308L15.368780408634272,89.82404225079961L12.055773696199715,-153.96981551681526z" style="fill:rgb(83,212,212)"/><path d="M67.20224958992956,57.244855941040946L73.00267398674646,57.93611637776465L70.63441441341396,52.90558903335103z" style="fill:rgb(220,94,208)"/><path d="M-119.62528770573691,134.87342550773437L-98.36221441606185,156.3168395230255L-101.6361165877584,151.74870028261165z" style="fill:rgb(34,46,160)"/><path d="M16.530939739405667,86.3329749256663L5.206663072847691,93.36074642829556L19.18747798725567,91.21729069405157zM5.206663072847691,93.36074642829556L16.530939739405667,86.3329749256663L2.490397177012568,88.5091130856786z" style="fill:rgb(115,34,214)"/><path d="M49.16432764862165,71.98238114624631L-10.871812777971089,88.34725913278247L2.490397177012568,88.5091130856786z" style="fill:rgb(83,212,212)"/><path d="M148.76840104878843,-107.25489061117828L181.10621017271575,-10.525431869450177L173.76821011995517,-33.09955397113081z" style="fill:rgb(246,167,149)"/><path d="M69.5933757368432,62.26464854611456L56.54637940026044,67.00544634861642L59.0010250314248,71.99412366120632z" style="fill:rgb(203,77,216)"/><path d="M37.104455206341314,-70.03807819349657L72.59794095303101,7.695727540627631L40.96784206552236,-62.86155802398355z" style="fill:rgb(12,71,124)"/><path d="M56.54637940026044,67.00544634861642L69.5933757368432,62.26464854611456L67.20224958992956,57.244855941040946z" style="fill:rgb(203,77,216)"/><path d="M49.16432764862165,71.98238114624631L70.63441441341396,52.90558903335103L22.412840990316322,76.20649625813155zM70.63441441341396,52.90558903335103L56.54637940026044,67.00544634861642L67.20224958992956,57.244855941040946z" style="fill:rgb(83,212,212)"/><path d="M183.2742202816509,4.654606889040545L181.65818850023746,4.66991855151934L183.47564289394634,9.98724747111805zM181.65818850023746,4.66991855151934L183.2742202816509,4.654606889040545L181.4644023116675,-0.6647152374001192z" style="fill:rgb(246,149,167)"/><path d="M56.54637940026044,67.00544634861642L51.6593300971373,76.95069398570587L59.0010250314248,71.99412366120632z" style="fill:rgb(183,62,221)"/><path d="M30.635984166512536,81.88438218512702L19.18747798725567,91.21729069405157L33.22676025575522,86.80352593092543z" style="fill:rgb(139,40,220)"/><path d="M49.16432764862165,71.98238114624631L46.698628889635955,80.29979610313673L51.6593300971373,76.95069398570587z" style="fill:rgb(183,62,221)"/><path d="M19.18747798725567,91.21729069405157L30.635984166512536,81.88438218512702L16.530939739405667,86.3329749256663z" style="fill:rgb(139,40,220)"/><path d="M49.16432764862165,71.98238114624631L2.490397177012568,88.5091130856786L16.530939739405667,86.3329749256663z" style="fill:rgb(83,212,212)"/><path d="M44.17631348696033,75.34527319471181L33.22676025575522,86.80352593092543L46.698628889635955,80.29979610313673z" style="fill:rgb(162,50,222)"/><path d="M70.63441441341396,52.90558903335103L49.16432764862165,71.98238114624631L56.54637940026044,67.00544634861642z" style="fill:rgb(83,212,212)"/><path d="M51.6593300971373,76.95069398570587L56.54637940026044,67.00544634861642L49.16432764862165,71.98238114624631z" style="fill:rgb(183,62,221)"/><path d="M33.22676025575522,86.80352593092543L44.17631348696033,75.34527319471181L30.635984166512536,81.88438218512702z" style="fill:rgb(162,50,222)"/><path d="M46.698628889635955,80.29979610313673L49.16432764862165,71.98238114624631L44.17631348696033,75.34527319471181z" style="fill:rgb(183,62,221)"/><path d="M12.055773696199715,-153.96981551681526L51.786343236851444,72.23726394809866L41.128830844610754,-156.88846512615135zM49.16432764862165,71.98238114624631L16.530939739405667,86.3329749256663L30.635984166512536,81.88438218512702zM49.16432764862165,71.98238114624631L30.635984166512536,81.88438218512702L44.17631348696033,75.34527319471181zM-161.93216133665166,-42.755020071580645L-177.19777358550832,51.362183941780565L-165.6194639611258,71.27386149256174z" style="fill:rgb(83,212,212)"/><path d="M182.02636139116385,14.805399740347134L183.47564289394634,9.98724747111805L181.65818850023746,4.66991855151934zM183.47564289394634,9.98724747111805L182.02636139116385,14.805399740347134L183.85829647884353,20.118223395907176z" style="fill:rgb(246,149,167)"/><path d="M-74.7371371306312,168.97312647981428L-101.6361165877584,151.74870028261165L-98.36221441606185,156.3168395230255z" style="fill:rgb(51,38,177)"/><path d="M41.128830844610754,-156.88846512615135L84.93802623358631,49.87719671228615L68.93633554084722,-155.6579167194691z" style="fill:rgb(83,212,212)"/><path d="M-101.6361165877584,151.74870028261165L-165.6194639611258,71.27386149256174L-119.62528770573691,134.87342550773437z" style="fill:rgb(34,46,160)"/><path d="M-145.2296040497419,-65.67554734886073L-165.6194639611258,71.27386149256174L-147.4928424611103,87.76393210281982zM68.93633554084722,-155.6579167194691L113.06176968675021,24.02734897852596L94.57870337434369,-150.0998393163401z" style="fill:rgb(83,212,212)"/><path d="M-101.6361165877584,151.74870028261165L-74.7371371306312,168.97312647981428L-77.95768758249703,164.3723495166822z" style="fill:rgb(51,38,177)"/><path d="M176.04083375356183,41.92070911066951L183.85829647884353,20.118223395907176L182.02636139116385,14.805399740347134zM183.85829647884353,20.118223395907176L176.04083375356183,41.92070911066951L177.9424825292822,47.20079287174449z" style="fill:rgb(242,130,183)"/><path d="M94.57870337434369,-150.0998393163401L134.81035877214893,-3.8367618969306085L117.09749102041489,-140.12600927683516z" style="fill:rgb(83,212,212)"/><path d="M181.10621017271575,-10.525431869450177L148.76840104878843,-107.25489061117828L155.9830249452849,-84.98954378468537z" style="fill:rgb(246,167,149)"/><path d="M-74.7371371306312,168.97312647981428L-60.76682019845108,168.87337341111626L-77.95768758249703,164.3723495166822z" style="fill:rgb(71,33,192)"/><path d="M181.10621017271575,-10.525431869450177L156.35120180748717,-59.655481231333155L182.02636139116385,14.805399740347134z" style="fill:rgb(246,149,167)"/><path d="M-124.65759166803971,-87.01249692166876L-147.4928424611103,87.76393210281982L-123.14285859412347,99.82227578489129z" style="fill:rgb(83,212,212)"/><path d="M-60.76682019845108,168.87337341111626L-74.7371371306312,168.97312647981428L-57.60076974881303,173.50269311967628z" style="fill:rgb(71,33,192)"/><path d="M117.09749102041489,-140.12600927683516L149.34524947931703,-32.20171835978249L135.49402651846427,-125.77487442084693z" style="fill:rgb(83,212,212)"/><path d="M-77.95768758249703,164.3723495166822L-147.4928424611103,87.76393210281982L-101.6361165877584,151.74870028261165z" style="fill:rgb(51,38,177)"/><path d="M163.00464398966324,69.61805641605567L177.9424825292822,47.20079287174449L176.04083375356183,41.92070911066951z" style="fill:rgb(233,112,197)"/><path d="M-57.60076974881303,173.50269311967628L-49.34397142431895,171.86417274474758L-60.76682019845108,168.87337341111626zM-49.34397142431895,171.86417274474758L-57.60076974881303,173.50269311967628L-46.21527346927776,176.51215778169959z" style="fill:rgb(71,33,192)"/><path d="M177.9424825292822,47.20079287174449L163.00464398966324,69.61805641605567L165.01020017153127,74.84315150592467z" style="fill:rgb(233,112,197)"/><path d="M-100.90105763982562,-106.25169272301139L-123.14285859412347,99.82227578489129L-93.30649115851064,106.55359211196024z" style="fill:rgb(83,212,212)"/><path d="M-165.6194639611258,71.27386149256174L-101.6361165877584,151.74870028261165L-147.4928424611103,87.76393210281982z" style="fill:rgb(34,46,160)"/><path d="M156.35120180748717,-59.655481231333155L181.10621017271575,-10.525431869450177L155.9830249452849,-84.98954378468537z" style="fill:rgb(246,149,167)"/><path d="M-46.21527346927776,176.51215778169959L-16.941554710553817,173.55561441585482L-49.34397142431895,171.86417274474758z" style="fill:rgb(92,32,204)"/><path d="M135.49402651846427,-125.77487442084693L149.34524947931703,-32.20171835978249L148.76840104878843,-107.25489061117828z" style="fill:rgb(83,212,212)"/><path d="M182.02636139116385,14.805399740347134L149.34524947931703,-32.20171835978249L176.04083375356183,41.92070911066951z" style="fill:rgb(242,130,183)"/><path d="M-16.941554710553817,173.55561441585482L-46.21527346927776,176.51215778169959L-13.940567015583273,178.26592050797765z" style="fill:rgb(92,32,204)"/><path d="M143.20009004621355,96.5245256372827L165.01020017153127,74.84315150592467L163.00464398966324,69.61805641605567z" style="fill:rgb(220,94,208)"/><path d="M-74.64810770008206,-122.94461425683807L-93.30649115851064,106.55359211196024L-59.16208200854529,107.28689308290544z" style="fill:rgb(83,212,212)"/><path d="M165.01020017153127,74.84315150592467L143.20009004621355,96.5245256372827L145.34150432906392,101.67565976316705z" style="fill:rgb(220,94,208)"/><path d="M148.76840104878843,-107.25489061117828L156.35120180748717,-59.655481231333155L155.9830249452849,-84.98954378468537z" style="fill:rgb(83,212,212)"/><path d="M-13.940567015583273,178.26592050797765L17.744347657374064,169.09029629320793L-16.941554710553817,173.55561441585482z" style="fill:rgb(115,34,214)"/><path d="M145.34150432906392,101.67565976316705L133.06773568716903,106.20720534154424L135.27243776500327,111.32426152112248z" style="fill:rgb(203,77,216)"/><path d="M-93.30649115851064,106.55359211196024L-77.95768758249703,164.3723495166822L-49.34397142431895,171.86417274474758z" style="fill:rgb(71,33,192)"/><path d="M17.744347657374064,169.09029629320793L-13.940567015583273,178.26592050797765L20.58815430270327,173.87710257892178z" style="fill:rgb(115,34,214)"/><path d="M133.06773568716903,106.20720534154424L145.34150432906392,101.67565976316705L143.20009004621355,96.5245256372827z" style="fill:rgb(203,77,216)"/><path d="M-46.592966152646994,-136.69400312815281L-59.16208200854529,107.28689308290544L-22.301183333885408,101.6841264306834z" style="fill:rgb(83,212,212)"/><path d="M135.27243776500327,111.32426152112248L127.62998660553956,111.40363383740888L129.86882040922163,116.50224136345477z" style="fill:rgb(203,77,216)"/><path d="M-147.4928424611103,87.76393210281982L-77.95768758249703,164.3723495166822L-123.14285859412347,99.82227578489129z" style="fill:rgb(51,38,177)"/><path d="M127.62998660553956,111.40363383740888L135.27243776500327,111.32426152112248L133.06773568716903,106.20720534154424z" style="fill:rgb(203,77,216)"/><path d="M149.34524947931703,-32.20171835978249L182.02636139116385,14.805399740347134L156.35120180748717,-59.655481231333155z" style="fill:rgb(242,130,183)"/><path d="M129.86882040922163,116.50224136345477L117.38223903212493,121.19658562288666L119.68571291372471,126.26012194972314zM117.38223903212493,121.19658562288666L129.86882040922163,116.50224136345477L127.62998660553956,111.40363383740888z" style="fill:rgb(203,77,216)"/><path d="M176.04083375356183,41.92070911066951L134.81035877214893,-3.8367618969306085L163.00464398966324,69.61805641605567z" style="fill:rgb(233,112,197)"/><path d="M20.58815430270327,173.87710257892178L52.94317037934283,158.50223699067547L17.744347657374064,169.09029629320793zM52.94317037934283,158.50223699067547L20.58815430270327,173.87710257892178L55.61012737956483,163.37688319928006z" style="fill:rgb(139,40,220)"/><path d="M117.38223903212493,121.19658562288666L89.24822958684527,147.21948663741986L119.68571291372471,126.26012194972314z" style="fill:rgb(183,62,221)"/><path d="M117.09749102041489,-140.12600927683516L134.81035877214893,-3.8367618969306085L149.34524947931703,-32.20171835978249zM-17.445446721456573,-147.14301975986308L-22.301183333885408,101.6841264306834L15.368780408634272,89.82404225079961zM148.76840104878843,-107.25489061117828L149.34524947931703,-32.20171835978249L156.35120180748717,-59.655481231333155z" style="fill:rgb(83,212,212)"/><path d="M66.28488330682656,152.09152412124217L55.61012737956483,163.37688319928006L68.8791519791244,157.00337464529207zM86.76566070429301,142.2504730645967L68.8791519791244,157.00337464529207L89.24822958684527,147.21948663741986z" style="fill:rgb(162,50,222)"/><path d="M89.24822958684527,147.21948663741986L117.38223903212493,121.19658562288666L86.76566070429301,142.2504730645967z" style="fill:rgb(183,62,221)"/><path d="M55.61012737956483,163.37688319928006L66.28488330682656,152.09152412124217L52.94317037934283,158.50223699067547zM68.8791519791244,157.00337464529207L86.76566070429301,142.2504730645967L66.28488330682656,152.09152412124217z" style="fill:rgb(162,50,222)"/><path d="M94.57870337434369,-150.0998393163401L113.06176968675021,24.02734897852596L134.81035877214893,-3.8367618969306085zM12.055773696199715,-153.96981551681526L15.368780408634272,89.82404225079961L51.786343236851444,72.23726394809866zM68.93633554084722,-155.6579167194691L84.93802623358631,49.87719671228615L113.06176968675021,24.02734897852596z" style="fill:rgb(83,212,212)"/><path d="M-59.16208200854529,107.28689308290544L-49.34397142431895,171.86417274474758L-16.941554710553817,173.55561441585482z" style="fill:rgb(92,32,204)"/><path d="M41.128830844610754,-156.88846512615135L51.786343236851444,72.23726394809866L84.93802623358631,49.87719671228615z" style="fill:rgb(83,212,212)"/><path d="M-77.95768758249703,164.3723495166822L-93.30649115851064,106.55359211196024L-123.14285859412347,99.82227578489129z" style="fill:rgb(71,33,192)"/><path d="M163.00464398966324,69.61805641605567L113.06176968675021,24.02734897852596L143.20009004621355,96.5245256372827z" style="fill:rgb(220,94,208)"/><path d="M134.81035877214893,-3.8367618969306085L176.04083375356183,41.92070911066951L149.34524947931703,-32.20171835978249z" style="fill:rgb(233,112,197)"/><path d="M-22.301183333885408,101.6841264306834L-16.941554710553817,173.55561441585482L17.744347657374064,169.09029629320793z" style="fill:rgb(115,34,214)"/><path d="M143.20009004621355,96.5245256372827L84.93802623358631,49.87719671228615L117.38223903212493,121.19658562288666z" style="fill:rgb(203,77,216)"/><path d="M-49.34397142431895,171.86417274474758L-59.16208200854529,107.28689308290544L-93.30649115851064,106.55359211196024z" style="fill:rgb(92,32,204)"/><path d="M84.93802623358631,49.87719671228615L86.76566070429301,142.2504730645967L117.38223903212493,121.19658562288666z" style="fill:rgb(183,62,221)"/><path d="M15.368780408634272,89.82404225079961L17.744347657374064,169.09029629320793L52.94317037934283,158.50223699067547z" style="fill:rgb(139,40,220)"/><path d="M51.786343236851444,72.23726394809866L52.94317037934283,158.50223699067547L86.76566070429301,142.2504730645967z" style="fill:rgb(162,50,222)"/><path d="M113.06176968675021,24.02734897852596L163.00464398966324,69.61805641605567L134.81035877214893,-3.8367618969306085z" style="fill:rgb(220,94,208)"/><path d="M-16.941554710553817,173.55561441585482L-22.301183333885408,101.6841264306834L-59.16208200854529,107.28689308290544z" style="fill:rgb(115,34,214)"/><path d="M84.93802623358631,49.87719671228615L143.20009004621355,96.5245256372827L113.06176968675021,24.02734897852596z" style="fill:rgb(203,77,216)"/><path d="M17.744347657374064,169.09029629320793L15.368780408634272,89.82404225079961L-22.301183333885408,101.6841264306834z" style="fill:rgb(139,40,220)"/><path d="M86.76566070429301,142.2504730645967L84.93802623358631,49.87719671228615L51.786343236851444,72.23726394809866z" style="fill:rgb(183,62,221)"/><path d="M52.94317037934283,158.50223699067547L51.786343236851444,72.23726394809866L15.368780408634272,89.82404225079961z" style="fill:rgb(162,50,222)"/></svg>
