<?xml version="1.0" encoding="UTF-8"?>
<!-- Generated by jsxcad -->
<!DOCTYPE svg PUBLIC "-//W3C//DTD SVG 1.1 Tiny//EN" "http://www.w3.org/Graphics/SVG/1.1/DTD/svg11-tiny.dtd">
<svg viewBox="-250 -250 500 500" width="500" height="500" xmlns="http://www.w3.org/2000/svg"><path d="M-46.592966152646994,-136.69400312815281L-41.17126976518426,-71.26509819053899L-17.445446721456573,-147.14301975986308z" style="fill:rgb(83,212,212)"/><path d="M-30.16525733651654,-76.63803598171219L-3.5244165938861896,1.3117222037592002L6.774393790272851,-3.689837635553926z" style="fill:rgb(162,50,222)"/><path d="M-41.17126976518426,-71.26509819053899L-13.031270018781386,7.580762690401064L-3.5244165938861896,1.3117222037592002z" style="fill:rgb(183,62,221)"/><path d="M-18.7440163566127,-80.59917828467121L6.774393790272851,-3.689837635553926L17.518869516336295,-7.254333391674068z" style="fill:rgb(139,40,220)"/><path d="M-74.64810770008206,-122.94461425683807L-78.02715735540336,-30.710193224055864L-46.592966152646994,-136.69400312815281z" style="fill:rgb(83,212,212)"/><path d="M-13.031270018781386,7.580762690401064L-60.49277537415935,-57.040803862992206L-21.421739575668532,14.910378728723328z" style="fill:rgb(203,77,216)"/><path d="M-17.445446721456573,-147.14301975986308L-7.288471808079644,-83.00707524491654L12.055773696199715,-153.96981551681526z" style="fill:rgb(83,212,212)"/><path d="M-7.288471808079644,-83.00707524491654L17.518869516336295,-7.254333391674068L28.34738742568028,-9.252902352803492z" style="fill:rgb(115,34,214)"/><path d="M-21.421739575668532,14.910378728723328L-68.14484159985078,-48.653592407659374L-28.40004134493508,23.05968397848613z" style="fill:rgb(220,94,208)"/><path d="M3.812661635567285,-83.76297978064335L28.34738742568028,-9.252902352803492L38.88982760934905,-9.601102215467368z" style="fill:rgb(92,32,204)"/><path d="M-28.40004134493508,23.05968397848613L-74.0691692352674,-39.77618211495066L-33.70650016469371,31.757496062496053z" style="fill:rgb(233,112,197)"/><path d="M14.170562416863332,-82.81519890003356L38.88982760934905,-9.601102215467368L48.77528583957342,-8.262956582977791z" style="fill:rgb(71,33,192)"/><path d="M12.055773696199715,-153.96981551681526L14.170562416863332,-82.81519890003356L41.128830844610754,-156.88846512615135z" style="fill:rgb(83,212,212)"/><path d="M57.641209740698216,-5.255182577377355L14.170562416863332,-82.81519890003356L48.77528583957342,-8.262956582977791z" style="fill:rgb(51,38,177)"/><path d="M-33.70650016469371,31.757496062496053L-78.02715735540336,-30.710193224055864L-37.125941209701224,40.70687665483025z" style="fill:rgb(242,130,183)"/><path d="M-46.592966152646994,-136.69400312815281L-51.39562029165079,-64.66072163267835L-41.17126976518426,-71.26509819053899zM-17.445446721456573,-147.14301975986308L-41.17126976518426,-71.26509819053899L-30.16525733651654,-76.63803598171219zM-46.592966152646994,-136.69400312815281L-60.49277537415935,-57.040803862992206L-51.39562029165079,-64.66072163267835z" style="fill:rgb(83,212,212)"/><path d="M-3.5244165938861896,1.3117222037592002L-30.16525733651654,-76.63803598171219L-41.17126976518426,-71.26509819053899z" style="fill:rgb(162,50,222)"/><path d="M-17.445446721456573,-147.14301975986308L-30.16525733651654,-76.63803598171219L-18.7440163566127,-80.59917828467121z" style="fill:rgb(83,212,212)"/><path d="M-13.031270018781386,7.580762690401064L-41.17126976518426,-71.26509819053899L-51.39562029165079,-64.66072163267835z" style="fill:rgb(183,62,221)"/><path d="M6.774393790272851,-3.689837635553926L-18.7440163566127,-80.59917828467121L-30.16525733651654,-76.63803598171219z" style="fill:rgb(139,40,220)"/><path d="M-17.445446721456573,-147.14301975986308L-18.7440163566127,-80.59917828467121L-7.288471808079644,-83.00707524491654zM-46.592966152646994,-136.69400312815281L-68.14484159985078,-48.653592407659374L-60.49277537415935,-57.040803862992206z" style="fill:rgb(83,212,212)"/><path d="M-60.49277537415935,-57.040803862992206L-13.031270018781386,7.580762690401064L-51.39562029165079,-64.66072163267835z" style="fill:rgb(203,77,216)"/><path d="M17.518869516336295,-7.254333391674068L-7.288471808079644,-83.00707524491654L-18.7440163566127,-80.59917828467121z" style="fill:rgb(115,34,214)"/><path d="M65.1443313711307,-0.6511812189101103L23.40557982477153,-80.16386687644533L57.641209740698216,-5.255182577377355z" style="fill:rgb(34,46,160)"/><path d="M-37.125941209701224,40.70687665483025L-79.8343086320094,-21.77596310932091L-38.497029530697844,49.59108085223881z" style="fill:rgb(246,149,167)"/><path d="M-68.14484159985078,-48.653592407659374L-21.421739575668532,14.910378728723328L-60.49277537415935,-57.040803862992206z" style="fill:rgb(220,94,208)"/><path d="M-46.592966152646994,-136.69400312815281L-74.0691692352674,-39.77618211495066L-68.14484159985078,-48.653592407659374z" style="fill:rgb(83,212,212)"/><path d="M28.34738742568028,-9.252902352803492L3.812661635567285,-83.76297978064335L-7.288471808079644,-83.00707524491654z" style="fill:rgb(92,32,204)"/><path d="M12.055773696199715,-153.96981551681526L-7.288471808079644,-83.00707524491654L3.812661635567285,-83.76297978064335z" style="fill:rgb(83,212,212)"/><path d="M-79.8343086320094,-21.77596310932091L-37.72219948315281,58.081419521588145L-38.497029530697844,49.59108085223881z" style="fill:rgb(246,167,149)"/><path d="M-46.592966152646994,-136.69400312815281L-78.02715735540336,-30.710193224055864L-74.0691692352674,-39.77618211495066z" style="fill:rgb(83,212,212)"/><path d="M-74.0691692352674,-39.77618211495066L-28.40004134493508,23.05968397848613L-68.14484159985078,-48.653592407659374z" style="fill:rgb(233,112,197)"/><path d="M12.055773696199715,-153.96981551681526L3.812661635567285,-83.76297978064335L14.170562416863332,-82.81519890003356z" style="fill:rgb(83,212,212)"/><path d="M70.9735360610025,5.415863606744356L31.158566777998193,-75.8657063369542L65.1443313711307,-0.6511812189101103z" style="fill:rgb(21,57,142)"/><path d="M38.88982760934905,-9.601102215467368L14.170562416863332,-82.81519890003356L3.812661635567285,-83.76297978064335z" style="fill:rgb(71,33,192)"/><path d="M-78.02715735540336,-30.710193224055864L-74.64810770008206,-122.94461425683807L-79.8343086320094,-21.77596310932091z" style="fill:rgb(83,212,212)"/><path d="M-78.02715735540336,-30.710193224055864L-33.70650016469371,31.757496062496053L-74.0691692352674,-39.77618211495066z" style="fill:rgb(242,130,183)"/><path d="M-79.37126901155379,-13.3047256018599L-34.777505585100805,65.8474808436333L-37.72219948315281,58.081419521588145z" style="fill:rgb(242,183,130)"/><path d="M-161.93216133665166,-42.755020071580645L-165.6194639611258,71.27386149256174L-145.2296040497419,-65.67554734886073zM-145.2296040497419,-65.67554734886073L-147.4928424611103,87.76393210281982L-124.65759166803971,-87.01249692166876zM41.128830844610754,-156.88846512615135L14.170562416863332,-82.81519890003356L23.40557982477153,-80.16386687644533z" style="fill:rgb(83,212,212)"/><path d="M74.86444148495285,12.751614194088745L37.104455206341314,-70.03807819349657L70.9735360610025,5.415863606744356z" style="fill:rgb(12,71,124)"/><path d="M14.170562416863332,-82.81519890003356L57.641209740698216,-5.255182577377355L23.40557982477153,-80.16386687644533z" style="fill:rgb(51,38,177)"/><path d="M-174.08996934646913,-18.846616741953582L-177.19777358550832,51.362183941780565L-161.93216133665166,-42.755020071580645zM-124.65759166803971,-87.01249692166876L-123.14285859412347,99.82227578489129L-100.90105763982562,-106.25169272301139z" style="fill:rgb(83,212,212)"/><path d="M-79.8343086320094,-21.77596310932091L-37.125941209701224,40.70687665483025L-78.02715735540336,-30.710193224055864z" style="fill:rgb(246,149,167)"/><path d="M41.128830844610754,-156.88846512615135L23.40557982477153,-80.16386687644533L31.158566777998193,-75.8657063369542zM-100.90105763982562,-106.25169272301139L-93.30649115851064,106.55359211196024L-74.64810770008206,-122.94461425683807zM-182.2485386044763,29.061147803968044L-174.08996934646913,-18.846616741953582L-181.05651763936552,5.357829512038702z" style="fill:rgb(83,212,212)"/><path d="M23.40557982477153,-80.16386687644533L65.1443313711307,-0.6511812189101103L31.158566777998193,-75.8657063369542z" style="fill:rgb(34,46,160)"/><path d="M41.128830844610754,-156.88846512615135L31.158566777998193,-75.8657063369542L37.104455206341314,-70.03807819349657z" style="fill:rgb(83,212,212)"/><path d="M-37.72219948315281,58.081419521588145L-79.8343086320094,-21.77596310932091L-79.37126901155379,-13.3047256018599z" style="fill:rgb(246,167,149)"/><path d="M31.158566777998193,-75.8657063369542L70.9735360610025,5.415863606744356L37.104455206341314,-70.03807819349657z" style="fill:rgb(21,57,142)"/><path d="M41.128830844610754,-156.88846512615135L37.104455206341314,-70.03807819349657L40.96784206552236,-62.86155802398355zM-174.08996934646913,-18.846616741953582L-182.2485386044763,29.061147803968044L-177.19777358550832,51.362183941780565z" style="fill:rgb(83,212,212)"/><path d="M-34.777505585100805,65.8474808436333L-79.37126901155379,-13.3047256018599L-76.5950868937428,-5.628321159569288z" style="fill:rgb(242,183,130)"/><path d="M41.128830844610754,-156.88846512615135L40.96784206552236,-62.86155802398355L42.539875310701476,-54.57979087124254z" style="fill:rgb(83,212,212)"/><path d="M148.76840104878843,-107.25489061117828L182.9018878262629,-5.203111426865911L175.55824722887317,-27.78987912131461z" style="fill:rgb(246,167,149)"/><path d="M37.104455206341314,-70.03807819349657L74.86444148495285,12.751614194088745L40.96784206552236,-62.86155802398355z" style="fill:rgb(12,71,124)"/><path d="M-161.93216133665166,-42.755020071580645L-177.19777358550832,51.362183941780565L-165.6194639611258,71.27386149256174zM-74.64810770008206,-122.94461425683807L-93.30649115851064,106.55359211196024L-79.8343086320094,-21.77596310932091z" style="fill:rgb(83,212,212)"/><path d="M-98.36221441606185,156.3168395230255L-165.6194639611258,71.27386149256174L-116.33577454637744,139.42208043255275z" style="fill:rgb(34,46,160)"/><path d="M41.128830844610754,-156.88846512615135L84.93802623358631,49.87719671228615L68.93633554084722,-155.6579167194691zM-145.2296040497419,-65.67554734886073L-165.6194639611258,71.27386149256174L-147.4928424611103,87.76393210281982zM68.93633554084722,-155.6579167194691L113.06176968675021,24.02734897852596L94.57870337434369,-150.0998393163401zM94.57870337434369,-150.0998393163401L134.81035877214893,-3.8367618969306085L117.09749102041489,-140.12600927683516z" style="fill:rgb(83,212,212)"/><path d="M182.9018878262629,-5.203111426865911L148.76840104878843,-107.25489061117828L155.9830249452849,-84.98954378468537z" style="fill:rgb(246,167,149)"/><path d="M182.9018878262629,-5.203111426865911L156.35120180748717,-59.655481231333155L183.85829647884353,20.118223395907176z" style="fill:rgb(246,149,167)"/><path d="M-124.65759166803971,-87.01249692166876L-147.4928424611103,87.76393210281982L-123.14285859412347,99.82227578489129z" style="fill:rgb(83,212,212)"/><path d="M-74.7371371306312,168.97312647981428L-147.4928424611103,87.76393210281982L-98.36221441606185,156.3168395230255z" style="fill:rgb(51,38,177)"/><path d="M117.09749102041489,-140.12600927683516L149.34524947931703,-32.20171835978249L135.49402651846427,-125.77487442084693zM41.128830844610754,-156.88846512615135L42.539875310701476,-54.57979087124254L51.786343236851444,72.23726394809866z" style="fill:rgb(83,212,212)"/><path d="M-165.6194639611258,71.27386149256174L-98.36221441606185,156.3168395230255L-147.4928424611103,87.76393210281982z" style="fill:rgb(34,46,160)"/><path d="M-100.90105763982562,-106.25169272301139L-123.14285859412347,99.82227578489129L-93.30649115851064,106.55359211196024z" style="fill:rgb(83,212,212)"/><path d="M156.35120180748717,-59.655481231333155L182.9018878262629,-5.203111426865911L155.9830249452849,-84.98954378468537z" style="fill:rgb(246,149,167)"/><path d="M-79.8343086320094,-21.77596310932091L-93.30649115851064,106.55359211196024L-79.37126901155379,-13.3047256018599z" style="fill:rgb(83,212,212)"/><path d="M183.85829647884353,20.118223395907176L149.34524947931703,-32.20171835978249L177.9424825292822,47.20079287174449z" style="fill:rgb(242,130,183)"/><path d="M135.49402651846427,-125.77487442084693L149.34524947931703,-32.20171835978249L148.76840104878843,-107.25489061117828zM-79.37126901155379,-13.3047256018599L-59.16208200854529,107.28689308290544L-76.5950868937428,-5.628321159569288zM148.76840104878843,-107.25489061117828L156.35120180748717,-59.655481231333155L155.9830249452849,-84.98954378468537z" style="fill:rgb(83,212,212)"/><path d="M-93.30649115851064,106.55359211196024L-74.7371371306312,168.97312647981428L-46.21527346927776,176.51215778169959z" style="fill:rgb(71,33,192)"/><path d="M-76.5950868937428,-5.628321159569288L-59.16208200854529,107.28689308290544L-71.5496220827359,0.9337121306260397z" style="fill:rgb(83,212,212)"/><path d="M-147.4928424611103,87.76393210281982L-74.7371371306312,168.97312647981428L-123.14285859412347,99.82227578489129z" style="fill:rgb(51,38,177)"/><path d="M149.34524947931703,-32.20171835978249L183.85829647884353,20.118223395907176L156.35120180748717,-59.655481231333155z" style="fill:rgb(242,130,183)"/><path d="M177.9424825292822,47.20079287174449L134.81035877214893,-3.8367618969306085L165.01020017153127,74.84315150592467z" style="fill:rgb(233,112,197)"/><path d="M-71.5496220827359,0.9337121306260397L-59.16208200854529,107.28689308290544L-64.3734933403042,6.089396069117022zM117.09749102041489,-140.12600927683516L134.81035877214893,-3.8367618969306085L149.34524947931703,-32.20171835978249zM-64.3734933403042,6.089396069117022L-59.16208200854529,107.28689308290544L-55.3038572395325,9.59115633988493zM148.76840104878843,-107.25489061117828L149.34524947931703,-32.20171835978249L156.35120180748717,-59.655481231333155zM41.69509928146778,-45.495666290996105L51.786343236851444,72.23726394809866L42.539875310701476,-54.57979087124254z" style="fill:rgb(83,212,212)"/><path d="M-59.16208200854529,107.28689308290544L-46.21527346927776,176.51215778169959L-13.940567015583273,178.26592050797765z" style="fill:rgb(92,32,204)"/><path d="M-55.3038572395325,9.59115633988493L-59.16208200854529,107.28689308290544L-44.67425024886925,11.25291125720559zM94.57870337434369,-150.0998393163401L113.06176968675021,24.02734897852596L134.81035877214893,-3.8367618969306085z" style="fill:rgb(83,212,212)"/><path d="M-74.7371371306312,168.97312647981428L-93.30649115851064,106.55359211196024L-123.14285859412347,99.82227578489129z" style="fill:rgb(71,33,192)"/><path d="M68.93633554084722,-155.6579167194691L84.93802623358631,49.87719671228615L113.06176968675021,24.02734897852596zM41.128830844610754,-156.88846512615135L51.786343236851444,72.23726394809866L84.93802623358631,49.87719671228615zM38.40645172773872,-35.962898314769895L51.786343236851444,72.23726394809866L41.69509928146778,-45.495666290996105z" style="fill:rgb(83,212,212)"/><path d="M165.01020017153127,74.84315150592467L113.06176968675021,24.02734897852596L145.34150432906392,101.67565976316705z" style="fill:rgb(220,94,208)"/><path d="M-44.67425024886925,11.25291125720559L-22.301183333885408,101.6841264306834L-32.90516953420755,10.965620833771382zM32.756221429049354,-26.372488377907466L51.786343236851444,72.23726394809866L38.40645172773872,-35.962898314769895z" style="fill:rgb(83,212,212)"/><path d="M134.81035877214893,-3.8367618969306085L177.9424825292822,47.20079287174449L149.34524947931703,-32.20171835978249z" style="fill:rgb(233,112,197)"/><path d="M-79.37126901155379,-13.3047256018599L-93.30649115851064,106.55359211196024L-59.16208200854529,107.28689308290544zM-32.90516953420755,10.965620833771382L-22.301183333885408,101.6841264306834L-20.486825056295178,8.70923130768388zM24.940765968109037,-17.134389190493508L51.786343236851444,72.23726394809866L32.756221429049354,-26.372488377907466z" style="fill:rgb(83,212,212)"/><path d="M-22.301183333885408,101.6841264306834L-13.940567015583273,178.26592050797765L20.58815430270327,173.87710257892178z" style="fill:rgb(115,34,214)"/><path d="M15.267176509572083,-8.655338588526723L51.786343236851444,72.23726394809866L24.940765968109037,-17.134389190493508z" style="fill:rgb(83,212,212)"/><path d="M145.34150432906392,101.67565976316705L84.93802623358631,49.87719671228615L119.68571291372471,126.26012194972314z" style="fill:rgb(203,77,216)"/><path d="M-20.486825056295178,8.70923130768388L15.368780408634272,89.82404225079961L-7.954599543956518,4.559071784565558zM4.141011850907122,-1.3147245463076866L15.368780408634272,89.82404225079961L15.267176509572083,-8.655338588526723zM-7.954599543956518,4.559071784565558L15.368780408634272,89.82404225079961L4.141011850907122,-1.3147245463076866z" style="fill:rgb(83,212,212)"/><path d="M84.93802623358631,49.87719671228615L89.24822958684527,147.21948663741986L119.68571291372471,126.26012194972314z" style="fill:rgb(183,62,221)"/><path d="M15.368780408634272,89.82404225079961L20.58815430270327,173.87710257892178L55.61012737956483,163.37688319928006z" style="fill:rgb(139,40,220)"/><path d="M-46.21527346927776,176.51215778169959L-59.16208200854529,107.28689308290544L-93.30649115851064,106.55359211196024z" style="fill:rgb(92,32,204)"/><path d="M51.786343236851444,72.23726394809866L55.61012737956483,163.37688319928006L89.24822958684527,147.21948663741986z" style="fill:rgb(162,50,222)"/><path d="M113.06176968675021,24.02734897852596L165.01020017153127,74.84315150592467L134.81035877214893,-3.8367618969306085z" style="fill:rgb(220,94,208)"/><path d="M-44.67425024886925,11.25291125720559L-59.16208200854529,107.28689308290544L-22.301183333885408,101.6841264306834z" style="fill:rgb(83,212,212)"/><path d="M-13.940567015583273,178.26592050797765L-22.301183333885408,101.6841264306834L-59.16208200854529,107.28689308290544z" style="fill:rgb(115,34,214)"/><path d="M84.93802623358631,49.87719671228615L145.34150432906392,101.67565976316705L113.06176968675021,24.02734897852596z" style="fill:rgb(203,77,216)"/><path d="M-20.486825056295178,8.70923130768388L-22.301183333885408,101.6841264306834L15.368780408634272,89.82404225079961z" style="fill:rgb(83,212,212)"/><path d="M20.58815430270327,173.87710257892178L15.368780408634272,89.82404225079961L-22.301183333885408,101.6841264306834z" style="fill:rgb(139,40,220)"/><path d="M15.267176509572083,-8.655338588526723L15.368780408634272,89.82404225079961L51.786343236851444,72.23726394809866z" style="fill:rgb(83,212,212)"/><path d="M89.24822958684527,147.21948663741986L84.93802623358631,49.87719671228615L51.786343236851444,72.23726394809866z" style="fill:rgb(183,62,221)"/><path d="M55.61012737956483,163.37688319928006L51.786343236851444,72.23726394809866L15.368780408634272,89.82404225079961z" style="fill:rgb(162,50,222)"/></svg>
