<?xml version="1.0" encoding="UTF-8"?>
<!-- Generated by jsxcad -->
<!DOCTYPE svg PUBLIC "-//W3C//DTD SVG 1.1 Tiny//EN" "http://www.w3.org/Graphics/SVG/1.1/DTD/svg11-tiny.dtd">
<svg viewBox="-250 -250 500 500" width="500" height="500" xmlns="http://www.w3.org/2000/svg"><path d="M-26.37439506032691,-60.10514743135918L-35.83134503192516,-49.498859080706474L-23.923253069819914,-55.30407236869854z" style="fill:rgb(162,50,222)"/><path d="M-38.33377523447454,-54.2729289090997L-46.88488943124077,-42.32027368992829L-35.83134503192516,-49.498859080706474z" style="fill:rgb(183,62,221)"/><path d="M-12.65239275906971,-66.79694195713344L-23.923253069819914,-55.30407236869854L-10.260139938639432,-61.96486072582908zM-35.83134503192516,-49.498859080706474L-26.37439506032691,-60.10514743135918L-38.33377523447454,-54.2729289090997zM-23.923253069819914,-55.30407236869854L-12.65239275906971,-66.79694195713344L-26.37439506032691,-60.10514743135918z" style="fill:rgb(162,50,222)"/><path d="M-49.43960841645434,-47.0702228672699L-59.60016844008167,-34.062492686465994L-46.88488943124077,-42.32027368992829zM-46.88488943124077,-42.32027368992829L-38.33377523447454,-54.2729289090997L-49.43960841645434,-47.0702228672699z" style="fill:rgb(183,62,221)"/><path d="M-10.260139938639432,-61.96486072582908L14.15051666965904,-76.01758160171786L-12.65239275906971,-66.79694195713344zM14.15051666965904,-76.01758160171786L-10.260139938639432,-61.96486072582908L16.436621186684086,-71.12237266240227z" style="fill:rgb(139,40,220)"/><path d="M-59.60016844008167,-34.062492686465994L-49.43960841645434,-47.0702228672699L-62.21522102207679,-38.784575667839015z" style="fill:rgb(183,62,221)"/><path d="M-83.63891702372341,-20.717771812348243L-59.60016844008167,-34.062492686465994L-62.21522102207679,-38.784575667839015zM-59.60016844008167,-34.062492686465994L-83.63891702372341,-20.717771812348243L-80.91065377580398,-16.04111756362327z" style="fill:rgb(203,77,216)"/><path d="M16.436621186684086,-71.12237266240227L41.366938430993095,-81.63919129384118L14.15051666965904,-76.01758160171786zM41.366938430993095,-81.63919129384118L16.436621186684086,-71.12237266240227L43.55243222082198,-76.67711521379107z" style="fill:rgb(115,34,214)"/><path d="M-101.96212390578155,-0.5134900491509984L-80.91065377580398,-16.04111756362327L-83.63891702372341,-20.717771812348243zM-80.91065377580398,-16.04111756362327L-101.96212390578155,-0.5134900491509984L-99.1223650471409,4.124559932719603z" style="fill:rgb(220,94,208)"/><path d="M43.55243222082198,-76.67711521379107L68.24932943928856,-83.4120947051027L41.366938430993095,-81.63919129384118zM68.24932943928856,-83.4120947051027L43.55243222082198,-76.67711521379107L70.34136520849228,-78.38133223039036z" style="fill:rgb(92,32,204)"/><path d="M-116.55767723596465,21.32075048990446L-99.1223650471409,4.124559932719603L-101.96212390578155,-0.5134900491509984zM-99.1223650471409,4.124559932719603L-116.55767723596465,21.32075048990446L-113.61104313250075,25.927137867610977z" style="fill:rgb(233,112,197)"/><path d="M70.34136520849228,-78.38133223039036L94.00263364718677,-81.14229365239285L68.24932943928856,-83.4120947051027zM94.00263364718677,-81.14229365239285L70.34136520849228,-78.38133223039036L96.01027159473759,-76.04353291444406z" style="fill:rgb(71,33,192)"/><path d="M-126.82302558411676,44.198286726671036L-113.61104313250075,25.927137867610977L-116.55767723596465,21.32075048990446zM-113.61104313250075,25.927137867610977L-126.82302558411676,44.198286726671036L-123.77775298397175,48.78005079952685z" style="fill:rgb(242,130,183)"/><path d="M119.71618404387067,-69.54594027100254L94.00263364718677,-81.14229365239285L96.01027159473759,-76.04353291444406zM94.00263364718677,-81.14229365239285L119.71618404387067,-69.54594027100254L117.78152736488815,-74.70892252537806z" style="fill:rgb(51,38,177)"/><path d="M-132.2000410515865,67.44234750773886L-123.77775298397175,48.78005079952685L-126.82302558411676,44.198286726671036zM-123.77775298397175,48.78005079952685L-132.2000410515865,67.44234750773886L-129.06872761320363,72.00673932277812z" style="fill:rgb(246,149,167)"/><path d="M140.5727792516915,-58.86972272923276L117.78152736488815,-74.70892252537806L119.71618404387067,-69.54594027100254z" style="fill:rgb(34,46,160)"/><path d="M4.2964362280651285,-8.583293434754816L-3.5244165938861896,1.3117222037592002L6.774393790272851,-3.689837635553926z" style="fill:rgb(162,50,222)"/><path d="M-18.41036179918637,0.23575681577216795L-12.912975784272687,-2.856752790006489L-14.525386999638984,-2.3202126015143283z" style="fill:rgb(83,212,212)"/><path d="M-6.049861754982226,-3.556912205689697L-13.031270018781386,7.580762690401064L-3.5244165938861896,1.3117222037592002z" style="fill:rgb(183,62,221)"/><path d="M-7.996806497601492,-6.615440750972676L15.086609720049443,-12.173792570935971L-3.796392616630237,-8.656531743190785zM15.086609720049443,-12.173792570935971L-7.996806497601492,-6.615440750972676L-14.525386999638984,-2.3202126015143283z" style="fill:rgb(83,212,212)"/><path d="M15.086609720049443,-12.173792570935971L6.774393790272851,-3.689837635553926L17.518869516336295,-7.254333391674068z" style="fill:rgb(139,40,220)"/><path d="M-27.61488352020736,8.238387018898285L-12.912975784272687,-2.856752790006489L-18.41036179918637,0.23575681577216795z" style="fill:rgb(83,212,212)"/><path d="M-3.5244165938861896,1.3117222037592002L4.2964362280651285,-8.583293434754816L-6.049861754982226,-3.556912205689697z" style="fill:rgb(162,50,222)"/><path d="M-13.031270018781386,7.580762690401064L-6.049861754982226,-3.556912205689697L-15.604625167215994,2.735040800772479z" style="fill:rgb(183,62,221)"/><path d="M6.774393790272851,-3.689837635553926L15.086609720049443,-12.173792570935971L4.2964362280651285,-8.583293434754816z" style="fill:rgb(139,40,220)"/><path d="M4.2964362280651285,-8.583293434754816L-6.881710458062484,-4.8636945587499L-11.322060738985417,-0.9956016508142157zM-6.881710458062484,-4.8636945587499L-12.912975784272687,-2.856752790006489L-24.04200415801718,10.085038694798614z" style="fill:rgb(83,212,212)"/><path d="M-13.031270018781386,7.580762690401064L-24.04200415801718,10.085038694798614L-21.421739575668532,14.910378728723328z" style="fill:rgb(203,77,216)"/><path d="M-6.049861754982226,-3.556912205689697L-11.322060738985417,-0.9956016508142157L-15.604625167215994,2.735040800772479z" style="fill:rgb(83,212,212)"/><path d="M-24.04200415801718,10.085038694798614L-13.031270018781386,7.580762690401064L-15.604625167215994,2.735040800772479z" style="fill:rgb(203,77,216)"/><path d="M-35.288826369818835,17.13363504139583L-12.912975784272687,-2.856752790006489L-27.61488352020736,8.238387018898285zM43.53887606084404,-17.47348044032006L3.2747151463712347,-12.092568963599119L-3.796392616630237,-8.656531743190785z" style="fill:rgb(83,212,212)"/><path d="M25.957718724962966,-14.198710011250665L17.518869516336295,-7.254333391674068L28.34738742568028,-9.252902352803492zM17.518869516336295,-7.254333391674068L25.957718724962966,-14.198710011250665L15.086609720049443,-12.173792570935971z" style="fill:rgb(115,34,214)"/><path d="M3.2747151463712347,-12.092568963599119L43.53887606084404,-17.47348044032006L15.030328814479493,-16.01227984973189zM15.030328814479493,-16.01227984973189L43.53887606084404,-17.47348044032006L26.87969481133792,-18.233862793511367z" style="fill:rgb(83,212,212)"/><path d="M-21.421739575668532,14.910378728723328L-31.064729425720877,18.251669578344124L-28.40004134493508,23.05968397848613zM-31.064729425720877,18.251669578344124L-21.421739575668532,14.910378728723328L-24.04200415801718,10.085038694798614z" style="fill:rgb(220,94,208)"/><path d="M-41.14784273580633,26.629867278545078L-12.912975784272687,-2.856752790006489L-35.288826369818835,17.13363504139583z" style="fill:rgb(83,212,212)"/><path d="M117.78152736488815,-74.70892252537806L140.5727792516915,-58.86972272923276L138.69676110633677,-64.08956144723662z" style="fill:rgb(34,46,160)"/><path d="M28.34738742568028,-9.252902352803492L36.5383712509439,-14.572668286254135L25.957718724962966,-14.198710011250665zM36.5383712509439,-14.572668286254135L28.34738742568028,-9.252902352803492L38.88982760934905,-9.601102215467368z" style="fill:rgb(92,32,204)"/><path d="M26.87969481133792,-18.233862793511367L43.53887606084404,-17.47348044032006L38.42263698556494,-18.663112328633947zM36.5383712509439,-14.572668286254135L31.52862985886025,-15.236380245292882L25.957718724962966,-14.198710011250665zM-41.14784273580633,26.629867278545078L-42.44997782103056,31.491417533374776L-12.912975784272687,-2.856752790006489z" style="fill:rgb(83,212,212)"/><path d="M-36.41160260985275,26.963313807850426L-28.40004134493508,23.05968397848613L-31.064729425720877,18.251669578344124zM-28.40004134493508,23.05968397848613L-36.41160260985275,26.963313807850426L-33.70650016469371,31.757496062496053z" style="fill:rgb(233,112,197)"/><path d="M38.42263698556494,-18.663112328633947L43.53887606084404,-17.47348044032006L42.44395294334236,-18.141142783852093z" style="fill:rgb(83,212,212)"/><path d="M-132.2000410515865,67.44234750773886L-129.00814858943667,94.83510536126953L-129.06872761320363,72.00673932277812z" style="fill:rgb(246,167,149)"/><path d="M38.88982760934905,-9.601102215467368L46.45643381068787,-13.258681016194387L36.5383712509439,-14.572668286254135z" style="fill:rgb(71,33,192)"/><path d="M46.45643381068787,-13.258681016194387L37.34300470497633,-16.31940126100482L31.52862985886025,-15.236380245292882zM-31.064729425720877,18.251669578344124L-34.668623826221385,22.44258818315401L-36.41160260985275,26.963313807850426z" style="fill:rgb(83,212,212)"/><path d="M46.45643381068787,-13.258681016194387L38.88982760934905,-9.601102215467368L48.77528583957342,-8.262956582977791z" style="fill:rgb(71,33,192)"/><path d="M-42.44997782103056,31.491417533374776L-41.14784273580633,26.629867278545078L-42.55979813174851,30.257058661889758zM55.3481781372852,-10.272413576926834L43.53887606084404,-17.47348044032006L37.34300470497633,-16.31940126100482z" style="fill:rgb(83,212,212)"/><path d="M-39.86590270969196,35.92266427297509L-33.70650016469371,31.757496062496053L-36.41160260985275,26.963313807850426zM-33.70650016469371,31.757496062496053L-39.86590270969196,35.92266427297509L-37.125941209701224,40.70687665483025z" style="fill:rgb(242,130,183)"/><path d="M57.641209740698216,-5.255182577377355L46.45643381068787,-13.258681016194387L48.77528583957342,-8.262956582977791z" style="fill:rgb(51,38,177)"/><path d="M-34.668623826221385,22.44258818315401L-42.44997782103056,31.491417533374776L-41.64515086586714,40.5374627914676z" style="fill:rgb(83,212,212)"/><path d="M157.6700582430327,-44.127015427896985L138.69676110633677,-64.08956144723662L140.5727792516915,-58.86972272923276z" style="fill:rgb(21,57,142)"/><path d="M-129.00814858943667,94.83510536126953L-132.2000410515865,67.44234750773886L-132.20788671653128,90.28037988518822z" style="fill:rgb(246,167,149)"/><path d="M46.45643381068787,-13.258681016194387L57.641209740698216,-5.255182577377355L55.3481781372852,-10.272413576926834z" style="fill:rgb(51,38,177)"/><path d="M-28.40004134493508,23.05968397848613L-22.700602414805182,77.95445510910015L-21.421739575668532,14.910378728723328zM-21.421739575668532,14.910378728723328L-13.952905998767443,81.74984297419043L-13.031270018781386,7.580762690401064zM-33.70650016469371,31.757496062496053L-29.721333638965145,72.56975462919178L-28.40004134493508,23.05968397848613z" style="fill:rgb(83,212,212)"/><path d="M-30.16525733651654,-76.63803598171219L-6.049861754982226,-3.556912205689697L4.2964362280651285,-8.583293434754816z" style="fill:rgb(162,50,222)"/><path d="M-13.031270018781386,7.580762690401064L-3.8031806394289283,83.7626913113231L-3.5244165938861896,1.3117222037592002z" style="fill:rgb(83,212,212)"/><path d="M-41.17126976518426,-71.26509819053899L-15.604625167215994,2.735040800772479L-6.049861754982226,-3.556912205689697z" style="fill:rgb(183,62,221)"/><path d="M-41.26478745726546,44.81266963627676L-37.125941209701224,40.70687665483025L-39.86590270969196,35.92266427297509z" style="fill:rgb(246,149,167)"/><path d="M-37.125941209701224,40.70687665483025L-34.777505585100805,65.8474808436333L-33.70650016469371,31.757496062496053z" style="fill:rgb(83,212,212)"/><path d="M-18.7440163566127,-80.59917828467121L4.2964362280651285,-8.583293434754816L15.086609720049443,-12.173792570935971z" style="fill:rgb(139,40,220)"/><path d="M-37.125941209701224,40.70687665483025L-41.26478745726546,44.81266963627676L-38.497029530697844,49.59108085223881z" style="fill:rgb(246,149,167)"/><path d="M65.1443313711307,-0.6511812189101103L55.3481781372852,-10.272413576926834L57.641209740698216,-5.255182577377355z" style="fill:rgb(34,46,160)"/><path d="M-3.5244165938861896,1.3117222037592002L7.346181491294608,83.8734097981443L6.774393790272851,-3.689837635553926zM-44.953735041559156,36.40686881684392L-45.746800471666525,55.416339119205745L-42.55979813174851,30.257058661889758zM76.35114457796118,2.534761408305946L49.256769209964446,-17.256836347283727L42.44395294334236,-18.141142783852093zM-37.72219948315281,58.081419521588145L-37.125941209701224,40.70687665483025L-38.497029530697844,49.59108085223881z" style="fill:rgb(83,212,212)"/><path d="M-15.604625167215994,2.735040800772479L-60.49277537415935,-57.040803862992206L-24.04200415801718,10.085038694798614z" style="fill:rgb(203,77,216)"/><path d="M-39.86590270969196,35.92266427297509L-41.64515086586714,40.5374627914676L-41.26478745726546,44.81266963627676zM6.774393790272851,-3.689837635553926L19.032100428246057,82.0478038192378L17.518869516336295,-7.254333391674068z" style="fill:rgb(83,212,212)"/><path d="M-7.288471808079644,-83.00707524491654L15.086609720049443,-12.173792570935971L25.957718724962966,-14.198710011250665z" style="fill:rgb(115,34,214)"/><path d="M138.69676110633677,-64.08956144723662L157.6700582430327,-44.127015427896985L155.83489352960098,-49.392442772345326z" style="fill:rgb(21,57,142)"/><path d="M49.256769209964446,-17.256836347283727L76.35114457796118,2.534761408305946L58.98681747844827,-14.027797524524237z" style="fill:rgb(83,212,212)"/><path d="M55.3481781372852,-10.272413576926834L65.1443313711307,-0.6511812189101103L62.86924280327866,-5.686223630967482z" style="fill:rgb(34,46,160)"/><path d="M17.518869516336295,-7.254333391674068L30.75384337358864,78.34369806899457L28.34738742568028,-9.252902352803492zM-45.746800471666525,55.416339119205745L-44.953735041559156,36.40686881684392L-46.524726091032655,46.121631769522416z" style="fill:rgb(83,212,212)"/><path d="M-132.20788671653128,90.28037988518822L-126.35541215913327,104.76062797037495L-129.00814858943667,94.83510536126953z" style="fill:rgb(242,183,130)"/><path d="M-41.26478745726546,44.81266963627676L-37.72219948315281,58.081419521588145L-38.497029530697844,49.59108085223881z" style="fill:rgb(246,167,149)"/><path d="M-24.04200415801718,10.085038694798614L-68.14484159985078,-48.653592407659374L-31.064729425720877,18.251669578344124z" style="fill:rgb(220,94,208)"/><path d="M-37.125941209701224,40.70687665483025L-37.72219948315281,58.081419521588145L-34.777505585100805,65.8474808436333z" style="fill:rgb(83,212,212)"/><path d="M3.812661635567285,-83.76297978064335L25.957718724962966,-14.198710011250665L36.5383712509439,-14.572668286254135z" style="fill:rgb(92,32,204)"/><path d="M28.34738742568028,-9.252902352803492L42.00067318585268,72.91111053048651L38.88982760934905,-9.601102215467368z" style="fill:rgb(83,212,212)"/><path d="M70.9735360610025,5.415863606744356L62.86924280327866,-5.686223630967482L65.1443313711307,-0.6511812189101103z" style="fill:rgb(21,57,142)"/><path d="M-42.55979813174851,30.257058661889758L-45.746800471666525,55.416339119205745L-42.585247687545746,63.92913009783066z" style="fill:rgb(83,212,212)"/><path d="M-37.72219948315281,58.081419521588145L-41.26478745726546,44.81266963627676L-40.509275940131545,53.3043926911893z" style="fill:rgb(246,167,149)"/><path d="M58.98681747844827,-14.027797524524237L76.35114457796118,2.534761408305946L67.23612661943201,-9.049651678146528z" style="fill:rgb(83,212,212)"/><path d="M-126.35541215913327,104.76062797037495L-132.20788671653128,90.28037988518822L-129.57619465315508,100.20584633676432z" style="fill:rgb(242,183,130)"/><path d="M-33.70650016469371,31.757496062496053L-34.777505585100805,65.8474808436333L-29.721333638965145,72.56975462919178zM38.88982760934905,-9.601102215467368L42.00067318585268,72.91111053048651L48.77528583957342,-8.262956582977791z" style="fill:rgb(83,212,212)"/><path d="M-31.064729425720877,18.251669578344124L-74.0691692352674,-39.77618211495066L-36.41160260985275,26.963313807850426z" style="fill:rgb(233,112,197)"/><path d="M62.86924280327866,-5.686223630967482L70.9735360610025,5.415863606744356L68.70754761954731,0.36766579447630665z" style="fill:rgb(21,57,142)"/><path d="M68.70754761954731,0.36766579447630665L66.74985226029243,-3.3199080006808224L62.86924280327866,-5.686223630967482z" style="fill:rgb(83,212,212)"/><path d="M14.170562416863332,-82.81519890003356L36.5383712509439,-14.572668286254135L46.45643381068787,-13.258681016194387z" style="fill:rgb(71,33,192)"/><path d="M-40.509275940131545,53.3043926911893L-34.777505585100805,65.8474808436333L-37.72219948315281,58.081419521588145z" style="fill:rgb(242,183,130)"/><path d="M48.77528583957342,-8.262956582977791L61.15406204097815,57.87375806860607L57.641209740698216,-5.255182577377355zM-28.40004134493508,23.05968397848613L-29.721333638965145,72.56975462919178L-22.700602414805182,77.95445510910015zM-42.55979813174851,30.257058661889758L-42.585247687545746,63.92913009783066L-39.15364666989743,68.54134153283205zM67.23612661943201,-9.049651678146528L76.35114457796118,2.534761408305946L73.66062199177865,-2.4611306564905195z" style="fill:rgb(83,212,212)"/><path d="M-129.57619465315508,100.20584633676432L-123.24413481457592,116.4018911992172L-126.35541215913327,104.76062797037495z" style="fill:rgb(242,183,130)"/><path d="M74.86444148495285,12.751614194088745L68.70754761954731,0.36766579447630665L70.9735360610025,5.415863606744356zM170.1112212734821,-25.596793212243966L155.83489352960098,-49.392442772345326L157.6700582430327,-44.127015427896985z" style="fill:rgb(12,71,124)"/><path d="M57.641209740698216,-5.255182577377355L68.24904835357113,48.93641746720571L65.1443313711307,-0.6511812189101103z" style="fill:rgb(83,212,212)"/><path d="M55.3481781372852,-10.272413576926834L14.170562416863332,-82.81519890003356L46.45643381068787,-13.258681016194387z" style="fill:rgb(51,38,177)"/><path d="M-36.41160260985275,26.963313807850426L-78.02715735540336,-30.710193224055864L-39.86590270969196,35.92266427297509z" style="fill:rgb(242,130,183)"/><path d="M-21.421739575668532,14.910378728723328L-22.700602414805182,77.95445510910015L-13.952905998767443,81.74984297419043z" style="fill:rgb(83,212,212)"/><path d="M-34.777505585100805,65.8474808436333L-40.509275940131545,53.3043926911893L-37.574229529557066,61.06723908266718z" style="fill:rgb(242,183,130)"/><path d="M-6.049861754982226,-3.556912205689697L-30.16525733651654,-76.63803598171219L-41.17126976518426,-71.26509819053899z" style="fill:rgb(162,50,222)"/><path d="M-15.604625167215994,2.735040800772479L-41.17126976518426,-71.26509819053899L-51.39562029165079,-64.66072163267835z" style="fill:rgb(183,62,221)"/><path d="M4.2964362280651285,-8.583293434754816L-18.7440163566127,-80.59917828467121L-30.16525733651654,-76.63803598171219z" style="fill:rgb(139,40,220)"/><path d="M65.1443313711307,-0.6511812189101103L73.28942957841502,39.56461975626607L70.9735360610025,5.415863606744356z" style="fill:rgb(83,212,212)"/><path d="M68.70754761954731,0.36766579447630665L74.86444148495285,12.751614194088745L72.59794095303101,7.695727540627631z" style="fill:rgb(12,71,124)"/><path d="M75.17766861684667,1.8191996258136192L66.74985226029243,-3.3199080006808224L74.60729877435156,11.480628485775695z" style="fill:rgb(83,212,212)"/><path d="M-123.24413481457592,116.4018911992172L-129.57619465315508,100.20584633676432L-126.48925884131337,111.84832854428976z" style="fill:rgb(242,183,130)"/><path d="M-36.33205530793015,73.31418216756678L-42.585247687545746,63.92913009783066L-39.76335939523027,68.69665754962053z" style="fill:rgb(21,57,142)"/><path d="M-60.49277537415935,-57.040803862992206L-15.604625167215994,2.735040800772479L-51.39562029165079,-64.66072163267835z" style="fill:rgb(203,77,216)"/><path d="M-13.031270018781386,7.580762690401064L-13.952905998767443,81.74984297419043L-3.8031806394289283,83.7626913113231z" style="fill:rgb(83,212,212)"/><path d="M15.086609720049443,-12.173792570935971L-7.288471808079644,-83.00707524491654L-18.7440163566127,-80.59917828467121z" style="fill:rgb(115,34,214)"/><path d="M70.9735360610025,5.415863606744356L76.10093493270531,30.15775838508146L74.86444148495285,12.751614194088745z" style="fill:rgb(83,212,212)"/><path d="M77.9650437141977,5.531527761518976L80.93537047469536,13.9824558336431L80.20652456487913,10.60077461961199z" style="fill:rgb(246,167,149)"/><path d="M-34.467608322045564,69.28387699195243L-40.509275940131545,53.3043926911893L-39.27171008238121,67.21433115556557zM75.17766861684667,1.8191996258136192L78.6897435142144,8.912384416986065L76.35114457796118,2.534761408305946z" style="fill:rgb(83,212,212)"/><path d="M-42.585247687545746,63.92913009783066L-36.33205530793015,73.31418216756678L-39.15364666989743,68.54134153283205z" style="fill:rgb(21,57,142)"/><path d="M62.86924280327866,-5.686223630967482L23.40557982477153,-80.16386687644533L55.3481781372852,-10.272413576926834z" style="fill:rgb(34,46,160)"/><path d="M-68.14484159985078,-48.653592407659374L-24.04200415801718,10.085038694798614L-60.49277537415935,-57.040803862992206z" style="fill:rgb(220,94,208)"/><path d="M-39.86590270969196,35.92266427297509L-79.8343086320094,-21.77596310932091L-41.26478745726546,44.81266963627676z" style="fill:rgb(246,149,167)"/><path d="M-3.5244165938861896,1.3117222037592002L-3.8031806394289283,83.7626913113231L7.346181491294608,83.8734097981443z" style="fill:rgb(83,212,212)"/><path d="M155.83489352960098,-49.392442772345326L170.1112212734821,-25.596793212243966L168.29514695565817,-30.892635216796382z" style="fill:rgb(12,71,124)"/><path d="M76.35114457796118,2.534761408305946L78.6897435142144,8.912384416986065L77.9650437141977,5.531527761518976z" style="fill:rgb(83,212,212)"/><path d="M-34.27401647838058,76.08369144955817L-39.15364666989743,68.54134153283205L-36.33205530793015,73.31418216756678z" style="fill:rgb(21,57,142)"/><path d="M25.957718724962966,-14.198710011250665L3.812661635567285,-83.76297978064335L-7.288471808079644,-83.00707524491654z" style="fill:rgb(92,32,204)"/><path d="M80.93537047469536,13.9824558336431L77.9650437141977,5.531527761518976L78.6897435142144,8.912384416986065z" style="fill:rgb(246,167,149)"/><path d="M-32.517136299886545,67.78160041338373L-37.574229529557066,61.06723908266718L-36.05835411781888,65.07654345134286z" style="fill:rgb(83,212,212)"/><path d="M78.6897435142144,8.912384416986065L82.17332450250363,19.726278374859685L80.93537047469536,13.9824558336431z" style="fill:rgb(246,167,149)"/><path d="M6.774393790272851,-3.689837635553926L7.346181491294608,83.8734097981443L19.032100428246057,82.0478038192378zM74.86444148495285,12.751614194088745L76.10093493270531,30.15775838508146L76.61499505021416,21.10191458932817z" style="fill:rgb(83,212,212)"/><path d="M-39.15364666989743,68.54134153283205L-34.27401647838058,76.08369144955817L-37.09533880250939,71.30779102355464z" style="fill:rgb(21,57,142)"/><path d="M74.60729877435156,11.480628485775695L72.59794095303101,7.695727540627631L74.33788113601265,16.044384462731543z" style="fill:rgb(83,212,212)"/><path d="M-74.0691692352674,-39.77618211495066L-31.064729425720877,18.251669578344124L-68.14484159985078,-48.653592407659374z" style="fill:rgb(233,112,197)"/><path d="M-79.8343086320094,-21.77596310932091L-40.509275940131545,53.3043926911893L-41.26478745726546,44.81266963627676z" style="fill:rgb(246,167,149)"/><path d="M17.518869516336295,-7.254333391674068L19.032100428246057,82.0478038192378L30.75384337358864,78.34369806899457zM78.6897435142144,8.912384416986065L75.17766861684667,1.8191996258136192L73.80299038388326,25.10491022968228zM70.9735360610025,5.415863606744356L73.28942957841502,39.56461975626607L76.10093493270531,30.15775838508146z" style="fill:rgb(83,212,212)"/><path d="M-126.48925884131337,111.84832854428976L-111.60676439759136,135.77203706736194L-123.24413481457592,116.4018911992172z" style="fill:rgb(233,197,112)"/><path d="M82.17332450250363,19.726278374859685L78.6897435142144,8.912384416986065L79.92071147964003,14.655069132645862z" style="fill:rgb(246,167,149)"/><path d="M-26.62179410761874,82.01561638258455L-37.09533880250939,71.30779102355464L-34.27401647838058,76.08369144955817z" style="fill:rgb(34,46,160)"/><path d="M36.5383712509439,-14.572668286254135L14.170562416863332,-82.81519890003356L3.812661635567285,-83.76297978064335z" style="fill:rgb(71,33,192)"/><path d="M-25.484445846655962,73.15370795919489L-36.05835411781888,65.07654345134286L-34.467608322045564,69.28387699195243zM28.34738742568028,-9.252902352803492L30.75384337358864,78.34369806899457L42.00067318585268,72.91111053048651zM65.1443313711307,-0.6511812189101103L68.24904835357113,48.93641746720571L73.28942957841502,39.56461975626607z" style="fill:rgb(83,212,212)"/><path d="M68.70754761954731,0.36766579447630665L31.158566777998193,-75.8657063369542L62.86924280327866,-5.686223630967482z" style="fill:rgb(21,57,142)"/><path d="M57.641209740698216,-5.255182577377355L61.15406204097815,57.87375806860607L68.24904835357113,48.93641746720571zM48.77528583957342,-8.262956582977791L52.2815759339864,65.98540058045009L61.15406204097815,57.87375806860607zM48.77528583957342,-8.262956582977791L42.00067318585268,72.91111053048651L52.2815759339864,65.98540058045009zM78.6897435142144,8.912384416986065L79.38350790261214,24.5738184586303L79.92071147964003,14.655069132645862z" style="fill:rgb(83,212,212)"/><path d="M-78.02715735540336,-30.710193224055864L-36.41160260985275,26.963313807850426L-74.0691692352674,-39.77618211495066z" style="fill:rgb(242,130,183)"/><path d="M-37.09533880250939,71.30779102355464L-26.62179410761874,82.01561638258455L-29.43037146365586,77.22623933067895z" style="fill:rgb(34,46,160)"/><path d="M79.38350790261214,24.5738184586303L82.17332450250363,19.726278374859685L79.92071147964003,14.655069132645862z" style="fill:rgb(246,149,167)"/><path d="M-39.15364666989743,68.54134153283205L-7.451410226032928,80.92211398711612L-39.27171008238121,67.21433115556557z" style="fill:rgb(83,212,212)"/><path d="M82.17332450250363,19.726278374859685L79.38350790261214,24.5738184586303L81.65849990582952,29.639971800829347z" style="fill:rgb(246,149,167)"/><path d="M-161.93216133665166,-42.755020071580645L-165.6194639611258,71.27386149256174L-145.2296040497419,-65.67554734886073zM-7.451410226032928,80.92211398711612L-39.15364666989743,68.54134153283205L-37.09533880250939,71.30779102355464zM-145.2296040497419,-65.67554734886073L-147.4928424611103,87.76393210281982L-124.65759166803971,-87.01249692166876z" style="fill:rgb(83,212,212)"/><path d="M-79.37126901155379,-13.3047256018599L-37.574229529557066,61.06723908266718L-40.509275940131545,53.3043926911893z" style="fill:rgb(242,183,130)"/><path d="M173.76821011995517,-33.09955397113081L182.05529841034277,-7.806961636098L175.55824722887317,-27.78987912131461z" style="fill:rgb(246,167,149)"/><path d="M78.6897435142144,8.912384416986065L78.24363991972747,28.403470213575137L79.38350790261214,24.5738184586303z" style="fill:rgb(83,212,212)"/><path d="M-17.06168507813783,86.21082969832872L-29.43037146365586,77.22623933067895L-26.62179410761874,82.01561638258455z" style="fill:rgb(51,38,177)"/><path d="M-174.08996934646913,-18.846616741953582L-177.19777358550832,51.362183941780565L-161.93216133665166,-42.755020071580645z" style="fill:rgb(83,212,212)"/><path d="M-111.60676439759136,135.77203706736194L-126.48925884131337,111.84832854428976L-114.86887116767036,131.20995876769052z" style="fill:rgb(233,197,112)"/><path d="M-124.65759166803971,-87.01249692166876L-123.14285859412347,99.82227578489129L-100.90105763982562,-106.25169272301139z" style="fill:rgb(83,212,212)"/><path d="M14.170562416863332,-82.81519890003356L55.3481781372852,-10.272413576926834L23.40557982477153,-80.16386687644533z" style="fill:rgb(51,38,177)"/><path d="M72.59794095303101,7.695727540627631L37.104455206341314,-70.03807819349657L68.70754761954731,0.36766579447630665z" style="fill:rgb(12,71,124)"/><path d="M-7.451410226032928,80.92211398711612L-37.09533880250939,71.30779102355464L-29.43037146365586,77.22623933067895z" style="fill:rgb(83,212,212)"/><path d="M81.65849990582952,29.639971800829347L78.24363991972747,28.403470213575137L80.53096094624628,33.46526316622128z" style="fill:rgb(242,130,183)"/><path d="M78.24363991972747,28.403470213575137L78.6897435142144,8.912384416986065L69.49601961523851,39.3762713951177z" style="fill:rgb(83,212,212)"/><path d="M78.24363991972747,28.403470213575137L81.65849990582952,29.639971800829347L79.38350790261214,24.5738184586303z" style="fill:rgb(242,130,183)"/><path d="M-79.8343086320094,-21.77596310932091L-39.86590270969196,35.92266427297509L-78.02715735540336,-30.710193224055864z" style="fill:rgb(246,149,167)"/><path d="M-29.43037146365586,77.22623933067895L-17.06168507813783,86.21082969832872L-19.845340511407787,81.40301585142451z" style="fill:rgb(51,38,177)"/><path d="M-100.90105763982562,-106.25169272301139L-93.30649115851064,106.55359211196024L-74.64810770008206,-122.94461425683807zM-182.2485386044763,29.061147803968044L-174.08996934646913,-18.846616741953582L-181.05651763936552,5.357829512038702z" style="fill:rgb(83,212,212)"/><path d="M80.53096094624628,33.46526316622128L76.31019560329094,34.89932475672531L78.61850446274443,39.95346623584172zM76.31019560329094,34.89932475672531L80.53096094624628,33.46526316622128L78.24363991972747,28.403470213575137z" style="fill:rgb(242,130,183)"/><path d="M-15.707585114934222,82.22577902458113L-17.06168507813783,86.21082969832872L-12.937352508763261,87.04215929835438z" style="fill:rgb(71,33,192)"/><path d="M182.05529841034277,-7.806961636098L173.76821011995517,-33.09955397113081L180.2601821679438,-13.128097619126644z" style="fill:rgb(246,167,149)"/><path d="M-7.451410226032928,80.92211398711612L-29.43037146365586,77.22623933067895L-19.845340511407787,81.40301585142451z" style="fill:rgb(83,212,212)"/><path d="M-17.06168507813783,86.21082969832872L-15.707585114934222,82.22577902458113L-19.845340511407787,81.40301585142451z" style="fill:rgb(71,33,192)"/><path d="M-114.34777545103543,141.29075759193677L-119.62528770573691,134.87342550773437L-116.33577454637744,139.42208043255275zM23.40557982477153,-80.16386687644533L62.86924280327866,-5.686223630967482L31.158566777998193,-75.8657063369542z" style="fill:rgb(34,46,160)"/><path d="M-6.530793778840712,78.92360520741462L-16.713801515926917,76.93199511587827L-12.191534380897528,78.8801293519442zM-74.64810770008206,-122.94461425683807L-59.16208200854529,107.28689308290544L-46.592966152646994,-136.69400312815281z" style="fill:rgb(83,212,212)"/><path d="M-119.62528770573691,134.87342550773437L-114.34777545103543,141.29075759193677L-117.63577011747618,136.73975230841z" style="fill:rgb(34,46,160)"/><path d="M-8.694338594409826,83.6203091807416L-12.937352508763261,87.04215929835438L-5.94710631518029,88.45115857473904zM-12.937352508763261,87.04215929835438L-8.694338594409826,83.6203091807416L-15.707585114934222,82.22577902458113z" style="fill:rgb(71,33,192)"/><path d="M-7.451410226032928,80.92211398711612L-19.845340511407787,81.40301585142451L-15.707585114934222,82.22577902458113zM70.96078258799882,34.5227050836002L65.88070040639268,43.91123987549001L69.49601961523851,39.3762713951177z" style="fill:rgb(83,212,212)"/><path d="M70.77069151410453,45.20552534584442L78.61850446274443,39.95346623584172L76.31019560329094,34.89932475672531z" style="fill:rgb(233,112,197)"/><path d="M78.24363991972747,28.403470213575137L70.77069151410453,45.20552534584442L76.31019560329094,34.89932475672531z" style="fill:rgb(83,212,212)"/><path d="M78.61850446274443,39.95346623584172L70.77069151410453,45.20552534584442L73.12235013619198,50.24119046546222z" style="fill:rgb(233,112,197)"/><path d="M180.2601821679438,-13.128097619126644L182.9018878262629,-5.203111426865911L182.05529841034277,-7.806961636098z" style="fill:rgb(246,167,149)"/><path d="M4.660915549752103,79.00955213977507L-12.191534380897528,78.8801293519442L-7.451410226032928,80.92211398711612z" style="fill:rgb(83,212,212)"/><path d="M-40.509275940131545,53.3043926911893L-79.8343086320094,-21.77596310932091L-79.37126901155379,-13.3047256018599z" style="fill:rgb(246,167,149)"/><path d="M78.24363991972747,28.403470213575137L62.95397912318838,55.0491228334118L70.77069151410453,45.20552534584442z" style="fill:rgb(83,212,212)"/><path d="M-5.94710631518029,88.45115857473904L3.5796932496968994,83.74166797970666L-8.694338594409826,83.6203091807416zM3.5796932496968994,83.74166797970666L-5.94710631518029,88.45115857473904L6.280381683291084,88.59952567825212z" style="fill:rgb(92,32,204)"/><path d="M182.9018878262629,-5.203111426865911L180.2601821679438,-13.128097619126644L181.10621017271575,-10.525431869450177z" style="fill:rgb(246,167,149)"/><path d="M-46.592966152646994,-136.69400312815281L-22.301183333885408,101.6841264306834L-17.445446721456573,-147.14301975986308z" style="fill:rgb(83,212,212)"/><path d="M-98.36221441606185,156.3168395230255L-117.63577011747618,136.73975230841L-114.34777545103543,141.29075759193677z" style="fill:rgb(34,46,160)"/><path d="M31.158566777998193,-75.8657063369542L68.70754761954731,0.36766579447630665L37.104455206341314,-70.03807819349657z" style="fill:rgb(21,57,142)"/><path d="M78.24363991972747,28.403470213575137L59.313477958118355,58.375920989651284L62.95397912318838,55.0491228334118z" style="fill:rgb(83,212,212)"/><path d="M62.95397912318838,55.0491228334118L73.12235013619198,50.24119046546222L70.77069151410453,45.20552534584442zM73.12235013619198,50.24119046546222L62.95397912318838,55.0491228334118L65.3574821414258,60.06075260988842z" style="fill:rgb(220,94,208)"/><path d="M59.313477958118355,58.375920989651284L78.24363991972747,28.403470213575137L51.23884880398418,62.27762413387549zM-8.694338594409826,83.6203091807416L37.1868139022586,73.87365637548089L-15.707585114934222,82.22577902458113z" style="fill:rgb(83,212,212)"/><path d="M65.3574821414258,60.06075260988842L59.313477958118355,58.375920989651284L61.738574556091,63.37704792487668z" style="fill:rgb(203,77,216)"/><path d="M16.463390978969315,81.72599154464022L6.280381683291084,88.59952567825212L19.109473372434113,86.61391228450506zM6.280381683291084,88.59952567825212L16.463390978969315,81.72599154464022L3.5796932496968994,83.74166797970666z" style="fill:rgb(115,34,214)"/><path d="M-174.08996934646913,-18.846616741953582L-182.2485386044763,29.061147803968044L-177.19777358550832,51.362183941780565zM37.1868139022586,73.87365637548089L-8.694338594409826,83.6203091807416L3.5796932496968994,83.74166797970666z" style="fill:rgb(83,212,212)"/><path d="M59.313477958118355,58.375920989651284L65.3574821414258,60.06075260988842L62.95397912318838,55.0491228334118zM61.738574556091,63.37704792487668L53.16565647790576,63.99398141772326L55.627336585184764,68.97726967445819z" style="fill:rgb(203,77,216)"/><path d="M58.73844279730094,52.870314265092475L45.241265907637484,65.17568463300385L51.23884880398418,62.27762413387549zM28.17256858063779,73.42336426962555L16.396392037737527,77.15649759492642L22.412840990316322,76.20649625813155z" style="fill:rgb(83,212,212)"/><path d="M-37.574229529557066,61.06723908266718L-79.37126901155379,-13.3047256018599L-76.5950868937428,-5.628321159569288z" style="fill:rgb(242,183,130)"/><path d="M49.81306987130482,61.00757240017746L39.47605608639792,67.96146574390507L45.241265907637484,65.17568463300385z" style="fill:rgb(83,212,212)"/><path d="M53.16565647790576,63.99398141772326L61.738574556091,63.37704792487668L59.313477958118355,58.375920989651284z" style="fill:rgb(203,77,216)"/><path d="M-17.445446721456573,-147.14301975986308L15.368780408634272,89.82404225079961L12.055773696199715,-153.96981551681526z" style="fill:rgb(83,212,212)"/><path d="M29.398991406948774,77.63572439617258L19.109473372434113,86.61391228450506L31.985025455312634,82.55555834418037z" style="fill:rgb(139,40,220)"/><path d="M53.16565647790576,63.99398141772326L44.339550626180625,76.58957094122563L55.627336585184764,68.97726967445819z" style="fill:rgb(183,62,221)"/><path d="M37.1868139022586,73.87365637548089L31.985025455312634,82.55555834418037L39.733646191362666,78.81375917328539z" style="fill:rgb(162,50,222)"/><path d="M19.109473372434113,86.61391228450506L29.398991406948774,77.63572439617258L16.463390978969315,81.72599154464022z" style="fill:rgb(139,40,220)"/><path d="M41.81602762514784,71.6374162255417L39.733646191362666,78.81375917328539L44.339550626180625,76.58957094122563z" style="fill:rgb(162,50,222)"/><path d="M182.02636139116385,14.805399740347134L182.9018878262629,-5.203111426865911L181.10621017271575,-10.525431869450177z" style="fill:rgb(246,149,167)"/><path d="M37.1868139022586,73.87365637548089L3.5796932496968994,83.74166797970666L16.463390978969315,81.72599154464022z" style="fill:rgb(83,212,212)"/><path d="M-117.63577011747618,136.73975230841L-98.36221441606185,156.3168395230255L-101.6361165877584,151.74870028261165z" style="fill:rgb(34,46,160)"/><path d="M37.1868139022586,73.87365637548089L59.313477958118355,58.375920989651284L22.412840990316322,76.20649625813155z" style="fill:rgb(83,212,212)"/><path d="M148.76840104878843,-107.25489061117828L181.10621017271575,-10.525431869450177L173.76821011995517,-33.09955397113081z" style="fill:rgb(246,167,149)"/><path d="M44.339550626180625,76.58957094122563L53.16565647790576,63.99398141772326L41.81602762514784,71.6374162255417z" style="fill:rgb(183,62,221)"/><path d="M31.985025455312634,82.55555834418037L37.1868139022586,73.87365637548089L29.398991406948774,77.63572439617258z" style="fill:rgb(162,50,222)"/><path d="M37.104455206341314,-70.03807819349657L72.59794095303101,7.695727540627631L40.96784206552236,-62.86155802398355z" style="fill:rgb(12,71,124)"/><path d="M39.733646191362666,78.81375917328539L41.81602762514784,71.6374162255417L37.1868139022586,73.87365637548089z" style="fill:rgb(162,50,222)"/><path d="M59.313477958118355,58.375920989651284L41.81602762514784,71.6374162255417L53.16565647790576,63.99398141772326zM59.313477958118355,58.375920989651284L37.1868139022586,73.87365637548089L41.81602762514784,71.6374162255417zM37.1868139022586,73.87365637548089L16.463390978969315,81.72599154464022L29.398991406948774,77.63572439617258z" style="fill:rgb(83,212,212)"/><path d="M182.9018878262629,-5.203111426865911L182.02636139116385,14.805399740347134L183.85829647884353,20.118223395907176z" style="fill:rgb(246,149,167)"/><path d="M12.055773696199715,-153.96981551681526L51.786343236851444,72.23726394809866L41.128830844610754,-156.88846512615135zM-161.93216133665166,-42.755020071580645L-177.19777358550832,51.362183941780565L-165.6194639611258,71.27386149256174z" style="fill:rgb(83,212,212)"/><path d="M-74.7371371306312,168.97312647981428L-101.6361165877584,151.74870028261165L-98.36221441606185,156.3168395230255z" style="fill:rgb(51,38,177)"/><path d="M41.128830844610754,-156.88846512615135L84.93802623358631,49.87719671228615L68.93633554084722,-155.6579167194691z" style="fill:rgb(83,212,212)"/><path d="M-101.6361165877584,151.74870028261165L-165.6194639611258,71.27386149256174L-119.62528770573691,134.87342550773437z" style="fill:rgb(34,46,160)"/><path d="M-145.2296040497419,-65.67554734886073L-165.6194639611258,71.27386149256174L-147.4928424611103,87.76393210281982z" style="fill:rgb(83,212,212)"/><path d="M176.72906851813698,38.80285667822795L183.85829647884353,20.118223395907176L182.02636139116385,14.805399740347134z" style="fill:rgb(242,130,183)"/><path d="M68.93633554084722,-155.6579167194691L113.06176968675021,24.02734897852596L94.57870337434369,-150.0998393163401z" style="fill:rgb(83,212,212)"/><path d="M-101.6361165877584,151.74870028261165L-74.7371371306312,168.97312647981428L-77.95768758249703,164.3723495166822z" style="fill:rgb(51,38,177)"/><path d="M183.85829647884353,20.118223395907176L176.72906851813698,38.80285667822795L178.6226361684026,44.08700305222199z" style="fill:rgb(242,130,183)"/><path d="M94.57870337434369,-150.0998393163401L134.81035877214893,-3.8367618969306085L117.09749102041489,-140.12600927683516z" style="fill:rgb(83,212,212)"/><path d="M181.10621017271575,-10.525431869450177L148.76840104878843,-107.25489061117828L155.9830249452849,-84.98954378468537z" style="fill:rgb(246,167,149)"/><path d="M178.6226361684026,44.08700305222199L176.04083375356183,41.92070911066951L177.9424825292822,47.20079287174449z" style="fill:rgb(242,130,183)"/><path d="M181.10621017271575,-10.525431869450177L156.35120180748717,-59.655481231333155L182.02636139116385,14.805399740347134z" style="fill:rgb(246,149,167)"/><path d="M-124.65759166803971,-87.01249692166876L-147.4928424611103,87.76393210281982L-123.14285859412347,99.82227578489129z" style="fill:rgb(83,212,212)"/><path d="M176.04083375356183,41.92070911066951L178.6226361684026,44.08700305222199L176.72906851813698,38.80285667822795z" style="fill:rgb(242,130,183)"/><path d="M-74.7371371306312,168.97312647981428L-52.62886435071298,171.00409861874732L-77.95768758249703,164.3723495166822z" style="fill:rgb(71,33,192)"/><path d="M117.09749102041489,-140.12600927683516L149.34524947931703,-32.20171835978249L135.49402651846427,-125.77487442084693z" style="fill:rgb(83,212,212)"/><path d="M-52.62886435071298,171.00409861874732L-74.7371371306312,168.97312647981428L-49.4893315491264,175.64673999834372z" style="fill:rgb(71,33,192)"/><path d="M-77.95768758249703,164.3723495166822L-147.4928424611103,87.76393210281982L-101.6361165877584,151.74870028261165z" style="fill:rgb(51,38,177)"/><path d="M164.49968739257798,66.4416363373456L177.9424825292822,47.20079287174449L176.04083375356183,41.92070911066951zM177.9424825292822,47.20079287174449L164.49968739257798,66.4416363373456L166.4932030592841,71.67329876510463z" style="fill:rgb(233,112,197)"/><path d="M-49.34397142431895,171.86417274474758L-49.4893315491264,175.64673999834372L-46.21527346927776,176.51215778169959zM-49.4893315491264,175.64673999834372L-49.34397142431895,171.86417274474758L-52.62886435071298,171.00409861874732z" style="fill:rgb(71,33,192)"/><path d="M-100.90105763982562,-106.25169272301139L-123.14285859412347,99.82227578489129L-93.30649115851064,106.55359211196024z" style="fill:rgb(83,212,212)"/><path d="M-45.73537983464762,172.05254758213718L-46.21527346927776,176.51215778169959L-42.62064096403158,176.70748819217954z" style="fill:rgb(92,32,204)"/><path d="M-165.6194639611258,71.27386149256174L-101.6361165877584,151.74870028261165L-147.4928424611103,87.76393210281982z" style="fill:rgb(34,46,160)"/><path d="M-46.21527346927776,176.51215778169959L-45.73537983464762,172.05254758213718L-49.34397142431895,171.86417274474758z" style="fill:rgb(92,32,204)"/><path d="M156.35120180748717,-59.655481231333155L181.10621017271575,-10.525431869450177L155.9830249452849,-84.98954378468537z" style="fill:rgb(246,149,167)"/><path d="M166.4932030592841,71.67329876510463L163.00464398966324,69.61805641605567L165.01020017153127,74.84315150592467zM163.00464398966324,69.61805641605567L166.4932030592841,71.67329876510463L164.49968739257798,66.4416363373456z" style="fill:rgb(233,112,197)"/><path d="M135.49402651846427,-125.77487442084693L149.34524947931703,-32.20171835978249L148.76840104878843,-107.25489061117828z" style="fill:rgb(83,212,212)"/><path d="M-42.62064096403158,176.70748819217954L-16.941554710553817,173.55561441585482L-45.73537983464762,172.05254758213718z" style="fill:rgb(92,32,204)"/><path d="M182.02636139116385,14.805399740347134L149.34524947931703,-32.20171835978249L176.04083375356183,41.92070911066951z" style="fill:rgb(242,130,183)"/><path d="M-16.941554710553817,173.55561441585482L-42.62064096403158,176.70748819217954L-13.940567015583273,178.26592050797765z" style="fill:rgb(92,32,204)"/><path d="M145.46365991910346,93.44925248099841L165.01020017153127,74.84315150592467L163.00464398966324,69.61805641605567z" style="fill:rgb(220,94,208)"/><path d="M-74.64810770008206,-122.94461425683807L-93.30649115851064,106.55359211196024L-59.16208200854529,107.28689308290544z" style="fill:rgb(83,212,212)"/><path d="M165.01020017153127,74.84315150592467L145.46365991910346,93.44925248099841L147.58939652011605,98.60904428864308z" style="fill:rgb(220,94,208)"/><path d="M148.76840104878843,-107.25489061117828L156.35120180748717,-59.655481231333155L155.9830249452849,-84.98954378468537z" style="fill:rgb(83,212,212)"/><path d="M147.58939652011605,98.60904428864308L143.20009004621355,96.5245256372827L145.34150432906392,101.67565976316705zM143.20009004621355,96.5245256372827L147.58939652011605,98.60904428864308L145.46365991910346,93.44925248099841z" style="fill:rgb(220,94,208)"/><path d="M-13.940567015583273,178.26592050797765L17.744347657374064,169.09029629320793L-16.941554710553817,173.55561441585482z" style="fill:rgb(115,34,214)"/><path d="M-93.30649115851064,106.55359211196024L-77.95768758249703,164.3723495166822L-49.34397142431895,171.86417274474758z" style="fill:rgb(71,33,192)"/><path d="M17.744347657374064,169.09029629320793L-13.940567015583273,178.26592050797765L20.58815430270327,173.87710257892178z" style="fill:rgb(115,34,214)"/><path d="M-46.592966152646994,-136.69400312815281L-59.16208200854529,107.28689308290544L-22.301183333885408,101.6841264306834z" style="fill:rgb(83,212,212)"/><path d="M120.32124380691735,118.38801263564436L145.34150432906392,101.67565976316705L143.20009004621355,96.5245256372827z" style="fill:rgb(203,77,216)"/><path d="M-147.4928424611103,87.76393210281982L-77.95768758249703,164.3723495166822L-123.14285859412347,99.82227578489129z" style="fill:rgb(51,38,177)"/><path d="M145.34150432906392,101.67565976316705L120.32124380691735,118.38801263564436L122.60613686122105,123.46164777391017z" style="fill:rgb(203,77,216)"/><path d="M149.34524947931703,-32.20171835978249L182.02636139116385,14.805399740347134L156.35120180748717,-59.655481231333155z" style="fill:rgb(242,130,183)"/><path d="M176.04083375356183,41.92070911066951L134.81035877214893,-3.8367618969306085L163.00464398966324,69.61805641605567z" style="fill:rgb(233,112,197)"/><path d="M122.60613686122105,123.46164777391017L117.38223903212493,121.19658562288666L119.68571291372471,126.26012194972314z" style="fill:rgb(203,77,216)"/><path d="M117.38223903212493,121.19658562288666L116.26251999186816,128.61733952886107L119.68571291372471,126.26012194972314z" style="fill:rgb(183,62,221)"/><path d="M48.94761315271737,159.70412170354274L20.58815430270327,173.87710257892178L51.634768547131536,164.5687610976763zM20.58815430270327,173.87710257892178L48.94761315271737,159.70412170354274L17.744347657374064,169.09029629320793z" style="fill:rgb(139,40,220)"/><path d="M117.38223903212493,121.19658562288666L122.60613686122105,123.46164777391017L120.32124380691735,118.38801263564436z" style="fill:rgb(203,77,216)"/><path d="M113.93897678677054,123.56438374547228L89.24822958684527,147.21948663741986L116.26251999186816,128.61733952886107z" style="fill:rgb(183,62,221)"/><path d="M117.09749102041489,-140.12600927683516L134.81035877214893,-3.8367618969306085L149.34524947931703,-32.20171835978249z" style="fill:rgb(83,212,212)"/><path d="M116.26251999186816,128.61733952886107L117.38223903212493,121.19658562288666L113.93897678677054,123.56438374547228z" style="fill:rgb(183,62,221)"/><path d="M-17.445446721456573,-147.14301975986308L-22.301183333885408,101.6841264306834L15.368780408634272,89.82404225079961z" style="fill:rgb(83,212,212)"/><path d="M52.94317037934283,158.50223699067547L51.634768547131536,164.5687610976763L55.61012737956483,163.37688319928006z" style="fill:rgb(139,40,220)"/><path d="M148.76840104878843,-107.25489061117828L149.34524947931703,-32.20171835978249L156.35120180748717,-59.655481231333155z" style="fill:rgb(83,212,212)"/><path d="M86.76566070429301,142.2504730645967L55.61012737956483,163.37688319928006L89.24822958684527,147.21948663741986z" style="fill:rgb(162,50,222)"/><path d="M51.634768547131536,164.5687610976763L52.94317037934283,158.50223699067547L48.94761315271737,159.70412170354274z" style="fill:rgb(139,40,220)"/><path d="M89.24822958684527,147.21948663741986L113.93897678677054,123.56438374547228L86.76566070429301,142.2504730645967z" style="fill:rgb(183,62,221)"/><path d="M55.61012737956483,163.37688319928006L86.76566070429301,142.2504730645967L52.94317037934283,158.50223699067547z" style="fill:rgb(162,50,222)"/><path d="M94.57870337434369,-150.0998393163401L113.06176968675021,24.02734897852596L134.81035877214893,-3.8367618969306085zM12.055773696199715,-153.96981551681526L15.368780408634272,89.82404225079961L51.786343236851444,72.23726394809866zM68.93633554084722,-155.6579167194691L84.93802623358631,49.87719671228615L113.06176968675021,24.02734897852596z" style="fill:rgb(83,212,212)"/><path d="M-59.16208200854529,107.28689308290544L-49.34397142431895,171.86417274474758L-16.941554710553817,173.55561441585482z" style="fill:rgb(92,32,204)"/><path d="M41.128830844610754,-156.88846512615135L51.786343236851444,72.23726394809866L84.93802623358631,49.87719671228615z" style="fill:rgb(83,212,212)"/><path d="M-77.95768758249703,164.3723495166822L-93.30649115851064,106.55359211196024L-123.14285859412347,99.82227578489129z" style="fill:rgb(71,33,192)"/><path d="M163.00464398966324,69.61805641605567L113.06176968675021,24.02734897852596L143.20009004621355,96.5245256372827z" style="fill:rgb(220,94,208)"/><path d="M134.81035877214893,-3.8367618969306085L176.04083375356183,41.92070911066951L149.34524947931703,-32.20171835978249z" style="fill:rgb(233,112,197)"/><path d="M-22.301183333885408,101.6841264306834L-16.941554710553817,173.55561441585482L17.744347657374064,169.09029629320793z" style="fill:rgb(115,34,214)"/><path d="M143.20009004621355,96.5245256372827L84.93802623358631,49.87719671228615L117.38223903212493,121.19658562288666z" style="fill:rgb(203,77,216)"/><path d="M-49.34397142431895,171.86417274474758L-59.16208200854529,107.28689308290544L-93.30649115851064,106.55359211196024z" style="fill:rgb(92,32,204)"/><path d="M84.93802623358631,49.87719671228615L86.76566070429301,142.2504730645967L117.38223903212493,121.19658562288666z" style="fill:rgb(183,62,221)"/><path d="M15.368780408634272,89.82404225079961L17.744347657374064,169.09029629320793L52.94317037934283,158.50223699067547z" style="fill:rgb(139,40,220)"/><path d="M51.786343236851444,72.23726394809866L52.94317037934283,158.50223699067547L86.76566070429301,142.2504730645967z" style="fill:rgb(162,50,222)"/><path d="M113.06176968675021,24.02734897852596L163.00464398966324,69.61805641605567L134.81035877214893,-3.8367618969306085z" style="fill:rgb(220,94,208)"/><path d="M-16.941554710553817,173.55561441585482L-22.301183333885408,101.6841264306834L-59.16208200854529,107.28689308290544z" style="fill:rgb(115,34,214)"/><path d="M84.93802623358631,49.87719671228615L143.20009004621355,96.5245256372827L113.06176968675021,24.02734897852596z" style="fill:rgb(203,77,216)"/><path d="M17.744347657374064,169.09029629320793L15.368780408634272,89.82404225079961L-22.301183333885408,101.6841264306834z" style="fill:rgb(139,40,220)"/><path d="M86.76566070429301,142.2504730645967L84.93802623358631,49.87719671228615L51.786343236851444,72.23726394809866z" style="fill:rgb(183,62,221)"/><path d="M52.94317037934283,158.50223699067547L51.786343236851444,72.23726394809866L15.368780408634272,89.82404225079961z" style="fill:rgb(162,50,222)"/></svg>
