<?xml version="1.0" encoding="UTF-8"?>
<!-- Generated by jsxcad -->
<!DOCTYPE svg PUBLIC "-//W3C//DTD SVG 1.1 Tiny//EN" "http://www.w3.org/Graphics/SVG/1.1/DTD/svg11-tiny.dtd">
<svg viewBox="-250 -250 500 500" width="500" height="500" xmlns="http://www.w3.org/2000/svg"><path d="M-23.156609644372466,-58.14300847047904L-34.11486670072314,-46.79927430774341L-20.710416069575487,-53.33263874977968z" style="fill:rgb(162,50,222)"/><path d="M-36.61901214604553,-51.579142078014435L-44.644159219504374,-39.95559366977937L-34.11486670072314,-46.79927430774341z" style="fill:rgb(183,62,221)"/><path d="M-11.751788695339032,-63.70366203915867L-20.710416069575487,-53.33263874977968L-9.354723489461955,-58.86743622954731zM-34.11486670072314,-46.79927430774341L-23.156609644372466,-58.14300847047904L-36.61901214604553,-51.579142078014435zM-20.710416069575487,-53.33263874977968L-11.751788695339032,-63.70366203915867L-23.156609644372466,-58.14300847047904z" style="fill:rgb(162,50,222)"/><path d="M-47.19828418705253,-44.71235863168647L-57.12134376475149,-31.845852649300724L-44.644159219504374,-39.95559366977937z" style="fill:rgb(183,62,221)"/><path d="M2.273029542355294,-68.52001727436357L-9.354723489461955,-58.86743622954731L4.614476012041903,-63.650757376988985z" style="fill:rgb(139,40,220)"/><path d="M-44.644159219504374,-39.95559366977937L-36.61901214604553,-51.579142078014435L-47.19828418705253,-44.71235863168647z" style="fill:rgb(183,62,221)"/><path d="M-9.354723489461955,-58.86743622954731L2.273029542355294,-68.52001727436357L-11.751788695339032,-63.70366203915867z" style="fill:rgb(139,40,220)"/><path d="M-57.12134376475149,-31.845852649300724L-47.19828418705253,-44.71235863168647L-59.73486980551993,-36.57513419596288z" style="fill:rgb(183,62,221)"/><path d="M14.200390412262456,-72.61606634728307L4.614476012041903,-63.650757376988985L16.49429769815297,-67.71863194234629z" style="fill:rgb(139,40,220)"/><path d="M-57.12134376475149,-31.845852649300724L-69.19790981233315,-28.581063163554276L-66.534393719166,-23.871857517544097z" style="fill:rgb(203,77,216)"/><path d="M4.614476012041903,-63.650757376988985L14.200390412262456,-72.61606634728307L2.273029542355294,-68.52001727436357z" style="fill:rgb(139,40,220)"/><path d="M-69.19790981233315,-28.581063163554276L-57.12134376475149,-31.845852649300724L-59.73486980551993,-36.57513419596288z" style="fill:rgb(203,77,216)"/><path d="M16.49429769815297,-67.71863194234629L28.411111118688883,-75.53595332994648L14.200390412262456,-72.61606634728307zM28.411111118688883,-75.53595332994648L16.49429769815297,-67.71863194234629L30.65255659276319,-70.60367067071435z" style="fill:rgb(115,34,214)"/><path d="M-66.534393719166,-23.871857517544097L-80.45447285946776,-19.071883832230416L-77.73114718854428,-14.386851288592705zM-80.45447285946776,-19.071883832230416L-66.534393719166,-23.871857517544097L-69.19790981233315,-28.581063163554276z" style="fill:rgb(203,77,216)"/><path d="M40.541943764096445,-78.02848583225892L30.65255659276319,-70.60367067071435L42.738162365339726,-73.06636489460959zM30.65255659276319,-70.60367067071435L40.541943764096445,-78.02848583225892L28.411111118688883,-75.53595332994648z" style="fill:rgb(115,34,214)"/><path d="M-88.5205770434755,-10.152630092893574L-77.73114718854428,-14.386851288592705L-80.45447285946776,-19.071883832230416zM-77.73114718854428,-14.386851288592705L-88.5205770434755,-10.152630092893574L-85.74826647918016,-5.484510236369203z" style="fill:rgb(220,94,208)"/><path d="M42.738162365339726,-73.06636489460959L54.54447009845158,-78.92916886979182L40.541943764096445,-78.02848583225892zM54.54447009845158,-78.92916886979182L42.738162365339726,-73.06636489460959L56.69224345817541,-73.93137019233839z" style="fill:rgb(92,32,204)"/><path d="M-98.15015564197161,0.49546306033700016L-85.74826647918016,-5.484510236369203L-88.5205770434755,-10.152630092893574zM-85.74826647918016,-5.484510236369203L-98.15015564197161,0.49546306033700016L-95.31891438672471,5.142891066273898z" style="fill:rgb(220,94,208)"/><path d="M56.69224345817541,-73.93137019233839L66.53968453366527,-79.70073124474455L54.54447009845158,-78.92916886979182zM66.53968453366527,-79.70073124474455L56.69224345817541,-73.93137019233839L68.64532748373738,-74.67233079653522z" style="fill:rgb(92,32,204)"/><path d="M-104.54871022061297,10.11019544659039L-95.31891438672471,5.142891066273898L-98.15015564197161,0.49546306033700016zM-95.31891438672471,5.142891066273898L-104.54871022061297,10.11019544659039L-101.67074557998797,14.743938357627652z" style="fill:rgb(233,112,197)"/><path d="M68.64532748373738,-74.67233079653522L79.91875893778158,-78.49014510175452L66.53968453366527,-79.70073124474455zM79.91875893778158,-78.49014510175452L68.64532748373738,-74.67233079653522L81.98095982067728,-73.42651214088978z" style="fill:rgb(71,33,192)"/><path d="M-112.21284988927583,21.626642231113767L-101.67074557998797,14.743938357627652L-104.54871022061297,10.11019544659039zM-101.67074557998797,14.743938357627652L-112.21284988927583,21.626642231113767L-109.27844426275091,26.243273351620985z" style="fill:rgb(233,112,197)"/><path d="M81.98095982067728,-73.42651214088978L91.41638044306103,-77.44980170090166L79.91875893778158,-78.49014510175452zM91.41638044306103,-77.44980170090166L81.98095982067728,-73.42651214088978L93.44047168460801,-72.35596385964536z" style="fill:rgb(71,33,192)"/><path d="M-116.68695517838134,31.674695255373475L-109.27844426275091,26.243273351620985L-112.21284988927583,21.626642231113767zM-109.27844426275091,26.243273351620985L-116.68695517838134,31.674695255373475L-113.70962328571746,36.28091219600655z" style="fill:rgb(242,130,183)"/><path d="M105.7214012885877,-68.94783870481399L91.41638044306103,-77.44980170090166L93.44047168460801,-72.35596385964536z" style="fill:rgb(51,38,177)"/><path d="M-122.06155900707385,43.74514621844653L-113.70962328571746,36.28091219600655L-116.68695517838134,31.674695255373475z" style="fill:rgb(242,130,183)"/><path d="M91.41638044306103,-77.44980170090166L105.7214012885877,-68.94783870481399L103.73455561982564,-74.07490230496518z" style="fill:rgb(51,38,177)"/><path d="M-113.70962328571746,36.28091219600655L-122.06155900707385,43.74514621844653L-119.03226733764116,48.33792696611748z" style="fill:rgb(242,130,183)"/><path d="M116.30328642444752,-66.01122409491698L103.73455561982564,-74.07490230496518L105.7214012885877,-68.94783870481399z" style="fill:rgb(51,38,177)"/><path d="M-124.3761151455928,53.92769567288921L-119.03226733764116,48.33792696611748L-122.06155900707385,43.74514621844653z" style="fill:rgb(246,149,167)"/><path d="M103.73455561982564,-74.07490230496518L116.30328642444752,-66.01122409491698L114.34939806976496,-71.16667988464033z" style="fill:rgb(51,38,177)"/><path d="M-119.03226733764116,48.33792696611748L-124.3761151455928,53.92769567288921L-121.30955019891492,58.51341306929041z" style="fill:rgb(246,149,167)"/><path d="M127.07475213448016,-60.4407363603153L114.34939806976496,-71.16667988464033L116.30328642444752,-66.01122409491698z" style="fill:rgb(34,46,160)"/><path d="M-21.19481833078507,-2.244570055936481L15.086609720049443,-12.173792570935971L-14.462524443458275,-6.6697946464017zM-9.928526005605507,-9.650051225986061L25.957718724962966,-14.198710011250665L-2.6501682775092297,-13.187602961598587zM25.957718724962966,-14.198710011250665L-9.928526005605507,-9.650051225986061L-14.462524443458275,-6.6697946464017zM15.086609720049443,-12.173792570935971L-21.19481833078507,-2.244570055936481L-25.201762593236264,1.2324192297556846z" style="fill:rgb(83,212,212)"/><path d="M4.2964362280651285,-8.583293434754816L-3.5244165938861896,1.3117222037592002L6.774393790272851,-3.689837635553926z" style="fill:rgb(162,50,222)"/><path d="M-6.049861754982226,-3.556912205689697L-13.031270018781386,7.580762690401064L-3.5244165938861896,1.3117222037592002z" style="fill:rgb(183,62,221)"/><path d="M-31.162499110821095,6.404792521440408L4.2964362280651285,-8.583293434754816L-25.201762593236264,1.2324192297556846z" style="fill:rgb(83,212,212)"/><path d="M15.086609720049443,-12.173792570935971L6.774393790272851,-3.689837635553926L17.518869516336295,-7.254333391674068z" style="fill:rgb(139,40,220)"/><path d="M36.5383712509439,-14.572668286254135L2.2609320450651142,-15.574580176935257L-2.6501682775092297,-13.187602961598587z" style="fill:rgb(83,212,212)"/><path d="M-3.5244165938861896,1.3117222037592002L4.2964362280651285,-8.583293434754816L-6.049861754982226,-3.556912205689697z" style="fill:rgb(162,50,222)"/><path d="M-127.16315687762153,66.18889016884737L-121.30955019891492,58.51341306929041L-124.3761151455928,53.92769567288921z" style="fill:rgb(246,149,167)"/><path d="M4.2964362280651285,-8.583293434754816L-31.162499110821095,6.404792521440408L-34.5051523492983,10.267080862403398zM2.2609320450651142,-15.574580176935257L36.5383712509439,-14.572668286254135L9.846424553361647,-18.108932110320026z" style="fill:rgb(83,212,212)"/><path d="M-13.031270018781386,7.580762690401064L-6.049861754982226,-3.556912205689697L-15.604625167215994,2.735040800772479z" style="fill:rgb(183,62,221)"/><path d="M6.774393790272851,-3.689837635553926L15.086609720049443,-12.173792570935971L4.2964362280651285,-8.583293434754816z" style="fill:rgb(139,40,220)"/><path d="M114.34939806976496,-71.16667988464033L127.07475213448016,-60.4407363603153L125.15046307239786,-65.62560681139817z" style="fill:rgb(34,46,160)"/><path d="M-13.031270018781386,7.580762690401064L-24.04200415801718,10.085038694798614L-21.421739575668532,14.910378728723328z" style="fill:rgb(203,77,216)"/><path d="M-39.48634798912114,16.022631961560904L-6.049861754982226,-3.556912205689697L-34.5051523492983,10.267080862403398z" style="fill:rgb(83,212,212)"/><path d="M-121.30955019891492,58.51341306929041L-127.16315687762153,66.18889016884737L-124.0514650224878,70.76500884180959z" style="fill:rgb(246,149,167)"/><path d="M-24.04200415801718,10.085038694798614L-13.031270018781386,7.580762690401064L-15.604625167215994,2.735040800772479z" style="fill:rgb(203,77,216)"/><path d="M25.957718724962966,-14.198710011250665L17.518869516336295,-7.254333391674068L28.34738742568028,-9.252902352803492z" style="fill:rgb(115,34,214)"/><path d="M46.45643381068787,-13.258681016194387L14.97446636243768,-19.822236332828236L9.846424553361647,-18.108932110320026z" style="fill:rgb(83,212,212)"/><path d="M17.518869516336295,-7.254333391674068L25.957718724962966,-14.198710011250665L15.086609720049443,-12.173792570935971z" style="fill:rgb(115,34,214)"/><path d="M-6.049861754982226,-3.556912205689697L-39.48634798912114,16.022631961560904L-42.04310373822492,20.14516962770376zM14.97446636243768,-19.822236332828236L46.45643381068787,-13.258681016194387L22.618411825743976,-21.264615358551772z" style="fill:rgb(83,212,212)"/><path d="M-21.421739575668532,14.910378728723328L-31.064729425720877,18.251669578344124L-28.40004134493508,23.05968397848613zM-31.064729425720877,18.251669578344124L-21.421739575668532,14.910378728723328L-24.04200415801718,10.085038694798614z" style="fill:rgb(220,94,208)"/><path d="M-45.859133799480524,26.298175478619697L-15.604625167215994,2.735040800772479L-42.04310373822492,20.14516962770376z" style="fill:rgb(83,212,212)"/><path d="M136.37606186325067,-55.630540302683144L125.15046307239786,-65.62560681139817L127.07475213448016,-60.4407363603153z" style="fill:rgb(34,46,160)"/><path d="M28.34738742568028,-9.252902352803492L36.5383712509439,-14.572668286254135L25.957718724962966,-14.198710011250665zM36.5383712509439,-14.572668286254135L28.34738742568028,-9.252902352803492L38.88982760934905,-9.601102215467368z" style="fill:rgb(92,32,204)"/><path d="M55.3481781372852,-10.272413576926834L27.79538275565747,-22.241486154722477L22.618411825743976,-21.264615358551772z" style="fill:rgb(83,212,212)"/><path d="M-127.16315687762153,66.18889016884737L-123.97701126561924,80.74097205041511L-124.0514650224878,70.76500884180959z" style="fill:rgb(246,167,149)"/><path d="M-15.604625167215994,2.735040800772479L-45.859133799480524,26.298175478619697L-47.52755390237205,30.543849539613475zM27.79538275565747,-22.241486154722477L55.3481781372852,-10.272413576926834L35.24310584475699,-22.532071481071373z" style="fill:rgb(83,212,212)"/><path d="M-36.41160260985275,26.963313807850426L-28.40004134493508,23.05968397848613L-31.064729425720877,18.251669578344124zM-28.40004134493508,23.05968397848613L-36.41160260985275,26.963313807850426L-33.70650016469371,31.757496062496053z" style="fill:rgb(233,112,197)"/><path d="M125.15046307239786,-65.62560681139817L136.37606186325067,-55.630540302683144L134.4782015575927,-60.840361627915215z" style="fill:rgb(34,46,160)"/><path d="M38.88982760934905,-9.601102215467368L46.45643381068787,-13.258681016194387L36.5383712509439,-14.572668286254135z" style="fill:rgb(71,33,192)"/><path d="M-50.02104821642811,36.88912090915227L-24.04200415801718,10.085038694798614L-47.52755390237205,30.543849539613475z" style="fill:rgb(83,212,212)"/><path d="M46.45643381068787,-13.258681016194387L38.88982760934905,-9.601102215467368L48.77528583957342,-8.262956582977791z" style="fill:rgb(71,33,192)"/><path d="M-123.97701126561924,80.74097205041511L-127.16315687762153,66.18889016884737L-127.11822339473011,76.1683964766938z" style="fill:rgb(246,167,149)"/><path d="M62.86924280327866,-5.686223630967482L40.295689649520206,-22.729206054981447L35.24310584475699,-22.532071481071373zM-24.04200415801718,10.085038694798614L-50.02104821642811,36.88912090915227L-50.722071265881844,41.11091531584182z" style="fill:rgb(83,212,212)"/><path d="M-39.86590270969196,35.92266427297509L-33.70650016469371,31.757496062496053L-36.41160260985275,26.963313807850426z" style="fill:rgb(242,130,183)"/><path d="M40.295689649520206,-22.729206054981447L62.86924280327866,-5.686223630967482L47.290869027842554,-21.83984644310206z" style="fill:rgb(83,212,212)"/><path d="M145.17465716906023,-47.964441897122484L134.4782015575927,-60.840361627915215L136.37606186325067,-55.630540302683144z" style="fill:rgb(21,57,142)"/><path d="M-33.70650016469371,31.757496062496053L-39.86590270969196,35.92266427297509L-37.125941209701224,40.70687665483025z" style="fill:rgb(242,130,183)"/><path d="M57.641209740698216,-5.255182577377355L46.45643381068787,-13.258681016194387L48.77528583957342,-8.262956582977791z" style="fill:rgb(51,38,177)"/><path d="M-127.11822339473011,76.1683964766938L-123.88721435932985,92.77331080604364L-123.97701126561924,80.74097205041511z" style="fill:rgb(246,167,149)"/><path d="M46.45643381068787,-13.258681016194387L57.641209740698216,-5.255182577377355L55.3481781372852,-10.272413576926834z" style="fill:rgb(51,38,177)"/><path d="M-50.722071265881844,41.11091531584182L-51.453617006986086,51.471230255199025L-31.064729425720877,18.251669578344124zM68.70754761954731,0.36766579447630665L52.0435259568413,-21.23559875356569L47.290869027842554,-21.83984644310206z" style="fill:rgb(83,212,212)"/><path d="M134.4782015575927,-60.840361627915215L145.17465716906023,-47.964441897122484L143.2970183441918,-53.19791195708125z" style="fill:rgb(21,57,142)"/><path d="M-28.40004134493508,23.05968397848613L-22.700602414805182,77.95445510910015L-21.421739575668532,14.910378728723328zM-21.421739575668532,14.910378728723328L-13.952905998767443,81.74984297419043L-13.031270018781386,7.580762690401064zM-33.70650016469371,31.757496062496053L-29.721333638965145,72.56975462919178L-28.40004134493508,23.05968397848613z" style="fill:rgb(83,212,212)"/><path d="M-30.16525733651654,-76.63803598171219L-6.049861754982226,-3.556912205689697L4.2964362280651285,-8.583293434754816z" style="fill:rgb(162,50,222)"/><path d="M-13.031270018781386,7.580762690401064L-3.8031806394289283,83.7626913113231L-3.5244165938861896,1.3117222037592002z" style="fill:rgb(83,212,212)"/><path d="M-41.17126976518426,-71.26509819053899L-15.604625167215994,2.735040800772479L-6.049861754982226,-3.556912205689697z" style="fill:rgb(183,62,221)"/><path d="M-41.26478745726546,44.81266963627676L-37.125941209701224,40.70687665483025L-39.86590270969196,35.92266427297509z" style="fill:rgb(246,149,167)"/><path d="M-37.125941209701224,40.70687665483025L-34.777505585100805,65.8474808436333L-33.70650016469371,31.757496062496053z" style="fill:rgb(83,212,212)"/><path d="M-123.88721435932985,92.77331080604364L-127.11822339473011,76.1683964766938L-127.06402651905185,88.20620485662343z" style="fill:rgb(246,167,149)"/><path d="M52.0435259568413,-21.23559875356569L68.70754761954731,0.36766579447630665L58.333622164095736,-19.172981253979685z" style="fill:rgb(83,212,212)"/><path d="M-18.7440163566127,-80.59917828467121L4.2964362280651285,-8.583293434754816L15.086609720049443,-12.173792570935971z" style="fill:rgb(139,40,220)"/><path d="M-37.125941209701224,40.70687665483025L-41.26478745726546,44.81266963627676L-38.497029530697844,49.59108085223881z" style="fill:rgb(246,149,167)"/><path d="M65.1443313711307,-0.6511812189101103L55.3481781372852,-10.272413576926834L57.641209740698216,-5.255182577377355z" style="fill:rgb(34,46,160)"/><path d="M-3.5244165938861896,1.3117222037592002L7.346181491294608,83.8734097981443L6.774393790272851,-3.689837635553926zM-37.72219948315281,58.081419521588145L-37.125941209701224,40.70687665483025L-38.497029530697844,49.59108085223881z" style="fill:rgb(83,212,212)"/><path d="M-15.604625167215994,2.735040800772479L-60.49277537415935,-57.040803862992206L-24.04200415801718,10.085038694798614z" style="fill:rgb(203,77,216)"/><path d="M6.774393790272851,-3.689837635553926L19.032100428246057,82.0478038192378L17.518869516336295,-7.254333391674068zM-51.453617006986086,51.471230255199025L-50.722071265881844,41.11091531584182L-51.7708711857553,47.427156945750454z" style="fill:rgb(83,212,212)"/><path d="M-7.288471808079644,-83.00707524491654L15.086609720049443,-12.173792570935971L25.957718724962966,-14.198710011250665z" style="fill:rgb(115,34,214)"/><path d="M152.78375952667508,-41.33472899798844L143.2970183441918,-53.19791195708125L145.17465716906023,-47.964441897122484z" style="fill:rgb(21,57,142)"/><path d="M-50.97862916654094,57.52599025613404L-36.41160260985275,26.963313807850426L-51.453617006986086,51.471230255199025z" style="fill:rgb(83,212,212)"/><path d="M55.3481781372852,-10.272413576926834L65.1443313711307,-0.6511812189101103L62.86924280327866,-5.686223630967482z" style="fill:rgb(34,46,160)"/><path d="M17.518869516336295,-7.254333391674068L30.75384337358864,78.34369806899457L28.34738742568028,-9.252902352803492z" style="fill:rgb(83,212,212)"/><path d="M-127.06402651905185,88.20620485662343L-121.31745470844226,102.17572599188566L-123.88721435932985,92.77331080604364z" style="fill:rgb(242,183,130)"/><path d="M-41.26478745726546,44.81266963627676L-37.72219948315281,58.081419521588145L-38.497029530697844,49.59108085223881z" style="fill:rgb(246,167,149)"/><path d="M72.59794095303101,7.695727540627631L62.61254276975822,-17.769857815477433L58.333622164095736,-19.172981253979685z" style="fill:rgb(83,212,212)"/><path d="M-24.04200415801718,10.085038694798614L-68.14484159985078,-48.653592407659374L-31.064729425720877,18.251669578344124z" style="fill:rgb(220,94,208)"/><path d="M-37.125941209701224,40.70687665483025L-37.72219948315281,58.081419521588145L-34.777505585100805,65.8474808436333zM-36.41160260985275,26.963313807850426L-50.97862916654094,57.52599025613404L-49.625507603840944,61.23595044342356z" style="fill:rgb(83,212,212)"/><path d="M3.812661635567285,-83.76297978064335L25.957718724962966,-14.198710011250665L36.5383712509439,-14.572668286254135z" style="fill:rgb(92,32,204)"/><path d="M28.34738742568028,-9.252902352803492L42.00067318585268,72.91111053048651L38.88982760934905,-9.601102215467368z" style="fill:rgb(83,212,212)"/><path d="M143.2970183441918,-53.19791195708125L152.78375952667508,-41.33472899798844L150.92441576997845,-46.58797168407739zM70.9735360610025,5.415863606744356L62.86924280327866,-5.686223630967482L65.1443313711307,-0.6511812189101103z" style="fill:rgb(21,57,142)"/><path d="M62.61254276975822,-17.769857815477433L72.59794095303101,7.695727540627631L67.95569943296367,-14.578839942830227z" style="fill:rgb(83,212,212)"/><path d="M-37.72219948315281,58.081419521588145L-41.26478745726546,44.81266963627676L-40.509275940131545,53.3043926911893z" style="fill:rgb(246,167,149)"/><path d="M-121.31745470844226,102.17572599188566L-127.06402651905185,88.20620485662343L-124.5137727676817,97.60834189963518z" style="fill:rgb(242,183,130)"/><path d="M-33.70650016469371,31.757496062496053L-34.777505585100805,65.8474808436333L-29.721333638965145,72.56975462919178zM38.88982760934905,-9.601102215467368L42.00067318585268,72.91111053048651L48.77528583957342,-8.262956582977791z" style="fill:rgb(83,212,212)"/><path d="M-31.064729425720877,18.251669578344124L-74.0691692352674,-39.77618211495066L-36.41160260985275,26.963313807850426z" style="fill:rgb(233,112,197)"/><path d="M62.86924280327866,-5.686223630967482L70.9735360610025,5.415863606744356L68.70754761954731,0.36766579447630665z" style="fill:rgb(21,57,142)"/><path d="M-47.5988841541286,66.79251655001237L-39.86590270969196,35.92266427297509L-49.625507603840944,61.23595044342356z" style="fill:rgb(83,212,212)"/><path d="M14.170562416863332,-82.81519890003356L36.5383712509439,-14.572668286254135L46.45643381068787,-13.258681016194387z" style="fill:rgb(71,33,192)"/><path d="M159.1556589461885,-31.723857203206855L150.92441576997845,-46.58797168407739L152.78375952667508,-41.33472899798844z" style="fill:rgb(12,71,124)"/><path d="M-40.509275940131545,53.3043926911893L-34.777505585100805,65.8474808436333L-37.72219948315281,58.081419521588145z" style="fill:rgb(242,183,130)"/><path d="M48.77528583957342,-8.262956582977791L61.15406204097815,57.87375806860607L57.641209740698216,-5.255182577377355zM-28.40004134493508,23.05968397848613L-29.721333638965145,72.56975462919178L-22.700602414805182,77.95445510910015zM74.33788113601265,16.044384462731543L71.59388561615353,-12.406057677029985L67.95569943296367,-14.578839942830227z" style="fill:rgb(83,212,212)"/><path d="M-124.5137727676817,97.60834189963518L-118.21481646887658,113.5278796568451L-121.31745470844226,102.17572599188566z" style="fill:rgb(242,183,130)"/><path d="M-39.86590270969196,35.92266427297509L-47.5988841541286,66.79251655001237L-45.23049929696783,70.01507908544221z" style="fill:rgb(83,212,212)"/><path d="M74.86444148495285,12.751614194088745L68.70754761954731,0.36766579447630665L70.9735360610025,5.415863606744356z" style="fill:rgb(12,71,124)"/><path d="M57.641209740698216,-5.255182577377355L68.24904835357113,48.93641746720571L65.1443313711307,-0.6511812189101103zM75.76754469353321,-8.172708726029498L81.42231363380733,-0.14213468542934563L78.61112566971273,-5.288458625624159z" style="fill:rgb(83,212,212)"/><path d="M55.3481781372852,-10.272413576926834L14.170562416863332,-82.81519890003356L46.45643381068787,-13.258681016194387z" style="fill:rgb(51,38,177)"/><path d="M-36.41160260985275,26.963313807850426L-78.02715735540336,-30.710193224055864L-39.86590270969196,35.92266427297509z" style="fill:rgb(242,130,183)"/><path d="M71.59388561615353,-12.406057677029985L74.33788113601265,16.044384462731543L75.76754469353321,-8.172708726029498zM-21.421739575668532,14.910378728723328L-22.700602414805182,77.95445510910015L-13.952905998767443,81.74984297419043z" style="fill:rgb(83,212,212)"/><path d="M-34.777505585100805,65.8474808436333L-40.509275940131545,53.3043926911893L-37.574229529557066,61.06723908266718z" style="fill:rgb(242,183,130)"/><path d="M150.92441576997845,-46.58797168407739L159.1556589461885,-31.723857203206855L157.3052641110333,-36.993015823438206z" style="fill:rgb(12,71,124)"/><path d="M-6.049861754982226,-3.556912205689697L-30.16525733651654,-76.63803598171219L-41.17126976518426,-71.26509819053899z" style="fill:rgb(162,50,222)"/><path d="M-15.604625167215994,2.735040800772479L-41.17126976518426,-71.26509819053899L-51.39562029165079,-64.66072163267835z" style="fill:rgb(183,62,221)"/><path d="M4.2964362280651285,-8.583293434754816L-18.7440163566127,-80.59917828467121L-30.16525733651654,-76.63803598171219z" style="fill:rgb(139,40,220)"/><path d="M65.1443313711307,-0.6511812189101103L73.28942957841502,39.56461975626607L70.9735360610025,5.415863606744356z" style="fill:rgb(83,212,212)"/><path d="M68.70754761954731,0.36766579447630665L74.86444148495285,12.751614194088745L72.59794095303101,7.695727540627631z" style="fill:rgb(12,71,124)"/><path d="M-42.38340628978839,74.77349169109014L-47.5988841541286,66.79251655001237L-44.75180573108675,71.54731592050555z" style="fill:rgb(21,57,142)"/><path d="M-118.21481646887658,113.5278796568451L-124.5137727676817,97.60834189963518L-121.43434127789789,108.96136880862086z" style="fill:rgb(242,183,130)"/><path d="M-60.49277537415935,-57.040803862992206L-15.604625167215994,2.735040800772479L-51.39562029165079,-64.66072163267835z" style="fill:rgb(203,77,216)"/><path d="M-13.031270018781386,7.580762690401064L-13.952905998767443,81.74984297419043L-3.8031806394289283,83.7626913113231zM-41.68335615397075,74.84153668115555L-41.26478745726546,44.81266963627676L-45.23049929696783,70.01507908544221z" style="fill:rgb(83,212,212)"/><path d="M15.086609720049443,-12.173792570935971L-7.288471808079644,-83.00707524491654L-18.7440163566127,-80.59917828467121z" style="fill:rgb(115,34,214)"/><path d="M70.9735360610025,5.415863606744356L76.10093493270531,30.15775838508146L74.86444148495285,12.751614194088745z" style="fill:rgb(83,212,212)"/><path d="M-47.5988841541286,66.79251655001237L-42.38340628978839,74.77349169109014L-45.23049929696783,70.01507908544221z" style="fill:rgb(21,57,142)"/><path d="M164.67023132941773,-23.406131662263206L157.3052641110333,-36.993015823438206L159.1556589461885,-31.723857203206855z" style="fill:rgb(12,71,124)"/><path d="M62.86924280327866,-5.686223630967482L23.40557982477153,-80.16386687644533L55.3481781372852,-10.272413576926834z" style="fill:rgb(34,46,160)"/><path d="M-68.14484159985078,-48.653592407659374L-24.04200415801718,10.085038694798614L-60.49277537415935,-57.040803862992206z" style="fill:rgb(220,94,208)"/><path d="M-39.86590270969196,35.92266427297509L-79.8343086320094,-21.77596310932091L-41.26478745726546,44.81266963627676z" style="fill:rgb(246,149,167)"/><path d="M-3.5244165938861896,1.3117222037592002L-3.8031806394289283,83.7626913113231L7.346181491294608,83.8734097981443z" style="fill:rgb(83,212,212)"/><path d="M83.33806841510221,3.3649433135408127L86.8583217528142,14.335399500925082L85.5544731597828,8.447577396627405z" style="fill:rgb(246,167,149)"/><path d="M-41.26478745726546,44.81266963627676L-41.68335615397075,74.84153668115555L-38.36250886853531,77.43351498016357zM81.42231363380733,-0.14213468542934563L75.76754469353321,-8.172708726029498L73.80299038388326,25.10491022968228z" style="fill:rgb(83,212,212)"/><path d="M-38.83641858100732,79.60511967778206L-45.23049929696783,70.01507908544221L-42.38340628978839,74.77349169109014z" style="fill:rgb(21,57,142)"/><path d="M25.957718724962966,-14.198710011250665L3.812661635567285,-83.76297978064335L-7.288471808079644,-83.00707524491654z" style="fill:rgb(92,32,204)"/><path d="M-121.43434127789789,108.96136880862086L-113.08402347417854,121.95417855614657L-118.21481646887658,113.5278796568451z" style="fill:rgb(233,197,112)"/><path d="M81.42231363380733,-0.14213468542934563L84.63501166508122,9.251274264889654L83.33806841510221,3.3649433135408127zM6.774393790272851,-3.689837635553926L7.346181491294608,83.8734097981443L19.032100428246057,82.0478038192378zM74.86444148495285,12.751614194088745L76.10093493270531,30.15775838508146L76.61499505021416,21.10191458932817z" style="fill:rgb(83,212,212)"/><path d="M86.8583217528142,14.335399500925082L83.33806841510221,3.3649433135408127L84.63501166508122,9.251274264889654z" style="fill:rgb(246,167,149)"/><path d="M-45.23049929696783,70.01507908544221L-38.83641858100732,79.60511967778206L-41.68335615397075,74.84153668115555z" style="fill:rgb(21,57,142)"/><path d="M157.3052641110333,-36.993015823438206L164.67023132941773,-23.406131662263206L162.82817897003437,-28.68816640628226z" style="fill:rgb(12,71,124)"/><path d="M-74.0691692352674,-39.77618211495066L-31.064729425720877,18.251669578344124L-68.14484159985078,-48.653592407659374z" style="fill:rgb(233,112,197)"/><path d="M-79.8343086320094,-21.77596310932091L-40.509275940131545,53.3043926911893L-41.26478745726546,44.81266963627676zM84.63501166508122,9.251274264889654L87.74666786555832,18.34692818276215L86.8583217528142,14.335399500925082z" style="fill:rgb(246,167,149)"/><path d="M17.518869516336295,-7.254333391674068L19.032100428246057,82.0478038192378L30.75384337358864,78.34369806899457zM70.9735360610025,5.415863606744356L73.28942957841502,39.56461975626607L76.10093493270531,30.15775838508146z" style="fill:rgb(83,212,212)"/><path d="M-35.52086704425645,82.2029027546877L-41.68335615397075,74.84153668115555L-38.83641858100732,79.60511967778206z" style="fill:rgb(34,46,160)"/><path d="M-113.08402347417854,121.95417855614657L-121.43434127789789,108.96136880862086L-116.31078844935669,117.38312007361299z" style="fill:rgb(233,197,112)"/><path d="M36.5383712509439,-14.572668286254135L14.170562416863332,-82.81519890003356L3.812661635567285,-83.76297978064335z" style="fill:rgb(71,33,192)"/><path d="M-38.36250886853531,77.43351498016357L-29.22488672212205,83.15024596854731L-40.509275940131545,53.3043926911893zM28.34738742568028,-9.252902352803492L30.75384337358864,78.34369806899457L42.00067318585268,72.91111053048651zM65.1443313711307,-0.6511812189101103L68.24904835357113,48.93641746720571L73.28942957841502,39.56461975626607z" style="fill:rgb(83,212,212)"/><path d="M68.70754761954731,0.36766579447630665L31.158566777998193,-75.8657063369542L62.86924280327866,-5.686223630967482z" style="fill:rgb(21,57,142)"/><path d="M87.74666786555832,18.34692818276215L84.63501166508122,9.251274264889654L85.51868939743468,13.261984252760366z" style="fill:rgb(246,167,149)"/><path d="M57.641209740698216,-5.255182577377355L61.15406204097815,57.87375806860607L68.24904835357113,48.93641746720571z" style="fill:rgb(83,212,212)"/><path d="M-41.68335615397075,74.84153668115555L-35.52086704425645,82.2029027546877L-38.36250886853531,77.43351498016357z" style="fill:rgb(34,46,160)"/><path d="M48.77528583957342,-8.262956582977791L52.2815759339864,65.98540058045009L61.15406204097815,57.87375806860607zM84.63501166508122,9.251274264889654L81.42231363380733,-0.14213468542934563L70.96078258799882,34.5227050836002z" style="fill:rgb(83,212,212)"/><path d="M173.76821011995517,-33.09955397113081L178.41537894924804,-19.002232087682284L175.55824722887317,-27.78987912131461z" style="fill:rgb(246,167,149)"/><path d="M-30.557480841904216,86.09179015633056L-38.36250886853531,77.43351498016357L-35.52086704425645,82.2029027546877z" style="fill:rgb(34,46,160)"/><path d="M48.77528583957342,-8.262956582977791L42.00067318585268,72.91111053048651L52.2815759339864,65.98540058045009z" style="fill:rgb(83,212,212)"/><path d="M-78.02715735540336,-30.710193224055864L-36.41160260985275,26.963313807850426L-74.0691692352674,-39.77618211495066z" style="fill:rgb(242,130,183)"/><path d="M85.2028381906891,19.674024259832326L87.74666786555832,18.34692818276215L85.51868939743468,13.261984252760366zM87.74666786555832,18.34692818276215L85.2028381906891,19.674024259832326L87.44499341079474,24.75586793073826z" style="fill:rgb(246,149,167)"/><path d="M84.63501166508122,9.251274264889654L85.2028381906891,19.674024259832326L85.51868939743468,13.261984252760366z" style="fill:rgb(83,212,212)"/><path d="M-116.31078844935669,117.38312007361299L-106.88799919698394,132.12992193502063L-113.08402347417854,121.95417855614657z" style="fill:rgb(233,197,112)"/><path d="M-161.93216133665166,-42.755020071580645L-165.6194639611258,71.27386149256174L-145.2296040497419,-65.67554734886073zM-145.2296040497419,-65.67554734886073L-147.4928424611103,87.76393210281982L-124.65759166803971,-87.01249692166876z" style="fill:rgb(83,212,212)"/><path d="M-79.37126901155379,-13.3047256018599L-37.574229529557066,61.06723908266718L-40.509275940131545,53.3043926911893z" style="fill:rgb(242,183,130)"/><path d="M-38.36250886853531,77.43351498016357L-30.557480841904216,86.09179015633056L-33.39095459196973,81.31390041009048z" style="fill:rgb(34,46,160)"/><path d="M178.41537894924804,-19.002232087682284L173.76821011995517,-33.09955397113081L176.622940326268,-24.317462620956928z" style="fill:rgb(246,167,149)"/><path d="M-174.08996934646913,-18.846616741953582L-177.19777358550832,51.362183941780565L-161.93216133665166,-42.755020071580645z" style="fill:rgb(83,212,212)"/><path d="M-26.40206124671062,87.93608726350331L-33.39095459196973,81.31390041009048L-30.557480841904216,86.09179015633056z" style="fill:rgb(51,38,177)"/><path d="M-124.65759166803971,-87.01249692166876L-123.14285859412347,99.82227578489129L-100.90105763982562,-106.25169272301139z" style="fill:rgb(83,212,212)"/><path d="M14.170562416863332,-82.81519890003356L55.3481781372852,-10.272413576926834L23.40557982477153,-80.16386687644533z" style="fill:rgb(51,38,177)"/><path d="M-29.22488672212205,83.15024596854731L-18.133047718130676,86.87952234080409L-37.574229529557066,61.06723908266718z" style="fill:rgb(83,212,212)"/><path d="M87.44499341079474,24.75586793073826L84.9877463264267,24.04046802654299L87.23957025957553,29.119994066389875z" style="fill:rgb(246,149,167)"/><path d="M72.59794095303101,7.695727540627631L37.104455206341314,-70.03807819349657L68.70754761954731,0.36766579447630665z" style="fill:rgb(12,71,124)"/><path d="M84.9877463264267,24.04046802654299L87.44499341079474,24.75586793073826L85.2028381906891,19.674024259832326z" style="fill:rgb(246,149,167)"/><path d="M-29.22488672212205,83.15024596854731L-38.36250886853531,77.43351498016357L-33.39095459196973,81.31390041009048z" style="fill:rgb(83,212,212)"/><path d="M-106.88799919698394,132.12992193502063L-116.31078844935669,117.38312007361299L-110.12281078814291,127.55448933653413z" style="fill:rgb(233,197,112)"/><path d="M85.2028381906891,19.674024259832326L84.63501166508122,9.251274264889654L65.88070040639268,43.91123987549001z" style="fill:rgb(83,212,212)"/><path d="M-33.39095459196973,81.31390041009048L-26.40206124671062,87.93608726350331L-29.22488672212205,83.15024596854731z" style="fill:rgb(51,38,177)"/><path d="M-79.8343086320094,-21.77596310932091L-39.86590270969196,35.92266427297509L-78.02715735540336,-30.710193224055864z" style="fill:rgb(246,149,167)"/><path d="M-20.18644795859134,90.69476145501962L-29.22488672212205,83.15024596854731L-26.40206124671062,87.93608726350331z" style="fill:rgb(51,38,177)"/><path d="M-100.90105763982562,-106.25169272301139L-93.30649115851064,106.55359211196024L-74.64810770008206,-122.94461425683807zM-182.2485386044763,29.061147803968044L-174.08996934646913,-18.846616741953582L-181.05651763936552,5.357829512038702z" style="fill:rgb(83,212,212)"/><path d="M83.02506431753379,30.728211328963706L87.23957025957553,29.119994066389875L84.9877463264267,24.04046802654299zM87.23957025957553,29.119994066389875L83.02506431753379,30.728211328963706L85.29820783194889,35.80005568810857z" style="fill:rgb(242,130,183)"/><path d="M176.622940326268,-24.317462620956928L182.9018878262629,-5.203111426865911L178.41537894924804,-19.002232087682284z" style="fill:rgb(246,167,149)"/><path d="M85.2028381906891,19.674024259832326L83.02506431753379,30.728211328963706L84.9877463264267,24.04046802654299z" style="fill:rgb(83,212,212)"/><path d="M-29.22488672212205,83.15024596854731L-20.18644795859134,90.69476145501962L-22.993064406845214,85.89714925924855z" style="fill:rgb(51,38,177)"/><path d="M23.40557982477153,-80.16386687644533L62.86924280327866,-5.686223630967482L31.158566777998193,-75.8657063369542z" style="fill:rgb(34,46,160)"/><path d="M-18.133047718130676,86.87952234080409L-5.509364027013328,88.41221103890383L-32.517136299886545,67.78160041338373z" style="fill:rgb(83,212,212)"/><path d="M85.29820783194889,35.80005568810857L81.68980230179206,35.27806639670022L83.97750682158437,40.34449267752677z" style="fill:rgb(242,130,183)"/><path d="M-18.133047718130676,86.87952234080409L-20.18644795859134,90.69476145501962L-15.342183474253314,91.68709921968146z" style="fill:rgb(71,33,192)"/><path d="M-74.64810770008206,-122.94461425683807L-59.16208200854529,107.28689308290544L-46.592966152646994,-136.69400312815281z" style="fill:rgb(83,212,212)"/><path d="M81.68980230179206,35.27806639670022L85.29820783194889,35.80005568810857L83.02506431753379,30.728211328963706z" style="fill:rgb(242,130,183)"/><path d="M-18.133047718130676,86.87952234080409L-29.22488672212205,83.15024596854731L-22.993064406845214,85.89714925924855z" style="fill:rgb(83,212,212)"/><path d="M-20.18644795859134,90.69476145501962L-18.133047718130676,86.87952234080409L-22.993064406845214,85.89714925924855z" style="fill:rgb(71,33,192)"/><path d="M83.02506431753379,30.728211328963706L85.2028381906891,19.674024259832326L58.73844279730094,52.870314265092475z" style="fill:rgb(83,212,212)"/><path d="M-105.55542662725743,149.55537098842342L-119.62528770573691,134.87342550773437L-116.33577454637744,139.42208043255275z" style="fill:rgb(34,46,160)"/><path d="M182.9018878262629,-5.203111426865911L176.622940326268,-24.317462620956928L181.10621017271575,-10.525431869450177z" style="fill:rgb(246,167,149)"/><path d="M83.97750682158437,40.34449267752677L78.11973317362062,41.96518373958229L80.43535989324597,47.01965309478964zM78.11973317362062,41.96518373958229L83.97750682158437,40.34449267752677L81.68980230179206,35.27806639670022z" style="fill:rgb(233,112,197)"/><path d="M-10.871812777971089,88.34725913278247L-15.342183474253314,91.68709921968146L-8.104765215017007,93.16966605133696z" style="fill:rgb(71,33,192)"/><path d="M-40.509275940131545,53.3043926911893L-79.8343086320094,-21.77596310932091L-79.37126901155379,-13.3047256018599z" style="fill:rgb(246,167,149)"/><path d="M-15.342183474253314,91.68709921968146L-10.871812777971089,88.34725913278247L-18.133047718130676,86.87952234080409z" style="fill:rgb(71,33,192)"/><path d="M-5.509364027013328,88.41221103890383L3.1777088637102686,85.50100047041761L-25.484445846655962,73.15370795919489zM83.02506431753379,30.728211328963706L78.11973317362062,41.96518373958229L81.68980230179206,35.27806639670022zM-46.592966152646994,-136.69400312815281L-22.301183333885408,101.6841264306834L-17.445446721456573,-147.14301975986308z" style="fill:rgb(83,212,212)"/><path d="M80.43535989324597,47.01965309478964L75.69409924081302,46.50865757349613L78.02878554159301,51.554836656652384z" style="fill:rgb(233,112,197)"/><path d="M78.11973317362062,41.96518373958229L83.02506431753379,30.728211328963706L49.81306987130482,61.00757240017746z" style="fill:rgb(83,212,212)"/><path d="M-5.509364027013328,88.41221103890383L-8.104765215017007,93.16966605133696L-2.762594446091727,93.24634841245931z" style="fill:rgb(92,32,204)"/><path d="M31.158566777998193,-75.8657063369542L68.70754761954731,0.36766579447630665L37.104455206341314,-70.03807819349657z" style="fill:rgb(21,57,142)"/><path d="M10.070294924273878,82.17047578436829L-16.713801515926917,76.93199511587827L3.1777088637102686,85.50100047041761z" style="fill:rgb(83,212,212)"/><path d="M75.69409924081302,46.50865757349613L80.43535989324597,47.01965309478964L78.11973317362062,41.96518373958229z" style="fill:rgb(233,112,197)"/><path d="M-8.104765215017007,93.16966605133696L-5.509364027013328,88.41221103890383L-10.871812777971089,88.34725913278247z" style="fill:rgb(92,32,204)"/><path d="M-119.62528770573691,134.87342550773437L-105.55542662725743,149.55537098842342L-108.8360845096957,144.9945530517357z" style="fill:rgb(34,46,160)"/><path d="M-5.509364027013328,88.41221103890383L-18.133047718130676,86.87952234080409L-10.871812777971089,88.34725913278247z" style="fill:rgb(83,212,212)"/><path d="M-2.912190230212055,88.44367498469238L-2.762594446091727,93.24634841245931L-0.17529083518661376,93.28349299116013z" style="fill:rgb(92,32,204)"/><path d="M16.424886652462433,79.0999004538075L-6.530793778840712,78.92360520741462L10.070294924273878,82.17047578436829z" style="fill:rgb(83,212,212)"/><path d="M-2.762594446091727,93.24634841245931L-2.912190230212055,88.44367498469238L-5.509364027013328,88.41221103890383z" style="fill:rgb(92,32,204)"/><path d="M181.4644023116675,-0.6647152374001192L182.9018878262629,-5.203111426865911L181.10621017271575,-10.525431869450177z" style="fill:rgb(246,149,167)"/><path d="M78.02878554159301,51.554836656652384L70.63441441341396,52.90558903335103L73.00267398674646,57.93611637776465zM70.63441441341396,52.90558903335103L78.02878554159301,51.554836656652384L75.69409924081302,46.50865757349613z" style="fill:rgb(220,94,208)"/><path d="M2.490397177012568,88.5091130856786L-0.17529083518661376,93.28349299116013L5.206663072847691,93.36074642829556z" style="fill:rgb(92,32,204)"/><path d="M-174.08996934646913,-18.846616741953582L-182.2485386044763,29.061147803968044L-177.19777358550832,51.362183941780565z" style="fill:rgb(83,212,212)"/><path d="M182.9018878262629,-5.203111426865911L181.4644023116675,-0.6647152374001192L183.2742202816509,4.654606889040545z" style="fill:rgb(246,149,167)"/><path d="M22.412840990316322,76.20649625813155L4.660915549752103,79.00955213977507L16.424886652462433,79.0999004538075zM78.11973317362062,41.96518373958229L70.63441441341396,52.90558903335103L75.69409924081302,46.50865757349613z" style="fill:rgb(83,212,212)"/><path d="M-0.17529083518661376,93.28349299116013L2.490397177012568,88.5091130856786L-2.912190230212055,88.44367498469238z" style="fill:rgb(92,32,204)"/><path d="M3.1777088637102686,85.50100047041761L-5.509364027013328,88.41221103890383L-2.912190230212055,88.44367498469238zM70.63441441341396,52.90558903335103L78.11973317362062,41.96518373958229L39.47605608639792,67.96146574390507zM28.17256858063779,73.42336426962555L16.396392037737527,77.15649759492642L22.412840990316322,76.20649625813155z" style="fill:rgb(83,212,212)"/><path d="M73.00267398674646,57.93611637776465L67.20224958992956,57.244855941040946L69.5933757368432,62.26464854611456z" style="fill:rgb(220,94,208)"/><path d="M-37.574229529557066,61.06723908266718L-79.37126901155379,-13.3047256018599L-76.5950868937428,-5.628321159569288z" style="fill:rgb(242,183,130)"/><path d="M-17.445446721456573,-147.14301975986308L15.368780408634272,89.82404225079961L12.055773696199715,-153.96981551681526z" style="fill:rgb(83,212,212)"/><path d="M67.20224958992956,57.244855941040946L73.00267398674646,57.93611637776465L70.63441441341396,52.90558903335103z" style="fill:rgb(220,94,208)"/><path d="M-98.36221441606185,156.3168395230255L-108.8360845096957,144.9945530517357L-105.55542662725743,149.55537098842342z" style="fill:rgb(34,46,160)"/><path d="M2.490397177012568,88.5091130856786L70.63441441341396,52.90558903335103L-2.912190230212055,88.44367498469238z" style="fill:rgb(83,212,212)"/><path d="M16.530939739405667,86.3329749256663L5.206663072847691,93.36074642829556L19.18747798725567,91.21729069405157zM5.206663072847691,93.36074642829556L16.530939739405667,86.3329749256663L2.490397177012568,88.5091130856786z" style="fill:rgb(115,34,214)"/><path d="M148.76840104878843,-107.25489061117828L181.10621017271575,-10.525431869450177L173.76821011995517,-33.09955397113081z" style="fill:rgb(246,167,149)"/><path d="M69.5933757368432,62.26464854611456L56.54637940026044,67.00544634861642L59.0010250314248,71.99412366120632z" style="fill:rgb(203,77,216)"/><path d="M37.104455206341314,-70.03807819349657L72.59794095303101,7.695727540627631L40.96784206552236,-62.86155802398355z" style="fill:rgb(12,71,124)"/><path d="M70.63441441341396,52.90558903335103L2.490397177012568,88.5091130856786L16.530939739405667,86.3329749256663z" style="fill:rgb(83,212,212)"/><path d="M56.54637940026044,67.00544634861642L69.5933757368432,62.26464854611456L67.20224958992956,57.244855941040946z" style="fill:rgb(203,77,216)"/><path d="M70.63441441341396,52.90558903335103L56.54637940026044,67.00544634861642L67.20224958992956,57.244855941040946z" style="fill:rgb(83,212,212)"/><path d="M30.635984166512536,81.88438218512702L19.18747798725567,91.21729069405157L33.22676025575522,86.80352593092543z" style="fill:rgb(139,40,220)"/><path d="M56.54637940026044,67.00544634861642L46.698628889635955,80.29979610313673L59.0010250314248,71.99412366120632z" style="fill:rgb(183,62,221)"/><path d="M19.18747798725567,91.21729069405157L30.635984166512536,81.88438218512702L16.530939739405667,86.3329749256663z" style="fill:rgb(139,40,220)"/><path d="M70.63441441341396,52.90558903335103L16.530939739405667,86.3329749256663L30.635984166512536,81.88438218512702z" style="fill:rgb(83,212,212)"/><path d="M-108.8360845096957,144.9945530517357L-98.36221441606185,156.3168395230255L-101.6361165877584,151.74870028261165z" style="fill:rgb(34,46,160)"/><path d="M44.17631348696033,75.34527319471181L33.22676025575522,86.80352593092543L46.698628889635955,80.29979610313673z" style="fill:rgb(162,50,222)"/><path d="M70.63441441341396,52.90558903335103L44.17631348696033,75.34527319471181L56.54637940026044,67.00544634861642zM70.63441441341396,52.90558903335103L30.635984166512536,81.88438218512702L44.17631348696033,75.34527319471181z" style="fill:rgb(83,212,212)"/><path d="M46.698628889635955,80.29979610313673L56.54637940026044,67.00544634861642L44.17631348696033,75.34527319471181z" style="fill:rgb(183,62,221)"/><path d="M33.22676025575522,86.80352593092543L44.17631348696033,75.34527319471181L30.635984166512536,81.88438218512702z" style="fill:rgb(162,50,222)"/><path d="M182.02636139116385,14.805399740347134L183.2742202816509,4.654606889040545L181.4644023116675,-0.6647152374001192z" style="fill:rgb(246,149,167)"/><path d="M12.055773696199715,-153.96981551681526L51.786343236851444,72.23726394809866L41.128830844610754,-156.88846512615135zM-161.93216133665166,-42.755020071580645L-177.19777358550832,51.362183941780565L-165.6194639611258,71.27386149256174z" style="fill:rgb(83,212,212)"/><path d="M183.2742202816509,4.654606889040545L182.02636139116385,14.805399740347134L183.85829647884353,20.118223395907176z" style="fill:rgb(246,149,167)"/><path d="M-84.18276763261291,163.91295846218983L-101.6361165877584,151.74870028261165L-98.36221441606185,156.3168395230255z" style="fill:rgb(51,38,177)"/><path d="M41.128830844610754,-156.88846512615135L84.93802623358631,49.87719671228615L68.93633554084722,-155.6579167194691z" style="fill:rgb(83,212,212)"/><path d="M-101.6361165877584,151.74870028261165L-84.18276763261291,163.91295846218983L-87.42528360527426,159.32489266768448z" style="fill:rgb(51,38,177)"/><path d="M-101.6361165877584,151.74870028261165L-165.6194639611258,71.27386149256174L-119.62528770573691,134.87342550773437z" style="fill:rgb(34,46,160)"/><path d="M179.69346829913732,25.37373724705678L183.85829647884353,20.118223395907176L182.02636139116385,14.805399740347134zM183.85829647884353,20.118223395907176L179.69346829913732,25.37373724705678L181.55242225748407,30.674496567334778z" style="fill:rgb(242,130,183)"/><path d="M-145.2296040497419,-65.67554734886073L-165.6194639611258,71.27386149256174L-147.4928424611103,87.76393210281982z" style="fill:rgb(83,212,212)"/><path d="M-74.7371371306312,168.97312647981428L-87.42528360527426,159.32489266768448L-84.18276763261291,163.91295846218983z" style="fill:rgb(51,38,177)"/><path d="M68.93633554084722,-155.6579167194691L113.06176968675021,24.02734897852596L94.57870337434369,-150.0998393163401z" style="fill:rgb(83,212,212)"/><path d="M-87.42528360527426,159.32489266768448L-74.7371371306312,168.97312647981428L-77.95768758249703,164.3723495166822z" style="fill:rgb(51,38,177)"/><path d="M176.04083375356183,41.92070911066951L181.55242225748407,30.674496567334778L179.69346829913732,25.37373724705678z" style="fill:rgb(242,130,183)"/><path d="M94.57870337434369,-150.0998393163401L134.81035877214893,-3.8367618969306085L117.09749102041489,-140.12600927683516z" style="fill:rgb(83,212,212)"/><path d="M181.55242225748407,30.674496567334778L176.04083375356183,41.92070911066951L177.9424825292822,47.20079287174449z" style="fill:rgb(242,130,183)"/><path d="M181.10621017271575,-10.525431869450177L148.76840104878843,-107.25489061117828L155.9830249452849,-84.98954378468537z" style="fill:rgb(246,167,149)"/><path d="M-74.7371371306312,168.97312647981428L-60.76682019845108,168.87337341111626L-77.95768758249703,164.3723495166822z" style="fill:rgb(71,33,192)"/><path d="M181.10621017271575,-10.525431869450177L156.35120180748717,-59.655481231333155L182.02636139116385,14.805399740347134z" style="fill:rgb(246,149,167)"/><path d="M-124.65759166803971,-87.01249692166876L-147.4928424611103,87.76393210281982L-123.14285859412347,99.82227578489129z" style="fill:rgb(83,212,212)"/><path d="M-60.76682019845108,168.87337341111626L-74.7371371306312,168.97312647981428L-57.60076974881303,173.50269311967628z" style="fill:rgb(71,33,192)"/><path d="M117.09749102041489,-140.12600927683516L149.34524947931703,-32.20171835978249L135.49402651846427,-125.77487442084693z" style="fill:rgb(83,212,212)"/><path d="M170.95070830879328,52.73545158619054L177.9424825292822,47.20079287174449L176.04083375356183,41.92070911066951zM177.9424825292822,47.20079287174449L170.95070830879328,52.73545158619054L172.89263816627525,57.994685800851315z" style="fill:rgb(233,112,197)"/><path d="M-77.95768758249703,164.3723495166822L-147.4928424611103,87.76393210281982L-101.6361165877584,151.74870028261165z" style="fill:rgb(51,38,177)"/><path d="M-57.60076974881303,173.50269311967628L-49.34397142431895,171.86417274474758L-60.76682019845108,168.87337341111626zM-49.34397142431895,171.86417274474758L-57.60076974881303,173.50269311967628L-46.21527346927776,176.51215778169959z" style="fill:rgb(71,33,192)"/><path d="M163.00464398966324,69.61805641605567L172.89263816627525,57.994685800851315L170.95070830879328,52.73545158619054z" style="fill:rgb(233,112,197)"/><path d="M-100.90105763982562,-106.25169272301139L-123.14285859412347,99.82227578489129L-93.30649115851064,106.55359211196024z" style="fill:rgb(83,212,212)"/><path d="M-165.6194639611258,71.27386149256174L-101.6361165877584,151.74870028261165L-147.4928424611103,87.76393210281982z" style="fill:rgb(34,46,160)"/><path d="M172.89263816627525,57.994685800851315L163.00464398966324,69.61805641605567L165.01020017153127,74.84315150592467z" style="fill:rgb(233,112,197)"/><path d="M156.35120180748717,-59.655481231333155L181.10621017271575,-10.525431869450177L155.9830249452849,-84.98954378468537z" style="fill:rgb(246,149,167)"/><path d="M-46.21527346927776,176.51215778169959L-16.941554710553817,173.55561441585482L-49.34397142431895,171.86417274474758z" style="fill:rgb(92,32,204)"/><path d="M135.49402651846427,-125.77487442084693L149.34524947931703,-32.20171835978249L148.76840104878843,-107.25489061117828z" style="fill:rgb(83,212,212)"/><path d="M182.02636139116385,14.805399740347134L149.34524947931703,-32.20171835978249L176.04083375356183,41.92070911066951z" style="fill:rgb(242,130,183)"/><path d="M155.25367614656025,80.14853293688674L165.01020017153127,74.84315150592467L163.00464398966324,69.61805641605567zM165.01020017153127,74.84315150592467L155.25367614656025,80.14853293688674L157.31205115856557,85.34516238569182z" style="fill:rgb(220,94,208)"/><path d="M-16.941554710553817,173.55561441585482L-46.21527346927776,176.51215778169959L-13.940567015583273,178.26592050797765z" style="fill:rgb(92,32,204)"/><path d="M-74.64810770008206,-122.94461425683807L-93.30649115851064,106.55359211196024L-59.16208200854529,107.28689308290544z" style="fill:rgb(83,212,212)"/><path d="M143.20009004621355,96.5245256372827L157.31205115856557,85.34516238569182L155.25367614656025,80.14853293688674z" style="fill:rgb(220,94,208)"/><path d="M148.76840104878843,-107.25489061117828L156.35120180748717,-59.655481231333155L155.9830249452849,-84.98954378468537z" style="fill:rgb(83,212,212)"/><path d="M157.31205115856557,85.34516238569182L143.20009004621355,96.5245256372827L145.34150432906392,101.67565976316705z" style="fill:rgb(220,94,208)"/><path d="M-13.940567015583273,178.26592050797765L17.744347657374064,169.09029629320793L-16.941554710553817,173.55561441585482z" style="fill:rgb(115,34,214)"/><path d="M145.34150432906392,101.67565976316705L133.06773568716903,106.20720534154424L135.27243776500327,111.32426152112248z" style="fill:rgb(203,77,216)"/><path d="M-93.30649115851064,106.55359211196024L-77.95768758249703,164.3723495166822L-49.34397142431895,171.86417274474758z" style="fill:rgb(71,33,192)"/><path d="M17.744347657374064,169.09029629320793L-13.940567015583273,178.26592050797765L20.58815430270327,173.87710257892178z" style="fill:rgb(115,34,214)"/><path d="M133.06773568716903,106.20720534154424L145.34150432906392,101.67565976316705L143.20009004621355,96.5245256372827z" style="fill:rgb(203,77,216)"/><path d="M-46.592966152646994,-136.69400312815281L-59.16208200854529,107.28689308290544L-22.301183333885408,101.6841264306834z" style="fill:rgb(83,212,212)"/><path d="M-147.4928424611103,87.76393210281982L-77.95768758249703,164.3723495166822L-123.14285859412347,99.82227578489129z" style="fill:rgb(51,38,177)"/><path d="M149.34524947931703,-32.20171835978249L182.02636139116385,14.805399740347134L156.35120180748717,-59.655481231333155z" style="fill:rgb(242,130,183)"/><path d="M117.38223903212493,121.19658562288666L135.27243776500327,111.32426152112248L133.06773568716903,106.20720534154424zM135.27243776500327,111.32426152112248L117.38223903212493,121.19658562288666L119.68571291372471,126.26012194972314z" style="fill:rgb(203,77,216)"/><path d="M176.04083375356183,41.92070911066951L134.81035877214893,-3.8367618969306085L163.00464398966324,69.61805641605567z" style="fill:rgb(233,112,197)"/><path d="M117.38223903212493,121.19658562288666L107.70365123601732,134.51101569115139L119.68571291372471,126.26012194972314z" style="fill:rgb(183,62,221)"/><path d="M20.58815430270327,173.87710257892178L52.94317037934283,158.50223699067547L17.744347657374064,169.09029629320793zM52.94317037934283,158.50223699067547L20.58815430270327,173.87710257892178L55.61012737956483,163.37688319928006z" style="fill:rgb(139,40,220)"/><path d="M117.09749102041489,-140.12600927683516L134.81035877214893,-3.8367618969306085L149.34524947931703,-32.20171835978249zM-17.445446721456573,-147.14301975986308L-22.301183333885408,101.6841264306834L15.368780408634272,89.82404225079961z" style="fill:rgb(83,212,212)"/><path d="M105.3298487255073,129.484569583089L89.24822958684527,147.21948663741986L107.70365123601732,134.51101569115139zM107.70365123601732,134.51101569115139L117.38223903212493,121.19658562288666L105.3298487255073,129.484569583089z" style="fill:rgb(183,62,221)"/><path d="M148.76840104878843,-107.25489061117828L149.34524947931703,-32.20171835978249L156.35120180748717,-59.655481231333155z" style="fill:rgb(83,212,212)"/><path d="M66.28488330682656,152.09152412124217L55.61012737956483,163.37688319928006L68.8791519791244,157.00337464529207zM73.40872307245422,148.66849943518048L68.8791519791244,157.00337464529207L75.96415101404082,153.6002260685372zM86.76566070429301,142.2504730645967L75.96415101404082,153.6002260685372L89.24822958684527,147.21948663741986z" style="fill:rgb(162,50,222)"/><path d="M89.24822958684527,147.21948663741986L105.3298487255073,129.484569583089L86.76566070429301,142.2504730645967z" style="fill:rgb(183,62,221)"/><path d="M55.61012737956483,163.37688319928006L66.28488330682656,152.09152412124217L52.94317037934283,158.50223699067547zM68.8791519791244,157.00337464529207L73.40872307245422,148.66849943518048L66.28488330682656,152.09152412124217zM75.96415101404082,153.6002260685372L86.76566070429301,142.2504730645967L73.40872307245422,148.66849943518048z" style="fill:rgb(162,50,222)"/><path d="M94.57870337434369,-150.0998393163401L113.06176968675021,24.02734897852596L134.81035877214893,-3.8367618969306085zM12.055773696199715,-153.96981551681526L15.368780408634272,89.82404225079961L51.786343236851444,72.23726394809866zM68.93633554084722,-155.6579167194691L84.93802623358631,49.87719671228615L113.06176968675021,24.02734897852596z" style="fill:rgb(83,212,212)"/><path d="M-59.16208200854529,107.28689308290544L-49.34397142431895,171.86417274474758L-16.941554710553817,173.55561441585482z" style="fill:rgb(92,32,204)"/><path d="M41.128830844610754,-156.88846512615135L51.786343236851444,72.23726394809866L84.93802623358631,49.87719671228615z" style="fill:rgb(83,212,212)"/><path d="M-77.95768758249703,164.3723495166822L-93.30649115851064,106.55359211196024L-123.14285859412347,99.82227578489129z" style="fill:rgb(71,33,192)"/><path d="M163.00464398966324,69.61805641605567L113.06176968675021,24.02734897852596L143.20009004621355,96.5245256372827z" style="fill:rgb(220,94,208)"/><path d="M134.81035877214893,-3.8367618969306085L176.04083375356183,41.92070911066951L149.34524947931703,-32.20171835978249z" style="fill:rgb(233,112,197)"/><path d="M-22.301183333885408,101.6841264306834L-16.941554710553817,173.55561441585482L17.744347657374064,169.09029629320793z" style="fill:rgb(115,34,214)"/><path d="M143.20009004621355,96.5245256372827L84.93802623358631,49.87719671228615L117.38223903212493,121.19658562288666z" style="fill:rgb(203,77,216)"/><path d="M-49.34397142431895,171.86417274474758L-59.16208200854529,107.28689308290544L-93.30649115851064,106.55359211196024z" style="fill:rgb(92,32,204)"/><path d="M84.93802623358631,49.87719671228615L86.76566070429301,142.2504730645967L117.38223903212493,121.19658562288666z" style="fill:rgb(183,62,221)"/><path d="M15.368780408634272,89.82404225079961L17.744347657374064,169.09029629320793L52.94317037934283,158.50223699067547z" style="fill:rgb(139,40,220)"/><path d="M51.786343236851444,72.23726394809866L52.94317037934283,158.50223699067547L86.76566070429301,142.2504730645967z" style="fill:rgb(162,50,222)"/><path d="M113.06176968675021,24.02734897852596L163.00464398966324,69.61805641605567L134.81035877214893,-3.8367618969306085z" style="fill:rgb(220,94,208)"/><path d="M-16.941554710553817,173.55561441585482L-22.301183333885408,101.6841264306834L-59.16208200854529,107.28689308290544z" style="fill:rgb(115,34,214)"/><path d="M84.93802623358631,49.87719671228615L143.20009004621355,96.5245256372827L113.06176968675021,24.02734897852596z" style="fill:rgb(203,77,216)"/><path d="M17.744347657374064,169.09029629320793L15.368780408634272,89.82404225079961L-22.301183333885408,101.6841264306834z" style="fill:rgb(139,40,220)"/><path d="M86.76566070429301,142.2504730645967L84.93802623358631,49.87719671228615L51.786343236851444,72.23726394809866z" style="fill:rgb(183,62,221)"/><path d="M52.94317037934283,158.50223699067547L51.786343236851444,72.23726394809866L15.368780408634272,89.82404225079961z" style="fill:rgb(162,50,222)"/></svg>
