<?xml version="1.0" encoding="UTF-8"?>
<!-- Generated by jsxcad -->
<!DOCTYPE svg PUBLIC "-//W3C//DTD SVG 1.1 Tiny//EN" "http://www.w3.org/Graphics/SVG/1.1/DTD/svg11-tiny.dtd">
<svg viewBox="-250 -250 500 500" width="500" height="500" xmlns="http://www.w3.org/2000/svg"><path d="M-17.445446721456573,-147.14301975986308L-44.90153248597095,-137.40329337176925L-71.42752907003069,-124.72216196764981zM-71.42752907003069,-124.72216196764981L-96.42986854796145,-109.39446680864076L-119.32884519259584,-91.74569196077235zM-17.445446721456573,-147.14301975986308L-71.42752907003069,-124.72216196764981L-119.32884519259584,-91.74569196077235zM37.75743386705469,-156.75624157068876L10.324313604972597,-153.67375909795788L-17.445446721456573,-147.14301975986308zM-119.32884519259584,-91.74569196077235L-139.55010529519845,-72.13993703246493L-156.52172986143054,-50.989970615658976z" style="fill:rgb(83,212,212)"/><path d="M17.518869516336295,-7.254333391674068L-48.09618737593843,-66.98635376907684L-9.970863216849951,5.362308346867669z" style="fill:rgb(158,48,222)"/><path d="M-70.32434375580911,-45.73449161949679L-17.445446721456573,-147.14301975986308L-119.32884519259584,-91.74569196077235z" style="fill:rgb(83,212,212)"/><path d="M45.57579661182155,-8.896457895389595L-18.7440163566127,-80.59917828467121L17.518869516336295,-7.254333391674068z" style="fill:rgb(96,32,206)"/><path d="M-119.32884519259584,-91.74569196077235L-156.52172986143054,-50.989970615658976L-178.4639075989757,-6.021222949016199z" style="fill:rgb(83,212,212)"/><path d="M-9.970863216849951,5.362308346867669L-70.32434375580911,-45.73449161949679L-30.366228431611958,25.91218838281182z" style="fill:rgb(212,85,213)"/><path d="M37.75743386705469,-156.75624157068876L-17.445446721456573,-147.14301975986308L10.824249705303803,-83.32151406846562zM88.78982560735982,-151.80340381910776L64.15994837971185,-156.18543742504892L37.75743386705469,-156.75624157068876zM-156.52172986143054,-50.989970615658976L-169.67660978723998,-28.768832016063342L-178.4639075989757,-6.021222949016199z" style="fill:rgb(83,212,212)"/><path d="M67.28753019431613,1.2169505213743055L10.824249705303803,-83.32151406846562L45.57579661182155,-8.896457895389595z" style="fill:rgb(42,41,169)"/><path d="M-48.09618737593843,-66.98635376907684L-18.7440163566127,-80.59917828467121L-17.445446721456573,-147.14301975986308z" style="fill:rgb(83,212,212)"/><path d="M-30.366228431611958,25.91218838281182L-79.8343086320094,-21.77596310932091L-38.497029530697844,49.59108085223881z" style="fill:rgb(243,133,180)"/><path d="M17.518869516336295,-7.254333391674068L-18.7440163566127,-80.59917828467121L-48.09618737593843,-66.98635376907684z" style="fill:rgb(158,48,222)"/><path d="M-70.32434375580911,-45.73449161949679L-48.09618737593843,-66.98635376907684L-17.445446721456573,-147.14301975986308z" style="fill:rgb(83,212,212)"/><path d="M-9.970863216849951,5.362308346867669L-48.09618737593843,-66.98635376907684L-70.32434375580911,-45.73449161949679z" style="fill:rgb(212,85,213)"/><path d="M-17.445446721456573,-147.14301975986308L-18.7440163566127,-80.59917828467121L10.824249705303803,-83.32151406846562z" style="fill:rgb(83,212,212)"/><path d="M45.57579661182155,-8.896457895389595L10.824249705303803,-83.32151406846562L-18.7440163566127,-80.59917828467121z" style="fill:rgb(96,32,206)"/><path d="M129.53515866563794,-131.33086768473422L88.78982560735982,-151.80340381910776L37.75743386705469,-156.75624157068876zM-79.8343086320094,-21.77596310932091L-70.32434375580911,-45.73449161949679L-119.32884519259584,-91.74569196077235z" style="fill:rgb(83,212,212)"/><path d="M-30.366228431611958,25.91218838281182L-70.32434375580911,-45.73449161949679L-79.8343086320094,-21.77596310932091z" style="fill:rgb(243,133,180)"/><path d="M76.61499505021416,21.10191458932817L33.35607629730071,-74.08549178686513L67.28753019431613,1.2169505213743055z" style="fill:rgb(11,74,121)"/><path d="M129.53515866563794,-131.33086768473422L37.75743386705469,-156.75624157068876L10.824249705303803,-83.32151406846562z" style="fill:rgb(83,212,212)"/><path d="M-38.497029530697844,49.59108085223881L-73.47701647855833,-1.1110488072512121L-31.634108427224284,70.4638054295795z" style="fill:rgb(243,180,133)"/><path d="M67.28753019431613,1.2169505213743055L33.35607629730071,-74.08549178686513L10.824249705303803,-83.32151406846562z" style="fill:rgb(42,41,169)"/><path d="M-119.32884519259584,-91.74569196077235L-178.4639075989757,-6.021222949016199L-160.9605961186854,76.52543310579348zM129.53515866563794,-131.33086768473422L110.85706404158772,-143.51844173873695L88.78982560735982,-151.80340381910776zM-73.47701647855833,-1.1110488072512121L-79.8343086320094,-21.77596310932091L-119.32884519259584,-91.74569196077235z" style="fill:rgb(83,212,212)"/><path d="M-38.497029530697844,49.59108085223881L-79.8343086320094,-21.77596310932091L-73.47701647855833,-1.1110488072512121z" style="fill:rgb(243,180,133)"/><path d="M-178.4639075989757,-6.021222949016199L-182.36883486197894,16.62746045211464L-180.94603335288696,38.46834885345921z" style="fill:rgb(83,212,212)"/><path d="M-111.66532753960908,144.77386493270177L-173.8642329284395,58.71540912816264L-124.76067424911749,126.69462276099355z" style="fill:rgb(25,53,148)"/><path d="M129.53515866563794,-131.33086768473422L10.824249705303803,-83.32151406846562L33.35607629730071,-74.08549178686513zM-73.47701647855833,-1.1110488072512121L-119.32884519259584,-91.74569196077235L-160.9605961186854,76.52543310579348z" style="fill:rgb(83,212,212)"/><path d="M76.61499505021416,21.10191458932817L42.539875310701476,-54.57979087124254L33.35607629730071,-74.08549178686513z" style="fill:rgb(11,74,121)"/><path d="M-178.4639075989757,-6.021222949016199L-180.94603335288696,38.46834885345921L-160.9605961186854,76.52543310579348zM129.53515866563794,-131.33086768473422L33.35607629730071,-74.08549178686513L42.539875310701476,-54.57979087124254z" style="fill:rgb(83,212,212)"/><path d="M180.20188334258543,-16.222861201504287L157.04879548009518,-73.39838330985783L184.18408598438714,6.425819656807514z" style="fill:rgb(247,158,158)"/><path d="M-93.29018353888372,159.71118033643566L-160.9605961186854,76.52543310579348L-111.66532753960908,144.77386493270177z" style="fill:rgb(38,43,165)"/><path d="M153.39751508251268,-95.89719269783927L143.98522432070706,-115.3638199625796L129.53515866563794,-131.33086768473422z" style="fill:rgb(83,212,212)"/><path d="M-111.66532753960908,144.77386493270177L-160.9605961186854,76.52543310579348L-173.8642329284395,58.71540912816264z" style="fill:rgb(25,53,148)"/><path d="M180.20188334258543,-16.222861201504287L153.39751508251268,-95.89719269783927L157.04879548009518,-73.39838330985783z" style="fill:rgb(247,158,158)"/><path d="M-180.94603335288696,38.46834885345921L-173.8642329284395,58.71540912816264L-160.9605961186854,76.52543310579348z" style="fill:rgb(83,212,212)"/><path d="M184.18408598438714,6.425819656807514L154.37786652859273,-48.54433564757936L182.27156850468143,31.12031401316774z" style="fill:rgb(245,141,174)"/><path d="M-70.03204585361271,170.69775988081884L-142.30310309545666,91.03571609926068L-93.29018353888372,159.71118033643566z" style="fill:rgb(55,36,180)"/><path d="M-51.91487693351851,10.356603699244127L-73.47701647855833,-1.1110488072512121L-160.9605961186854,76.52543310579348zM154.37786652859273,-48.54433564757936L153.39751508251268,-95.89719269783927L129.53515866563794,-131.33086768473422z" style="fill:rgb(83,212,212)"/><path d="M-93.29018353888372,159.71118033643566L-142.30310309545666,91.03571609926068L-160.9605961186854,76.52543310579348z" style="fill:rgb(38,43,165)"/><path d="M184.18408598438714,6.425819656807514L157.04879548009518,-73.39838330985783L154.37786652859273,-48.54433564757936z" style="fill:rgb(245,141,174)"/><path d="M-20.486825056295178,8.70923130768388L-51.91487693351851,10.356603699244127L-160.9605961186854,76.52543310579348z" style="fill:rgb(83,212,212)"/><path d="M182.27156850468143,31.12031401316774L145.06957395207402,-22.2254243364736L174.17463795539382,56.960755013712934z" style="fill:rgb(239,123,188)"/><path d="M-42.5870542777681,177.02879553824923L-118.24839183990369,101.41991588006378L-70.03204585361271,170.69775988081884z" style="fill:rgb(74,33,194)"/><path d="M11.697347727344203,-6.06451208765572L-20.486825056295178,8.70923130768388L-160.9605961186854,76.52543310579348zM79.40742691628675,54.116639621100624L129.53515866563794,-131.33086768473422L42.539875310701476,-54.57979087124254z" style="fill:rgb(83,212,212)"/><path d="M-70.03204585361271,170.69775988081884L-118.24839183990369,101.41991588006378L-142.30310309545666,91.03571609926068z" style="fill:rgb(55,36,180)"/><path d="M154.37786652859273,-48.54433564757936L157.04879548009518,-73.39838330985783L153.39751508251268,-95.89719269783927z" style="fill:rgb(83,212,212)"/><path d="M174.17463795539382,56.960755013712934L129.13516682635662,4.477478374850325L159.90012837065976,82.8832602269378z" style="fill:rgb(229,106,201)"/><path d="M-11.955584426229159,178.1793669517456L-89.48586619125976,106.96107962921147L-42.5870542777681,177.02879553824923z" style="fill:rgb(94,32,205)"/><path d="M182.27156850468143,31.12031401316774L154.37786652859273,-48.54433564757936L145.06957395207402,-22.2254243364736z" style="fill:rgb(239,123,188)"/><path d="M79.40742691628675,54.116639621100624L42.539875310701476,-54.57979087124254L34.89223262413755,-29.550544301332952zM-160.9605961186854,76.52543310579348L-142.30310309545666,91.03571609926068L-118.24839183990369,101.41991588006378zM79.40742691628675,54.116639621100624L154.37786652859273,-48.54433564757936L129.53515866563794,-131.33086768473422z" style="fill:rgb(83,212,212)"/><path d="M159.90012837065976,82.8832602269378L106.97591414913397,30.347312270708322L139.80589225001333,107.71555402620707z" style="fill:rgb(216,89,211)"/><path d="M20.58815430270327,173.87710257892178L-57.051509841654926,107.1339595615857L-11.955584426229159,178.1793669517456z" style="fill:rgb(116,34,214)"/><path d="M-42.5870542777681,177.02879553824923L-89.48586619125976,106.96107962921147L-118.24839183990369,101.41991588006378z" style="fill:rgb(74,33,194)"/><path d="M79.40742691628675,54.116639621100624L34.89223262413755,-29.550544301332952L11.697347727344203,-6.06451208765572zM-160.9605961186854,76.52543310579348L79.40742691628675,54.116639621100624L11.697347727344203,-6.06451208765572z" style="fill:rgb(83,212,212)"/><path d="M174.17463795539382,56.960755013712934L145.06957395207402,-22.2254243364736L129.13516682635662,4.477478374850325z" style="fill:rgb(229,106,201)"/><path d="M139.80589225001333,107.71555402620707L79.40742691628675,54.116639621100624L114.62095982148962,130.25918445270088z" style="fill:rgb(199,74,218)"/><path d="M53.569827936292505,164.15753414389044L-22.301183333885408,101.6841264306834L20.58815430270327,173.87710257892178z" style="fill:rgb(138,40,220)"/><path d="M-160.9605961186854,76.52543310579348L-118.24839183990369,101.41991588006378L-57.051509841654926,107.1339595615857z" style="fill:rgb(83,212,212)"/><path d="M114.62095982148962,130.25918445270088L47.63407072906362,74.5758748429469L85.4233283758936,149.38939660174364z" style="fill:rgb(180,60,221)"/><path d="M85.4233283758936,149.38939660174364L13.167157882774823,90.68748158904276L53.569827936292505,164.15753414389044z" style="fill:rgb(160,49,222)"/><path d="M-11.955584426229159,178.1793669517456L-57.051509841654926,107.1339595615857L-89.48586619125976,106.96107962921147z" style="fill:rgb(94,32,205)"/><path d="M159.90012837065976,82.8832602269378L129.13516682635662,4.477478374850325L106.97591414913397,30.347312270708322z" style="fill:rgb(216,89,211)"/><path d="M129.13516682635662,4.477478374850325L145.06957395207402,-22.2254243364736L154.37786652859273,-48.54433564757936zM-160.9605961186854,76.52543310579348L-57.051509841654926,107.1339595615857L79.40742691628675,54.116639621100624z" style="fill:rgb(83,212,212)"/><path d="M20.58815430270327,173.87710257892178L-22.301183333885408,101.6841264306834L-57.051509841654926,107.1339595615857z" style="fill:rgb(116,34,214)"/><path d="M-118.24839183990369,101.41991588006378L-89.48586619125976,106.96107962921147L-57.051509841654926,107.1339595615857z" style="fill:rgb(83,212,212)"/><path d="M139.80589225001333,107.71555402620707L106.97591414913397,30.347312270708322L79.40742691628675,54.116639621100624z" style="fill:rgb(199,74,218)"/><path d="M79.40742691628675,54.116639621100624L129.13516682635662,4.477478374850325L154.37786652859273,-48.54433564757936z" style="fill:rgb(83,212,212)"/><path d="M53.569827936292505,164.15753414389044L13.167157882774823,90.68748158904276L-22.301183333885408,101.6841264306834z" style="fill:rgb(138,40,220)"/><path d="M114.62095982148962,130.25918445270088L79.40742691628675,54.116639621100624L47.63407072906362,74.5758748429469z" style="fill:rgb(180,60,221)"/><path d="M85.4233283758936,149.38939660174364L47.63407072906362,74.5758748429469L13.167157882774823,90.68748158904276z" style="fill:rgb(160,49,222)"/><path d="M79.40742691628675,54.116639621100624L106.97591414913397,30.347312270708322L129.13516682635662,4.477478374850325zM-57.051509841654926,107.1339595615857L-22.301183333885408,101.6841264306834L13.167157882774823,90.68748158904276zM-57.051509841654926,107.1339595615857L13.167157882774823,90.68748158904276L79.40742691628675,54.116639621100624zM13.167157882774823,90.68748158904276L47.63407072906362,74.5758748429469L79.40742691628675,54.116639621100624z" style="fill:rgb(83,212,212)"/></svg>
