<?xml version="1.0" encoding="UTF-8"?>
<!-- Generated by jsxcad -->
<!DOCTYPE svg PUBLIC "-//W3C//DTD SVG 1.1 Tiny//EN" "http://www.w3.org/Graphics/SVG/1.1/DTD/svg11-tiny.dtd">
<svg viewBox="-250 -250 500 500" width="500" height="500" xmlns="http://www.w3.org/2000/svg"><path d="M-57.863041416031805,46.87441744304381L-49.05480518116863,168.33457587102396L-43.44951227908361,30.13550204289963zM-69.08199579607731,64.97819293567377L-63.626029430350535,155.2351189652504L-57.863041416031805,46.87441744304381zM-43.44951227908361,30.13550204289963L-30.416082981804685,178.08445467843168L-26.35311621229703,15.224109607112663zM-76.63804207632525,83.91924166054962L-73.73596863732965,139.4945053932161L-69.08199579607731,64.97819293567377z" style="fill:rgb(83,212,212)"/><path d="M-65.61015357048038,-166.81191277165397L-12.276714884245656,-7.325062383242613L8.72115816430784,-17.530114017466524z" style="fill:rgb(162,50,222)"/><path d="M-89.51616740549406,-155.0696097298359L-31.709129900654137,5.4502277931913214L-12.276714884245656,-7.325062383242613z" style="fill:rgb(183,62,221)"/><path d="M-26.35311621229703,15.224109607112663L-8.354532211265422,183.87876500558355L-7.117812582120427,2.5429466921192487z" style="fill:rgb(83,212,212)"/><path d="M-40.865691824127175,-175.84517125860896L8.72115816430784,-17.530114017466524L30.683632230793833,-24.867106521550056z" style="fill:rgb(139,40,220)"/><path d="M-79.22301319809236,121.86626297149469L-76.63804207632525,83.91924166054962L-80.12460234489774,103.10226265607012zM-7.117812582120427,2.5429466921192487L16.238745730468054,185.27625161150615L13.685384781756243,-7.560308440882113z" style="fill:rgb(83,212,212)"/><path d="M-31.709129900654137,5.4502277931913214L-132.2262125440347,-124.80431242090793L-49.00100084465386,20.446629315603708z" style="fill:rgb(203,77,216)"/><path d="M-15.959414183921886,-181.88273972839661L30.683632230793833,-24.867106521550056L52.98227735895319,-29.089387039466395z" style="fill:rgb(115,34,214)"/><path d="M13.685384781756243,-7.560308440882113L42.260330204949895,182.0581223576249L35.45929019553053,-14.789863776435219zM35.45929019553053,-14.789863776435219L68.45993162487505,174.27017881699413L57.57900049888691,-18.901806431838953z" style="fill:rgb(83,212,212)"/><path d="M-49.00100084465386,20.446629315603708L-149.78143433570008,-107.0646832121122L-63.60365026835209,37.26040661176757z" style="fill:rgb(220,94,208)"/><path d="M-76.63804207632525,83.91924166054962L-79.22301319809236,121.86626297149469L-73.73596863732965,139.4945053932161z" style="fill:rgb(83,212,212)"/><path d="M8.400420505665107,-184.6799047601121L52.98227735895319,-29.089387039466395L74.95890663927459,-30.00550025082504z" style="fill:rgb(92,32,204)"/><path d="M57.57900049888691,-18.901806431838953L93.53201362275686,162.2392304576487L79.38997184319523,-19.70820295953144zM-69.08199579607731,64.97819293567377L-73.73596863732965,139.4945053932161L-63.626029430350535,155.2351189652504z" style="fill:rgb(83,212,212)"/><path d="M-63.60365026835209,37.26040661176757L-163.99906194151882,-88.19622585144124L-74.99985891060562,55.428113439522264z" style="fill:rgb(233,112,197)"/><path d="M79.38997184319523,-19.70820295953144L93.53201362275686,162.2392304576487L100.2079527665663,-17.085902430452446z" style="fill:rgb(83,212,212)"/><path d="M31.46978241556559,-184.04193314934108L74.95890663927459,-30.00550025082504L95.92526842472745,-27.487986998231644z" style="fill:rgb(71,33,192)"/><path d="M100.2079527665663,-17.085902430452446L135.42720326205486,128.0364163675359L119.3232507948702,-10.990202604847312zM-57.863041416031805,46.87441744304381L-63.626029430350535,155.2351189652504L-49.05480518116863,168.33457587102396zM119.3232507948702,-10.990202604847312L150.28579615421964,107.6338197533427L136.0118673624481,-1.4728524315183487z" style="fill:rgb(83,212,212)"/><path d="M115.16712843284236,-21.48712948197084L31.46978241556559,-184.04193314934108L95.92526842472745,-27.487986998231644z" style="fill:rgb(51,38,177)"/><path d="M-74.99985891060562,55.428113439522264L-174.3069191480911,-68.73280023058354L-82.71487986660875,74.42141497623369z" style="fill:rgb(242,130,183)"/><path d="M-43.44951227908361,30.13550204289963L-49.05480518116863,168.33457587102396L-30.416082981804685,178.08445467843168z" style="fill:rgb(83,212,212)"/><path d="M-12.276714884245656,-7.325062383242613L-65.61015357048038,-166.81191277165397L-89.51616740549406,-155.0696097298359z" style="fill:rgb(162,50,222)"/><path d="M136.0118673624481,-1.4728524315183487L160.2247161824479,86.37230797803798L149.55595431375673,11.297051146410608z" style="fill:rgb(83,212,212)"/><path d="M-31.709129900654137,5.4502277931913214L-89.51616740549406,-155.0696097298359L-111.93229207266545,-140.9444340381145z" style="fill:rgb(183,62,221)"/><path d="M8.72115816430784,-17.530114017466524L-40.865691824127175,-175.84517125860896L-65.61015357048038,-166.81191277165397z" style="fill:rgb(139,40,220)"/><path d="M-132.2262125440347,-124.80431242090793L-31.709129900654137,5.4502277931913214L-111.93229207266545,-140.9444340381145z" style="fill:rgb(203,77,216)"/><path d="M-26.35311621229703,15.224109607112663L-30.416082981804685,178.08445467843168L-8.354532211265422,183.87876500558355zM149.55595431375673,11.297051146410608L164.9784068411917,65.25706817966321L159.27542338537452,27.011873506453856z" style="fill:rgb(83,212,212)"/><path d="M30.683632230793833,-24.867106521550056L-15.959414183921886,-181.88273972839661L-40.865691824127175,-175.84517125860896z" style="fill:rgb(115,34,214)"/><path d="M131.9553296313329,-12.049160866970345L52.4699625756187,-179.83838354386083L115.16712843284236,-21.48712948197084z" style="fill:rgb(34,46,160)"/><path d="M-149.78143433570008,-107.0646832121122L-49.00100084465386,20.446629315603708L-132.2262125440347,-124.80431242090793z" style="fill:rgb(220,94,208)"/><path d="M-82.71487986660875,74.42141497623369L-180.17805978382873,-49.277057639281786L-86.33490483549735,93.6441102171079z" style="fill:rgb(246,149,167)"/><path d="M-7.117812582120427,2.5429466921192487L-8.354532211265422,183.87876500558355L16.238745730468054,185.27625161150615z" style="fill:rgb(83,212,212)"/><path d="M52.98227735895319,-29.089387039466395L8.400420505665107,-184.6799047601121L-15.959414183921886,-181.88273972839661z" style="fill:rgb(92,32,204)"/><path d="M159.27542338537452,27.011873506453856L164.9784068411917,65.25706817966321L164.57119512209258,45.20796748158168zM13.685384781756243,-7.560308440882113L16.238745730468054,185.27625161150615L42.260330204949895,182.0581223576249z" style="fill:rgb(83,212,212)"/><path d="M-163.99906194151882,-88.19622585144124L-63.60365026835209,37.26040661176757L-149.78143433570008,-107.0646832121122z" style="fill:rgb(233,112,197)"/><path d="M-180.17805978382873,-49.277057639281786L-85.53343450292876,112.43398449700089L-86.33490483549735,93.6441102171079z" style="fill:rgb(246,167,149)"/><path d="M149.55595431375673,11.297051146410608L160.2247161824479,86.37230797803798L164.9784068411917,65.25706817966321zM35.45929019553053,-14.789863776435219L42.260330204949895,182.0581223576249L68.45993162487505,174.27017881699413z" style="fill:rgb(83,212,212)"/><path d="M74.95890663927459,-30.00550025082504L31.46978241556559,-184.04193314934108L8.400420505665107,-184.6799047601121z" style="fill:rgb(71,33,192)"/><path d="M136.0118673624481,-1.4728524315183487L150.28579615421964,107.6338197533427L160.2247161824479,86.37230797803798z" style="fill:rgb(83,212,212)"/><path d="M145.56631373286092,0.6624637458912851L70.59716519861014,-172.0236582443639L131.9553296313329,-12.049160866970345z" style="fill:rgb(21,57,142)"/><path d="M57.57900049888691,-18.901806431838953L68.45993162487505,174.27017881699413L93.53201362275686,162.2392304576487zM119.3232507948702,-10.990202604847312L135.42720326205486,128.0364163675359L150.28579615421964,107.6338197533427zM100.2079527665663,-17.085902430452446L116.22152019855663,146.5576582880135L135.42720326205486,128.0364163675359zM100.2079527665663,-17.085902430452446L93.53201362275686,162.2392304576487L116.22152019855663,146.5576582880135z" style="fill:rgb(83,212,212)"/><path d="M-174.3069191480911,-68.73280023058354L-74.99985891060562,55.428113439522264L-163.99906194151882,-88.19622585144124z" style="fill:rgb(242,130,183)"/><path d="M-181.16028408014947,-30.500802668476314L-80.10528649602426,130.0726556042512L-85.53343450292876,112.43398449700089z" style="fill:rgb(242,183,130)"/><path d="M31.46978241556559,-184.04193314934108L115.16712843284236,-21.48712948197084L52.4699625756187,-179.83838354386083z" style="fill:rgb(51,38,177)"/><path d="M155.31401698649333,16.34537992508722L85.04395665689933,-160.6628452817356L145.56631373286092,0.6624637458912851z" style="fill:rgb(12,71,124)"/><path d="M-180.17805978382873,-49.277057639281786L-82.71487986660875,74.42141497623369L-174.3069191480911,-68.73280023058354z" style="fill:rgb(246,149,167)"/><path d="M-176.9169529848628,-13.136510929365306L-70.00577835238224,145.80619478236673L-80.10528649602426,130.0726556042512z" style="fill:rgb(233,197,112)"/><path d="M52.4699625756187,-179.83838354386083L131.9553296313329,-12.049160866970345L70.59716519861014,-172.0236582443639z" style="fill:rgb(34,46,160)"/><path d="M130.69409151398352,-160.86756358852688L193.64190369686753,26.629878079572787L186.2734008847134,3.993808570259643zM-85.53343450292876,112.43398449700089L-180.17805978382873,-49.277057639281786L-181.16028408014947,-30.500802668476314z" style="fill:rgb(246,167,149)"/><path d="M70.59716519861014,-172.0236582443639L145.56631373286092,0.6624637458912851L85.04395665689933,-160.6628452817356z" style="fill:rgb(21,57,142)"/><path d="M-204.57172543565795,-64.36151495248578L-214.5904555540725,-16.525742176616887L-191.30120121597088,-88.37828116581879z" style="fill:rgb(83,212,212)"/><path d="M-78.79118082796347,183.62465202794382L-198.93349191033516,25.208087136559495L-96.65527541331228,166.63577300848345z" style="fill:rgb(34,46,160)"/><path d="M-191.30120121597088,-88.37828116581879L-198.93349191033516,25.208087136559495L-173.42854182690522,-111.50373632569747zM-173.42854182690522,-111.50373632569747L-180.8018027446948,41.28733105295649L-151.66533864067813,-133.14359646120994z" style="fill:rgb(83,212,212)"/><path d="M-80.10528649602426,130.0726556042512L-181.16028408014947,-30.500802668476314L-176.9169529848628,-13.136510929365306z" style="fill:rgb(242,183,130)"/><path d="M-151.66533864067813,-133.14359646120994L-156.05287151708427,52.80808042695706L-126.72423656915579,-152.78455100360418zM-214.5904555540725,-16.525742176616887L-204.57172543565795,-64.36151495248578L-212.54766600561882,-40.14456249569356zM-126.72423656915579,-152.78455100360418L-125.40384982750285,58.86986303361837L-99.3141550316964,-169.97728723876142z" style="fill:rgb(83,212,212)"/><path d="M85.04395665689933,-160.6628452817356L155.31401698649333,16.34537992508722L95.03539697049851,-145.960905160198z" style="fill:rgb(12,71,124)"/><path d="M193.64190369686753,26.629878079572787L137.6831469295414,-113.79496901950559L194.80628917221716,51.86865898563897z" style="fill:rgb(246,149,167)"/><path d="M-99.3141550316964,-169.97728723876142L-90.04966793511592,58.80619175470167L-70.14508376000124,-184.3208319692404z" style="fill:rgb(83,212,212)"/><path d="M-55.50003024018155,196.45464041111836L-180.8018027446948,41.28733105295649L-78.79118082796347,183.62465202794382z" style="fill:rgb(51,38,177)"/><path d="M-191.30120121597088,-88.37828116581879L-214.5904555540725,-16.525742176616887L-210.16914681970587,5.589851370296538zM-70.14508376000124,-184.3208319692404L-51.64064724467209,52.29881198835573L-39.93974383022824,-195.45077987493477z" style="fill:rgb(83,212,212)"/><path d="M-70.00577835238224,145.80619478236673L-176.9169529848628,-13.136510929365306L-167.27767549804537,2.0436277588485385z" style="fill:rgb(233,197,112)"/><path d="M-39.93974383022824,-195.45077987493477L-12.182966373333995,39.46515801362519L-9.448937203930807,-203.03262329157604z" style="fill:rgb(83,212,212)"/><path d="M194.80628917221716,51.86865898563897L129.8842882033989,-86.23662069166465L189.29852133048766,78.73178026906642z" style="fill:rgb(242,130,183)"/><path d="M-9.448937203930807,-203.03262329157604L26.13419420170449,20.892946185619003L20.532011304261534,-206.76175866831946zM-191.30120121597088,-88.37828116581879L-210.16914681970587,5.589851370296538L-198.93349191033516,25.208087136559495z" style="fill:rgb(83,212,212)"/><path d="M193.64190369686753,26.629878079572787L130.69409151398352,-160.86756358852688L137.76751686037133,-138.9795958764742z" style="fill:rgb(246,167,149)"/><path d="M20.532011304261534,-206.76175866831946L61.15884574451449,-2.3945888941984723L49.14890343142689,-206.37150281615519z" style="fill:rgb(83,212,212)"/><path d="M-125.40384982750285,58.86986303361837L-55.50003024018155,196.45464041111836L-27.539843819793603,204.25631362993968z" style="fill:rgb(71,33,192)"/><path d="M-173.42854182690522,-111.50373632569747L-198.93349191033516,25.208087136559495L-180.8018027446948,41.28733105295649zM49.14890343142689,-206.37150281615519L91.00020902094046,-29.0413105880859L75.48015018148217,-201.65046981045757z" style="fill:rgb(83,212,212)"/><path d="M-198.93349191033516,25.208087136559495L-78.79118082796347,183.62465202794382L-180.8018027446948,41.28733105295649z" style="fill:rgb(34,46,160)"/><path d="M189.29852133048766,78.73178026906642L114.20962220764004,-57.50803265851674L176.97887325779587,106.02522563694623z" style="fill:rgb(233,112,197)"/><path d="M137.6831469295414,-113.79496901950559L193.64190369686753,26.629878079572787L137.76751686037133,-138.9795958764742z" style="fill:rgb(246,149,167)"/><path d="M75.48015018148217,-201.65046981045757L114.20962220764004,-57.50803265851674L98.5387766594106,-192.4702116950706z" style="fill:rgb(83,212,212)"/><path d="M-90.04966793511592,58.80619175470167L-27.539843819793603,204.25631362993968L3.962229170601837,206.36588331736982z" style="fill:rgb(92,32,204)"/><path d="M-151.66533864067813,-133.14359646120994L-180.8018027446948,41.28733105295649L-156.05287151708427,52.80808042695706zM98.5387766594106,-192.4702116950706L129.8842882033989,-86.23662069166465L117.29055807585846,-178.82289243123955z" style="fill:rgb(83,212,212)"/><path d="M176.97887325779587,106.02522563694623L91.00020902094046,-29.0413105880859L158.114242602456,132.4002534241256z" style="fill:rgb(220,94,208)"/><path d="M-51.64064724467209,52.29881198835573L3.962229170601837,206.36588331736982L37.54615755493171,202.4214657266977z" style="fill:rgb(115,34,214)"/><path d="M117.29055807585846,-178.82289243123955L137.6831469295414,-113.79496901950559L130.69409151398352,-160.86756358852688z" style="fill:rgb(83,212,212)"/><path d="M-180.8018027446948,41.28733105295649L-55.50003024018155,196.45464041111836L-156.05287151708427,52.80808042695706z" style="fill:rgb(51,38,177)"/><path d="M-126.72423656915579,-152.78455100360418L-156.05287151708427,52.80808042695706L-125.40384982750285,58.86986303361837z" style="fill:rgb(83,212,212)"/><path d="M129.8842882033989,-86.23662069166465L194.80628917221716,51.86865898563897L137.6831469295414,-113.79496901950559z" style="fill:rgb(242,130,183)"/><path d="M158.114242602456,132.4002534241256L61.15884574451449,-2.3945888941984723L133.42017714867163,156.4514457593875z" style="fill:rgb(203,77,216)"/><path d="M61.15884574451449,-2.3945888941984723L104.04809862112964,176.84232252145534L133.42017714867163,156.4514457593875z" style="fill:rgb(183,62,221)"/><path d="M-12.182966373333995,39.46515801362519L37.54615755493171,202.4214657266977L71.50980278316679,192.4381891553947z" style="fill:rgb(139,40,220)"/><path d="M26.13419420170449,20.892946185619003L71.50980278316679,192.4381891553947L104.04809862112964,176.84232252145534z" style="fill:rgb(162,50,222)"/><path d="M-99.3141550316964,-169.97728723876142L-125.40384982750285,58.86986303361837L-90.04966793511592,58.80619175470167z" style="fill:rgb(83,212,212)"/><path d="M-55.50003024018155,196.45464041111836L-125.40384982750285,58.86986303361837L-156.05287151708427,52.80808042695706z" style="fill:rgb(71,33,192)"/><path d="M130.69409151398352,-160.86756358852688L137.6831469295414,-113.79496901950559L137.76751686037133,-138.9795958764742z" style="fill:rgb(83,212,212)"/><path d="M114.20962220764004,-57.50803265851674L189.29852133048766,78.73178026906642L129.8842882033989,-86.23662069166465z" style="fill:rgb(233,112,197)"/><path d="M-70.14508376000124,-184.3208319692404L-90.04966793511592,58.80619175470167L-51.64064724467209,52.29881198835573zM117.29055807585846,-178.82289243123955L129.8842882033989,-86.23662069166465L137.6831469295414,-113.79496901950559zM98.5387766594106,-192.4702116950706L114.20962220764004,-57.50803265851674L129.8842882033989,-86.23662069166465zM-39.93974383022824,-195.45077987493477L-51.64064724467209,52.29881198835573L-12.182966373333995,39.46515801362519z" style="fill:rgb(83,212,212)"/><path d="M-27.539843819793603,204.25631362993968L-90.04966793511592,58.80619175470167L-125.40384982750285,58.86986303361837z" style="fill:rgb(92,32,204)"/><path d="M75.48015018148217,-201.65046981045757L91.00020902094046,-29.0413105880859L114.20962220764004,-57.50803265851674zM-9.448937203930807,-203.03262329157604L-12.182966373333995,39.46515801362519L26.13419420170449,20.892946185619003z" style="fill:rgb(83,212,212)"/><path d="M91.00020902094046,-29.0413105880859L176.97887325779587,106.02522563694623L114.20962220764004,-57.50803265851674z" style="fill:rgb(220,94,208)"/><path d="M49.14890343142689,-206.37150281615519L61.15884574451449,-2.3945888941984723L91.00020902094046,-29.0413105880859zM20.532011304261534,-206.76175866831946L26.13419420170449,20.892946185619003L61.15884574451449,-2.3945888941984723z" style="fill:rgb(83,212,212)"/><path d="M3.962229170601837,206.36588331736982L-51.64064724467209,52.29881198835573L-90.04966793511592,58.80619175470167z" style="fill:rgb(115,34,214)"/><path d="M61.15884574451449,-2.3945888941984723L158.114242602456,132.4002534241256L91.00020902094046,-29.0413105880859z" style="fill:rgb(203,77,216)"/><path d="M37.54615755493171,202.4214657266977L-12.182966373333995,39.46515801362519L-51.64064724467209,52.29881198835573z" style="fill:rgb(139,40,220)"/><path d="M104.04809862112964,176.84232252145534L61.15884574451449,-2.3945888941984723L26.13419420170449,20.892946185619003z" style="fill:rgb(183,62,221)"/><path d="M71.50980278316679,192.4381891553947L26.13419420170449,20.892946185619003L-12.182966373333995,39.46515801362519z" style="fill:rgb(162,50,222)"/></svg>
