<?xml version="1.0" encoding="UTF-8"?>
<!-- Generated by jsxcad -->
<!DOCTYPE svg PUBLIC "-//W3C//DTD SVG 1.1 Tiny//EN" "http://www.w3.org/Graphics/SVG/1.1/DTD/svg11-tiny.dtd">
<svg viewBox="-250 -250 500 500" width="500" height="500" xmlns="http://www.w3.org/2000/svg"><path d="M-44.90159549188759,-137.40331281234526L-48.09618655808988,-66.98637499233487L-17.44544672145658,-147.1430197598632zM-71.42750597961566,-124.72221308358543L-70.32437346159732,-45.73448381323069L-44.90159549188759,-137.40331281234526z" style="fill:rgb(83,212,212)"/><path d="M-18.74401635661271,-80.59917828467125L-9.970863016670181,5.362291691923307L17.518869516336306,-7.254333391674073z" style="fill:rgb(158,48,222)"/><path d="M-79.83430863200945,-21.775963109320926L-71.42750597961566,-124.72221308358543L-96.42991703278192,-109.39443910346695zM-17.44544672145658,-147.1430197598632L10.824249518531227,-83.32153532260644L10.32437817042148,-153.67381103712913z" style="fill:rgb(83,212,212)"/><path d="M-9.970863016670181,5.362291691923307L-70.32437346159732,-45.73448381323069L-30.36624933274907,25.912193485030567z" style="fill:rgb(212,85,213)"/><path d="M10.824249518531227,-83.32153532260644L17.518869516336306,-7.254333391674073L45.575795684228936,-8.896474489317898z" style="fill:rgb(96,32,206)"/><path d="M10.32437817042148,-153.67381103712913L33.35609966733872,-74.08549992788905L37.757410518005344,-156.75627559848377z" style="fill:rgb(83,212,212)"/><path d="M67.28755948592935,1.2169445611945984L10.824249518531227,-83.32153532260644L45.575795684228936,-8.896474489317898z" style="fill:rgb(42,41,169)"/><path d="M-17.44544672145658,-147.1430197598632L-48.09618655808988,-66.98637499233487L-18.74401635661271,-80.59917828467125z" style="fill:rgb(83,212,212)"/><path d="M-30.36624933274907,25.912193485030567L-79.83430863200945,-21.775963109320926L-38.497029530697866,49.59108085223884z" style="fill:rgb(243,133,180)"/><path d="M-9.970863016670181,5.362291691923307L-18.74401635661271,-80.59917828467125L-48.09618655808988,-66.98637499233487z" style="fill:rgb(158,48,222)"/><path d="M-44.90159549188759,-137.40331281234526L-70.32437346159732,-45.73448381323069L-48.09618655808988,-66.98637499233487z" style="fill:rgb(83,212,212)"/><path d="M-70.32437346159732,-45.73448381323069L-9.970863016670181,5.362291691923307L-48.09618655808988,-66.98637499233487z" style="fill:rgb(212,85,213)"/><path d="M-17.44544672145658,-147.1430197598632L-18.74401635661271,-80.59917828467125L10.824249518531227,-83.32153532260644z" style="fill:rgb(83,212,212)"/><path d="M17.518869516336306,-7.254333391674073L10.824249518531227,-83.32153532260644L-18.74401635661271,-80.59917828467125z" style="fill:rgb(96,32,206)"/><path d="M-71.42750597961566,-124.72221308358543L-79.83430863200945,-21.775963109320926L-70.32437346159732,-45.73448381323069z" style="fill:rgb(83,212,212)"/><path d="M-79.83430863200945,-21.775963109320926L-31.634130247791056,70.46381238739629L-38.497029530697866,49.59108085223884z" style="fill:rgb(243,180,133)"/><path d="M37.757410518005344,-156.75627559848377L42.53987531070152,-54.57979087124259L64.16000781990115,-156.18542733663912z" style="fill:rgb(83,212,212)"/><path d="M-79.83430863200945,-21.775963109320926L-30.36624933274907,25.912193485030567L-70.32437346159732,-45.73448381323069z" style="fill:rgb(243,133,180)"/><path d="M10.32437817042148,-153.67381103712913L10.824249518531227,-83.32153532260644L33.35609966733872,-74.08549992788905z" style="fill:rgb(83,212,212)"/><path d="M76.61499505021422,21.101914589328185L33.35609966733872,-74.08549992788905L67.28755948592935,1.2169445611945984z" style="fill:rgb(11,74,121)"/><path d="M-156.52167218719416,-50.990006150848174L-160.96059863076107,76.52544242393846L-139.5501043509441,-72.13995063289421zM-139.5501043509441,-72.13995063289421L-142.3031318094607,91.03570488010376L-119.3288738815256,-91.74566468639827zM-169.67663292297422,-28.768854615198332L-173.86417608386324,58.71541532759954L-156.52167218719416,-50.990006150848174zM-119.3288738815256,-91.74566468639827L-118.24844743677147,101.41991257454278L-96.42991703278192,-109.39443910346695zM-178.4638473939804,-6.021259949039071L-180.9460687113468,38.46838851032834L-169.67663292297422,-28.768854615198332z" style="fill:rgb(83,212,212)"/><path d="M10.824249518531227,-83.32153532260644L67.28755948592935,1.2169445611945984L33.35609966733872,-74.08549992788905z" style="fill:rgb(42,41,169)"/><path d="M-180.9460687113468,38.46838851032834L-178.4638473939804,-6.021259949039071L-182.36878094074427,16.62746672905557zM37.757410518005344,-156.75627559848377L33.35609966733872,-74.08549992788905L42.53987531070152,-54.57979087124259z" style="fill:rgb(83,212,212)"/><path d="M-111.66532140578965,144.77386676848866L-173.86417608386324,58.71541532759954L-124.76061937396793,126.69462702524159z" style="fill:rgb(25,53,148)"/><path d="M-31.634130247791056,70.46381238739629L-79.83430863200945,-21.775963109320926L-73.47704740089586,-1.1110422812292216z" style="fill:rgb(243,180,133)"/><path d="M-169.67663292297422,-28.768854615198332L-180.9460687113468,38.46838851032834L-173.86417608386324,58.71541532759954z" style="fill:rgb(83,212,212)"/><path d="M33.35609966733872,-74.08549992788905L76.61499505021422,21.101914589328185L42.53987531070152,-54.57979087124259z" style="fill:rgb(11,74,121)"/><path d="M-156.52167218719416,-50.990006150848174L-173.86417608386324,58.71541532759954L-160.96059863076107,76.52544242393846zM-96.42991703278192,-109.39443910346695L-89.48584618067942,106.96112999990685L-79.83430863200945,-21.775963109320926z" style="fill:rgb(83,212,212)"/><path d="M180.20181704216466,-16.222866224207287L157.0487308551111,-73.39834272422199L184.18402584755174,6.425857911338742z" style="fill:rgb(247,158,158)"/><path d="M-93.29021180331011,159.71116047430854L-160.96059863076107,76.52544242393846L-111.66532140578965,144.77386676848866z" style="fill:rgb(38,43,165)"/><path d="M64.16000781990115,-156.18542733663912L106.97594771409466,30.347278585476904L88.7898573226667,-151.803393151876zM-139.5501043509441,-72.13995063289421L-160.96059863076107,76.52544242393846L-142.3031318094607,91.03570488010376zM88.7898573226667,-151.803393151876L129.13515809444095,4.477493656041065L110.85705514890721,-143.51843992942995z" style="fill:rgb(83,212,212)"/><path d="M-173.86417608386324,58.71541532759954L-111.66532140578965,144.77386676848866L-160.96059863076107,76.52544242393846z" style="fill:rgb(25,53,148)"/><path d="M110.85705514890721,-143.51843992942995L145.0695052580383,-22.225383549139725L129.53509279660227,-131.3308630878633z" style="fill:rgb(83,212,212)"/><path d="M157.0487308551111,-73.39834272422199L180.20181704216466,-16.222866224207287L153.39744482310118,-95.89719703274197z" style="fill:rgb(247,158,158)"/><path d="M-119.3288738815256,-91.74566468639827L-142.3031318094607,91.03570488010376L-118.24844743677147,101.41991257454278z" style="fill:rgb(83,212,212)"/><path d="M184.18402584755174,6.425857911338742L154.3779076878478,-48.54430854504219L182.27160654427468,31.12034053369834z" style="fill:rgb(245,141,174)"/><path d="M-70.03210667821864,170.69773898963388L-142.3031318094607,91.03570488010376L-93.29021180331011,159.71116047430854z" style="fill:rgb(55,36,180)"/><path d="M129.53509279660227,-131.3308630878633L154.3779076878478,-48.54430854504219L143.9852519249266,-115.36386402165435zM64.16000781990115,-156.18542733663912L42.53987531070152,-54.57979087124259L79.40749692277508,54.116603011822576zM-96.42991703278192,-109.39443910346695L-118.24844743677147,101.41991257454278L-89.48584618067942,106.96112999990685zM143.9852519249266,-115.36386402165435L157.0487308551111,-73.39834272422199L153.39744482310118,-95.89719703274197z" style="fill:rgb(83,212,212)"/><path d="M-160.96059863076107,76.52544242393846L-93.29021180331011,159.71116047430854L-142.3031318094607,91.03570488010376z" style="fill:rgb(38,43,165)"/><path d="M-79.83430863200945,-21.775963109320926L-89.48584618067942,106.96112999990685L-73.47704740089586,-1.1110422812292216z" style="fill:rgb(83,212,212)"/><path d="M154.3779076878478,-48.54430854504219L184.18402584755174,6.425857911338742L157.0487308551111,-73.39834272422199z" style="fill:rgb(245,141,174)"/><path d="M182.27160654427468,31.12034053369834L145.0695052580383,-22.225383549139725L174.17457503974978,56.96079496901289z" style="fill:rgb(239,123,188)"/><path d="M143.9852519249266,-115.36386402165435L154.3779076878478,-48.54430854504219L157.0487308551111,-73.39834272422199z" style="fill:rgb(83,212,212)"/><path d="M-89.48584618067942,106.96112999990685L-70.03210667821864,170.69773898963388L-42.58703288325203,177.02885444625403z" style="fill:rgb(74,33,194)"/><path d="M129.53509279660227,-131.3308630878633L145.0695052580383,-22.225383549139725L154.3779076878478,-48.54430854504219z" style="fill:rgb(83,212,212)"/><path d="M-142.3031318094607,91.03570488010376L-70.03210667821864,170.69773898963388L-118.24844743677147,101.41991257454278z" style="fill:rgb(55,36,180)"/><path d="M-73.47704740089586,-1.1110422812292216L-57.05159523196436,107.13404224609042L-51.91487813709155,10.356623047556912z" style="fill:rgb(83,212,212)"/><path d="M174.17457503974978,56.96079496901289L129.13515809444095,4.477493656041065L159.90012961038758,82.88327701257869z" style="fill:rgb(229,106,201)"/><path d="M145.0695052580383,-22.225383549139725L182.27160654427468,31.12034053369834L154.3779076878478,-48.54430854504219z" style="fill:rgb(239,123,188)"/><path d="M110.85705514890721,-143.51843992942995L129.13515809444095,4.477493656041065L145.0695052580383,-22.225383549139725z" style="fill:rgb(83,212,212)"/><path d="M-57.05159523196436,107.13404224609042L-42.58703288325203,177.02885444625403L-11.955659888083833,178.17943744747075z" style="fill:rgb(94,32,205)"/><path d="M88.7898573226667,-151.803393151876L106.97594771409466,30.347278585476904L129.13515809444095,4.477493656041065zM34.89225714711103,-29.550550594561035L47.63404632722597,74.57595031049196L42.53987531070152,-54.57979087124259zM64.16000781990115,-156.18542733663912L79.40749692277508,54.116603011822576L106.97594771409466,30.347278585476904z" style="fill:rgb(83,212,212)"/><path d="M-70.03210667821864,170.69773898963388L-89.48584618067942,106.96112999990685L-118.24844743677147,101.41991257454278z" style="fill:rgb(74,33,194)"/><path d="M159.90012961038758,82.88327701257869L106.97594771409466,30.347278585476904L139.8059238283677,107.71552050616165z" style="fill:rgb(216,89,211)"/><path d="M-51.91487813709155,10.356623047556912L-22.301183333885426,101.68412643068348L-20.486825056295196,8.709231307683886zM11.697348002849221,-6.06449281799088L13.16724148566431,90.68752357253345L34.89225714711103,-29.550550594561035z" style="fill:rgb(83,212,212)"/><path d="M-22.301183333885426,101.68412643068348L-11.955659888083833,178.17943744747075L20.588154302703284,173.87710257892186z" style="fill:rgb(116,34,214)"/><path d="M129.13515809444095,4.477493656041065L174.17457503974978,56.96079496901289L145.0695052580383,-22.225383549139725z" style="fill:rgb(229,106,201)"/><path d="M-20.486825056295196,8.709231307683886L13.16724148566431,90.68752357253345L11.697348002849221,-6.06449281799088zM-73.47704740089586,-1.1110422812292216L-89.48584618067942,106.96112999990685L-57.05159523196436,107.13404224609042z" style="fill:rgb(83,212,212)"/><path d="M139.8059238283677,107.71552050616165L79.40749692277508,54.116603011822576L114.62101745210121,130.25915152030407z" style="fill:rgb(199,74,218)"/><path d="M13.16724148566431,90.68752357253345L20.588154302703284,173.87710257892186L53.569910126874625,164.15757883963718z" style="fill:rgb(138,40,220)"/><path d="M79.40749692277508,54.116603011822576L85.42330698324521,149.38946860742087L114.62101745210121,130.25915152030407z" style="fill:rgb(180,60,221)"/><path d="M-42.58703288325203,177.02885444625403L-57.05159523196436,107.13404224609042L-89.48584618067942,106.96112999990685z" style="fill:rgb(94,32,205)"/><path d="M47.63404632722597,74.57595031049196L53.569910126874625,164.15757883963718L85.42330698324521,149.38946860742087z" style="fill:rgb(160,49,222)"/><path d="M106.97594771409466,30.347278585476904L159.90012961038758,82.88327701257869L129.13515809444095,4.477493656041065z" style="fill:rgb(216,89,211)"/><path d="M-51.91487813709155,10.356623047556912L-57.05159523196436,107.13404224609042L-22.301183333885426,101.68412643068348z" style="fill:rgb(83,212,212)"/><path d="M-11.955659888083833,178.17943744747075L-22.301183333885426,101.68412643068348L-57.05159523196436,107.13404224609042z" style="fill:rgb(116,34,214)"/><path d="M42.53987531070152,-54.57979087124259L47.63404632722597,74.57595031049196L79.40749692277508,54.116603011822576z" style="fill:rgb(83,212,212)"/><path d="M79.40749692277508,54.116603011822576L139.8059238283677,107.71552050616165L106.97594771409466,30.347278585476904z" style="fill:rgb(199,74,218)"/><path d="M34.89225714711103,-29.550550594561035L13.16724148566431,90.68752357253345L47.63404632722597,74.57595031049196zM-20.486825056295196,8.709231307683886L-22.301183333885426,101.68412643068348L13.16724148566431,90.68752357253345z" style="fill:rgb(83,212,212)"/><path d="M20.588154302703284,173.87710257892186L13.16724148566431,90.68752357253345L-22.301183333885426,101.68412643068348z" style="fill:rgb(138,40,220)"/><path d="M85.42330698324521,149.38946860742087L79.40749692277508,54.116603011822576L47.63404632722597,74.57595031049196z" style="fill:rgb(180,60,221)"/><path d="M53.569910126874625,164.15757883963718L47.63404632722597,74.57595031049196L13.16724148566431,90.68752357253345z" style="fill:rgb(160,49,222)"/></svg>
